<?xml version="1.0" encoding="utf-8"?>
<!-- Generator: Adobe Illustrator 19.0.0, SVG Export Plug-In . SVG Version: 6.00 Build 0)  -->
<svg version="1.1" id="Layer_1" xmlns="http://www.w3.org/2000/svg" xmlns:xlink="http://www.w3.org/1999/xlink" x="0px" y="0px"
	 viewBox="0 0 1296 1296" style="enable-background:new 0 0 1296 1296;" xml:space="preserve">
<style type="text/css">
	.st0{fill:#FFFFFF;}
</style>
<g>
	<path class="st0" d="M1287.8,613.8c0,25,0,49.9,0,74.9c-0.7,4-1.5,8-2.2,12c-7.2,41.2-10.6,83.7-22.4,123.5
		c-61.4,207-194.7,348.7-395.6,426.8c-45,17.5-92,27.6-140.3,33.7c0-166.8,0-332.9,0-500.6c51.4,0,101.9,0,153,0
		c7.7-59.8,15.3-118.2,23.1-178.3c-59.3,0-117.7,0-176.1,0c0-44.8-2.1-88.1,0.6-131.1c2.8-45.9,26.5-66.5,72.6-68.2
		c31.6-1.2,63.2-1,94.8-1.4c4.4-0.1,8.8-0.4,14-0.7c0-51.6,0.1-101.9-0.4-152.2c0-2.6-6.2-7.2-9.7-7.3c-49-2.2-98.1-5.8-147-5
		c-49.7,0.8-95.7,16.5-134.4,49.1c-49.3,41.6-70.4,96.9-73.8,159.3c-2.5,46.9-1.4,94-1.9,141c-0.1,5.3,0,10.5,0,17.2
		c-52,0-102.5,0-152.9,0c0,59.9,0,118.3,0,178.5c51.3,0,101.7,0,152.2,0c0,165.9,0,330.1,0,494.1c-1.4,0.3-2.3,0.8-3,0.7
		c-94.1-16.2-179.9-52.6-257.8-107.3c-72-50.6-131.1-113.7-177-189C61.5,914.4,32.3,840.3,19.5,760c-3.8-23.7-6.5-47.6-9.7-71.4
		c0-25,0-49.9,0-74.9c0.8-4.4,1.7-8.8,2.3-13.3c3.7-26.7,5.9-53.8,11.4-80.1C49.1,399,104.3,292.7,192.2,205.1
		C346.6,51.2,533.4-10.2,748.7,20.7c135.2,19.4,251.8,80.1,348.9,176.2c96.4,95.5,156.9,210.3,180.2,344.3
		C1282,565.2,1284.5,589.6,1287.8,613.8z"/>
</g>
</svg>
