<?xml version="1.0" encoding="utf-8"?>
<!-- Generator: Adobe Illustrator 19.0.0, SVG Export Plug-In . SVG Version: 6.00 Build 0)  -->
<svg version="1.1" id="Layer_1" xmlns="http://www.w3.org/2000/svg" xmlns:xlink="http://www.w3.org/1999/xlink" x="0px" y="0px"
	 viewBox="0 0 1296 1296" style="enable-background:new 0 0 1296 1296;" xml:space="preserve">
<style type="text/css">
	.st0{fill:#FFFFFF;}
</style>
<g>
	<path class="st0" d="M1272.8,646.5c0,92.3,2.3,184.6-0.5,276.8c-6.1,203.4-145.5,344.7-348.4,348.8c-186.1,3.7-372.4,4-558.5-0.5
		c-126.9-3-232-55-298.1-169.6c-29.6-51.4-46.4-108.1-47-166.6c-2.1-193.4-5.4-387.1,0.8-580.3C26.4,192.4,122,73.6,269,36.3
		C326.4,21.8,387.3,16.5,446.7,16c159.5-1.6,319.1-1.6,478.4,4c131.6,4.7,239.8,57.8,304.5,179.3c27.4,51.5,41.4,107.5,42.5,165.4
		C1274.1,458.6,1272.7,552.6,1272.8,646.5C1272.8,646.5,1272.8,646.5,1272.8,646.5z M116.3,643.9c0,0-0.1,0-0.1,0
		c0,92.3-1.8,184.6,0.7,276.7c1.6,60.6,17.8,117.9,57.6,166.6c49.4,60.5,116.4,85.8,190.3,86.9c187.7,2.9,375.5,2.3,563.2,0.3
		c53.7-0.6,105-16.7,149.7-49.5c68.7-50.4,95.6-122.4,96.8-202.8c2.6-184.5,1.8-369,0.1-553.5c-0.5-55.5-14.9-109-49.2-154.7
		c-50.1-66.8-121-95.5-200.6-96.7c-185.3-2.8-370.6-2.3-555.9,0.2c-69.3,0.9-133.7,21.8-183.8,74.9c-47.2,50-66.1,111.3-68.1,177.2
		C114.2,461,116.3,552.5,116.3,643.9z"/>
	<path class="st0" d="M330.1,645.1c0.3-174.5,142-315.1,317.3-315c173.9,0.1,314.8,142.6,314.4,317.9
		c-0.4,172.9-142.4,313.8-316.1,313.8C471.2,961.7,329.8,819.9,330.1,645.1z M645.7,864.6c122,0,218.8-96.6,218.9-218.3
		c0.1-122.2-96.5-219-218.4-219c-122.2,0-218.9,96.5-218.9,218.4C427.3,767.8,523.8,864.6,645.7,864.6z"/>
</g>
</svg>
