<?xml version="1.0" encoding="utf-8"?>
<!-- Generator: Adobe Illustrator 19.0.0, SVG Export Plug-In . SVG Version: 6.00 Build 0)  -->
<svg version="1.1" id="Layer_1" xmlns="http://www.w3.org/2000/svg" xmlns:xlink="http://www.w3.org/1999/xlink" x="0px" y="0px"
	 viewBox="0 0 1296 1296" style="enable-background:new 0 0 1296 1296;" xml:space="preserve">
<style type="text/css">
	.st0{fill:#FFFFFF;}
</style>
<g>
	<path class="st0" d="M1288.7,650c-0.1,352.1-286.8,637.1-637.9,637.8c-352.9,0.7-642.9-286.2-640.1-644.1
		C13.4,293.1,295.8,13.8,642,10.1C1007.9,6.2,1290.1,302,1288.7,650z M594,537.2c-13.5,0-26.3-0.5-38.9,0.1
		c-13,0.7-26.1,1.4-38.8,3.8c-138.3,26-227.3,154.7-203.1,293.4c24.4,140,164.5,232.9,302.9,200.8
		c117.8-27.3,197.3-127.5,197.5-249.1c0.2-87.7,0-175.3,0-263c0-3,0-6.1,0-10.4c55.7,44.2,120,57.2,186.9,63.5
		c0-47.6,0-93.4,0-139.4c-51.1-3.1-97.6-16.2-134-53.7c-36.2-37.3-50.4-83.7-53.4-134.3c-47.1,0-93.5,0-140.7,0c0,3.6,0,6.7,0,9.8
		c0,82.6,0,165.2,0,247.9c0,94.3,0.2,188.6-0.1,282.9c-0.2,69.8-63.9,122.4-131.6,109.1c-59.4-11.6-99.2-67.5-89.8-126.3
		c9.6-59.9,64.5-101,125-93.4c5.9,0.7,11.8,2,18,3C594,634.3,594,587.1,594,537.2z"/>
</g>
</svg>
