<?xml version="1.0" encoding="utf-8"?>
<!-- Generator: Adobe Illustrator 19.0.0, SVG Export Plug-In . SVG Version: 6.00 Build 0)  -->
<svg version="1.1" id="Layer_1" xmlns="http://www.w3.org/2000/svg" xmlns:xlink="http://www.w3.org/1999/xlink" x="0px" y="0px"
	 viewBox="0 0 1296 1296" style="enable-background:new 0 0 1296 1296;" xml:space="preserve">
<style type="text/css">
	.st0{fill:#FFFFFF;}
</style>
<g>
	<path class="st0" d="M5.1,672.4c0-13.4,0-26.9,0-40.3c1.5-7.8,3.5-15.6,4.4-23.4c2.4-22.9,2.8-46.2,6.8-68.9
		C75.4,202.6,386.4-29.5,725.3,11.3c399,48.1,669.3,446.9,529.5,854.4c-88.9,259.3-355.6,464.7-694.3,420.3
		c-273.9-35.9-494.3-248.2-542.7-519.2C12.2,735.6,9.2,703.9,5.1,672.4z M252.6,1021.5c38.6,1.5,68.3,5.7,96.2-26.6
		c72.5-84.1,150-163.9,225.3-245.6c5.4-5.9,9.4-13.1,15.3-21.4c8.9,11.3,14.1,17.5,18.9,23.9c63.4,84.8,127,169.4,189.9,254.6
		c8.9,12.1,18.3,16.8,33.3,16.6c64.1-0.8,128.2-0.3,192.4-0.4c6.3,0,12.5-0.9,22.8-1.7c-109.1-146-216-288.8-323.4-432.5
		c95.7-103.4,189.9-205.2,287.9-311.2c-15.9,0-25,1.1-33.6-0.2c-26.3-4.1-43.8,7.1-61.2,26.5c-61.2,68.3-124.2,135-186.5,202.3
		c-12.1,13-24.2,26.1-37.6,40.5c-6.2-8-11.2-14.4-16-20.9c-58.1-77.6-116.3-155.1-173.9-233c-7.8-10.5-15.7-15.7-29.3-15.6
		c-66.4,0.7-132.7,0.3-199.1,0.4c-5.3,0-10.7,1.4-18.6,2.4c103.1,137.8,204.2,273,305.6,408.7C458,799.5,357,908.7,252.6,1021.5z"/>
	<path class="st0" d="M942.2,971.8c-33.4,0-64.5,1.2-95.5-0.8c-8.1-0.5-17.4-9.9-23.1-17.5C698.2,786.5,573.3,619.2,448.2,452
		c-29.8-39.8-59.5-79.6-92.4-123.7c37.5,0,69.9-0.4,102.3,0.4c4.7,0.1,10.4,5.2,13.7,9.5c156,208.3,311.9,416.8,467.7,625.3
		C940.2,964.8,940.4,966.4,942.2,971.8z"/>
</g>
</svg>
