<?xml version="1.0" encoding="UTF-8"?>
<svg id="Layer_1" xmlns="http://www.w3.org/2000/svg" version="1.1" viewBox="0 0 2160 250.11">
  <!-- Generator: Adobe Illustrator 30.1.0, SVG Export Plug-In . SVG Version: 2.1.1 Build 136)  -->
  <defs>
    <style>
      .st0 {
        fill: #c19962;
      }
    </style>
  </defs>
  <path class="st0" d="M1064.36,115.54l.36,86.18,11.68,2.67.03,14.97-76.27.05-.16-15.03,12.2-3.37.23-81.17c0-3.18-.95-6.9-1.66-9.84-1.43-5.92-6.76-9.11-12.95-8.67-6.54.47-12.65,3.43-17.72,7.64l.32,92.84,11.72,2.54.04,15.01-84.31.02-.19-14.94,12.22-3.38v-95.82l-12.04-3.11.1-10.39,64-20c1.63-.51,5.67,2.68,5.83,4.45l1.65,17.82c16.31-17.01,28.81-25.14,52.87-21.75,14.27,2.01,25.57,10.43,30.75,24.61,16.94-20.23,29.95-28.23,56.38-24.39,27.86,4.05,33.11,29.1,33.19,52.92l.24,76,12.58,3.1-.27,14.86h-80.77v-16.65l12.04-3.2.63-66.69c.11-12.21,1.32-31.65-12.68-31.93-7.62-.15-14.63,2.68-20.47,7.29.14,2.34.4,4.48.42,7.36Z"/>
  <path class="st0" d="M508.46,167.19l-55.7-.13-10.21,31.63,19.9,3.57-.06,17.1-60.13-.04.08-17.56,23.13-3.23,58.83-171.78,35.44.07,59.17,173.8,15.97,2.2.09,16.55-96.4-.04.13-16.28,20.23-2.87-10.46-32.98ZM502.68,146.72l-21.41-68.27-22.07,68.67,43.48-.4Z"/>
  <path class="st0" d="M895.83,145.12c0,43.22-35.03,78.25-78.25,78.25s-78.25-35.03-78.25-78.25,35.03-78.25,78.25-78.25,78.25,35.03,78.25,78.25ZM834.99,180.03c2.73-22.87,2.77-45.64-.08-68.48-1.29-10.32-5.27-25.73-17.32-25.42-13.73.35-16.5,24.33-17.23,35.24-1.11,16.69-1.09,33.11.02,49.81.74,11.09,3.58,34.51,17.26,35,12.16.44,16.14-15.99,17.35-26.16Z"/>
  <path class="st0" d="M1193.04,218.83c-13.08-5.31-19.03-17.49-20.05-30.65-1.17-15.11,4.47-28.43,17.28-36.78,19.06-12.42,38.33-16.08,60.65-22.16-.18-11.17,2.42-34.82-8.81-40.75-5.5-2.91-12.27-2.95-17.79-2.08.14,9.41.32,17.51-2.19,25.44-3.61,11.42-13.14,18.01-25.17,16.77-8.89-.91-18.14-6.94-18.76-16.66-.69-10.8,5.4-20.73,13.73-27.17,19.96-15.42,56.41-17.43,79.74-12.64,25.9,5.32,33.46,27.69,33.47,51.5l.02,70.25c0,1.26.72,3.1,1.36,3.83.77.87,4.05,1.59,5.16,1.06,2.28-1.08,4.21-3.28,6.4-5.94l8.41,4.41c-3.32,9.34-9.2,17.64-18.61,21.48-17.54,7.16-47.12,5.79-54.84-16.85-5.92,5.66-10.81,11.27-17.66,14.91-12.93,6.87-28.44,7.66-42.32,2.02ZM1242.93,196.4c3.63-.95,7.07-3.2,10.03-5.48l-.07-47.7c-2.67.9-4.51,1.53-6.85,2.46-17.5,6.94-25.77,26.82-17.38,43.85,2.51,5.1,8.7,8.32,14.27,6.86Z"/>
  <path class="st0" d="M676.03,199.12l23.17,5.17-.08,15.06h-92.21v-16.64l12.04-3.38-.18-94.15-15.87-3.02.11-10.39,64.58-20.09c1.74.49,4.47,2.18,5.85,3.54l2.25,32.01c4.62-10.8,9.62-20.87,18.96-28.19,9.79-7.67,22.36-10.07,33.54-4.3,7.8,4.02,12.02,12.08,13.24,20.1,1.27,8.4-1.97,17.54-8.72,23.13-8.73,7.24-21.81,5.82-29.88-1.86-3.84-3.65-6.36-7.13-10.18-11.61-6.89,10.37-15.15,20.77-16.14,33.35-1.61,20.32-.04,40.02-.46,61.27Z"/>
  <path class="st0" d="M1614.75,177.29l-17.6-29.13-23.16.64.09,61.07c0,4.72,3.17,8.29,7.23,7.93.52-.05,1.71-.07,1.81.24.16.47.59,1.73.45,1.32l-35.97-.24c2.86-1.26,5.66-1.91,7.6-2.93,1.61-.85,2.73-4.88,2.73-7.42l.02-126.51c0-3.1-1.54-7.5-3.27-8.8l-6.65-2.57,54.24.11c10.84.02,22.3,3.67,28.71,13.49,7.74,11.84,6.35,27.89-.51,39.86-4.5,7.84-10.43,13.15-18.29,18.35,10.61,18.49,21.49,36.29,33.83,53.38,12.69,17.58,24.96,24.93,44.91,13.1-5.29,9.18-15.85,10.59-24.65,11.85-12.21,1.75-23.25-3.28-30.91-13.52-7.28-9.75-14.07-19.34-20.64-30.21ZM1624.88,115.26c.99-12.51-3.56-23.71-11.51-32.72-11.13-9.52-24.99-8.62-39.38-8.27l.02,68.47c8.45.13,16.32.26,24.22-.59,14.65-1.58,25.45-11.7,26.65-26.89Z"/>
  <path class="st0" d="M1975.27,143.1l.03,47.3c0,8.41,1.49,18.36,11.97,18.64,15.47.42,30.74.41,46.19,0,13.49-.35,10.23-13.99,14.03-14.26v24.58s-103.26-.09-103.26-.09c2.93-1.12,5.47-2.02,7.9-2.92,1.84-.68,3.06-4.5,3.06-7.23l-.06-128.75c0-6.23-3.82-7.49-10.19-9.49l94.52-.04-.18,19.47c-4.65-4.31-1.81-15.42-12.25-15.42h-51.78s.01,64.2.01,64.2l46.98.04c4.01,0,6.09-1.61,9.14-5.07.19,4.88.17,9.57-.24,13.74-2.84-2.68-4.48-4.69-6.97-4.69h-48.93Z"/>
  <path class="st0" d="M1929.11,197.06l2.02-14.91.56,37.2-99.69-.05c2.74-1.33,5.88-1.87,8.01-3.04,1.67-.91,2.84-4.89,2.84-7.6V77.56c0-2.75-1.41-7.28-3.28-7.92l-8.1-2.77,36.36,4.01h1.91c4.47-.81-6.05,1.06-7.78,1.98-1.55.83-2.94,4.09-3.06,6.5v115.24c.38,10.42,8.62,17.3,18.15,18.22,11.64,1.12,23.14,1.15,34.72.22,8.96-.72,15.61-7.06,17.34-15.98Z"/>
  <path class="st0" d="M1744.84,211.87c25.69,8.24,60.66,2.86,82.12-16.31l-9.85,16.49-26.63,5.54c-23.71,4.93-65.34,2.82-85.92-13.46-17.85-14.13-27.06-35.54-26.6-58.29.7-34.42,22.53-63.86,55.39-73.69,24.33-7.28,49.37-4.99,72.42,5.64l5.06,15.95c-16.42-15.97-36.72-23.56-59.54-21.35-15.17,1.47-28.96,6.58-40.07,16.95-23.08,21.56-22.74,48.04-12.42,76.07,7.9,21.45,23.95,39.38,46.04,46.46Z"/>
  <path class="st0" d="M1359.14,176.8c20.44,37.73,59.44,45.95,98.73,33.15,9.41-3.07,15.91-8.02,24.22-14.44l-9.84,16.52c-11.28,2.41-22.28,5.25-33.99,6.66-23.64,2.84-58.48.9-77.96-14.14-17.97-13.88-27.35-35.07-27.16-57.75.29-34.49,21.86-64.3,54.73-74.45,24.47-7.56,49.94-5.28,73.07,5.47l5.1,15.95c-16.47-16.12-36.62-23.44-59.54-21.43-37.8,3.33-64.9,34-58.39,71.42,2.03,11.64,5.44,22.68,11.05,33.03Z"/>
  <path class="st0" d="M303.83,215.34h-26.39c3.32.71,4.43-4.38,4.43-4.38l.06-43.77-56.24-.05-.03,44.15c0,1.53.64,4.92,1.82,5.51l5.14,2.56-25.98.03c4.28-1.71,7.01-3.31,7.01-8.27l-.04-88.46c0-4.77-2.43-6.42-6.92-8.02,8.81-.38,17.21-.4,26.01,0l-5.16,2.42c-1.03.48-1.85,3.06-1.85,4.48l.04,41.65,56.14.02v-44.03s-1.03-4.75-4.4-8.16h26.38l-4.93,3.65c-1.25.5-2.08,3.19-.99,5.15v90.54c-1.07,1.49-.41,4.21.6,4.67l5.32.31Z"/>
  <path class="st0" d="M1528.32,219.35l-35.15.19-1.78-.07c-5.49-.2,6.3-1.53,7.86-3.05,1.24-1.21,2.51-4.74,2.51-7.17l.11-120.17c0-4.82-.35-9.46-1.79-13.81-1.01-3.03-5.89-3.06-8.69-4.39h36.68s-7.86,2.95-7.86,2.95c-1.19.44-2.39,3.85-2.39,5.53v129.7c0,2.59.79,6.37,2.3,7.18,2.1,1.12,5.29,1.99,8.2,3.12Z"/>
  <path class="st0" d="M372.13,167.19l-38.09-.02v37.73s4.71,9.63,10.11,10.45h31.85c7-.79,8.74-5.33,10.94-12.11.42,5.01.43,9.34.23,16.12h-71.9l5.38-4.33c1.2-.58,1.35-5.1,1.35-5.1v-89.54s-.16-4.82-1.35-5.37l-5.34-4h66.11c.27,6.52.3,10.37-.28,15.91l-3.63-8.69c-.55-1.32-3.75-2.68-5.24-3.21h-38.22v48.15h35.41c1.84-.11,3.8-1.42,4.71-3.01v8.97l-2.03-1.95Z"/>
  <path class="st0" d="M161.49,208.77c1.35,2.42,1.91,5.79,3.28,6.3l6.4,2.37c-9.44.3-18.75.31-28.2-.02l5.81-2.71c1.21-.56.67-5.39.67-5.39v-94.3h-30.43l-1.68,6.87-4.84-12.04c1.98,1.04,6.29,1.17,6.29,1.17h75.25s4.32.05,6.78-1.14l-4.89,11.74-1.88-6.59h-32.57v93.75Z"/>
</svg>