<?xml version="1.0" encoding="UTF-8"?>
<svg id="Layer_1" xmlns="http://www.w3.org/2000/svg" version="1.1" viewBox="0 0 1296 1296">
  <!-- Generator: Adobe Illustrator 30.1.0, SVG Export Plug-In . SVG Version: 2.1.1 Build 136)  -->
  <defs>
    <style>
      .st0 {
        fill: #fff;
      }
    </style>
  </defs>
  <path class="st0" d="M505.32,518.19c-5.66,1.83-11.42,3.4-17.02,5.55-10.16,3.88-20.69,4.98-31.37,3.93-3.3-.31-7.02-2.1-9.48-4.3-8.8-7.86-15.5-17.49-19.33-28.7-3.3-9.74-2.57-18.91,6.49-26.08,1.78-1.41,2.3-5.24,2.3-7.96,0-4.3,1.31-7.18,4.4-10.37,4.77-5.03,8.75-10.95,12.2-16.97,5.13-8.9,12.47-13.72,22.47-15.35,18.18-2.99,34.94-.68,50.23,10.69,28.34,21.06,51.64,46.46,67.41,78.15,4.19,8.43,6.02,18.18,8.12,27.45.84,3.61-.63,7.75-1.47,11.63-2.88-17.08-11.94-31.64-18.07-47.3-5.71-14.51-14.67-27.18-25.77-38.18-6.39-6.34-13.83-10.79-24.25-11.84,0,4.09.05,7.8,0,11.47-.1,6.6-.05,13.25-.37,19.85-.26,5.03-2.04,9.32-6.7,12.05-4.45,2.62-5.87,6.76-5.55,11.89,12.05,2.88,17.23-5.66,22.73-13.2,6.29-8.54,3.09-18.02,1.78-27.29,6.02.94,9.17,4.03,9.43,10.21.16,4.4-.73,8.8-.68,13.2.05,3.82.79,7.59,1.31,11.94,6.7-2.51,4.61-7.07,4.87-10.69.31-4.4.16-4.4,5.19-4.24v30.22c4.09,1.68,5.81.42,6.44-3.14.47-2.72,1.26-5.39,1.94-8.07.68-.16,1.36-.37,1.99-.52.94,2.3,2.62,4.61,2.78,6.97.37,6.76.16,13.57.16,21.16,3.61-.47,6.65-.84,10.58-1.36,0,4.45.37,8.59-.16,12.62-.21,1.47-2.2,3.09-3.77,3.98-12.1,6.7-24.83,11.1-39.28,9.01,6.97,7.91,13.88,15.19,25.09,15.4,1.1,0,2.36-1,3.3-1.78.58-.47.89-1.36,1.05-2.15,2.83-12.57,11.42-16.76,23.73-15.82.16.63.84,1.83.68,2.88-1.41,9.11,3.4,12.78,11.58,14.35,3.35.63,6.39,2.72,10.42,4.56,4.82-4.61,8.22-10.69,7.02-19.9-2.62-19.96-9.27-38.29-19.8-55.1-10-15.98-21.06-31.32-31.74-46.88-1.1-1.62-2.88-2.72-4.35-4.09-5.55-5.19-11.42-10.11-16.6-15.66-11.26-12.1-12.78-26.61-6.18-40.85,7.12-15.35,19.01-25.56,37.45-25.82,13.04-.21,25.67-.21,36.51,8.9,1.68,1.41,6.18.73,8.75-.42,6.02-2.67,11.63-6.34,17.55-9.27,1.83-.89,4.14-.84,6.23-1.26.16.52.31,1,.47,1.52-1.2.89-2.36,1.94-3.67,2.62-11.26,5.87-15.5,12.73-13.46,25.25,1.52,9.43,4.77,18.59,7.23,27.87,1.36,5.08,2.67,10.16,4.03,15.24-.73.31-1.52.63-2.25.94-4.19-7.18-8.43-14.35-12.94-22.05-2.99,1.99-5.6,3.4-7.86,5.34-5.29,4.45-5.97,9.85-1.78,15.4,2.93,3.82,6.65,7.07,9.38,11,2.72,3.98,4.66,8.49,7.44,13.62-20.9,2.15-38.6-2.62-55.78-10.63-2.04-.94-4.56-.73-7.23.05,5.76,6.08,9.17,13.78,19.01,14.88,8.8.94,17.34,4.66,25.93,7.28,7.18,2.2,14.3,4.82,20.95-1.41.63-.58,2.25-.58,3.25-.26,25.14,6.91,60.29-13.62,66.57-38.97.05-.16-.16-.31-.79-1.41-3.56,3.35-7.07,6.44-10.27,9.79-13.15,13.98-23.52,18.23-44.68,17.28,5.34-2.1,9.01-3.82,12.89-4.92,3.56-1.05,4.87-3.46,3.35-6.29-2.15-4.09-4.82-8.01-7.96-11.42-2.83-3.14-6.55-5.5-11-9.11,14.14-3.56,25.61.26,37.03,4.45,1.62-10.89-3.51-18.49-13.88-20.38-7.28-1.31-14.77-1.36-23.62-2.1,7.65-6.29,15.35-10.37,24.3-11.37,8.75-1,17.55-1,26.56-1.41.89-5.55-1.94-8.07-7.02-7.7-8.96.58-17.97,1.47-26.87,2.57-6.34.79-12.57,2.15-19.17,2.46,4.82-8.38,12.78-12.26,21.37-14.4,8.49-2.1,17.23-3.09,27.08-4.77-14.35-10.74-28.6-6.29-42.9-2.3,1.52-8.12,5.03-11.79,11.58-13.41,20.85-5.19,38.5,1.57,54,14.98,12.36,10.63,14.88,22.63,8.07,37.35-4.4,9.43-9.74,18.44-15.19,27.34-14.93,24.41-29.07,49.24-35.46,77.41-3.35,14.82-4.4,30.12-6.65,45.15-.68,4.66,1.89,6.7,5.24,9.06,3.4,2.36,4.87-.73,7.28-1.52,4.24-1.41,8.8-1.99,13.93-3.04-.31-1.73-.1-4.09-1.1-5.81-5.6-9.85-4.14-20.27-2.25-30.54,6.39-35.25,20.58-67.1,43.63-94.59,6.23-7.44,13.88-13.98,21.63-19.9,17.97-13.78,52.38-15.82,70.87,7.23,5.45,6.81,12.68,12.26,18.86,18.54,1.26,1.26,1.68,3.35,2.25,5.13,1.89,5.6,2.78,11.79,5.71,16.81,9.22,15.98,5.97,37.03-9.22,47.19-11.79,7.91-24.57,14.25-37.03,21.06-7.96,4.3-16.55,4.66-25.19,2.62-4.19-1-6.6-.05-8.43,4.14-4.92,11.21-10.32,22.16-16.03,34.26,7.54.84,14.4,1.57,21.27,2.3,6.91.73,11.47,8.49,8.64,14.77-.31.73-.79,1.41-1,2.2-3.14,12.15-10.32,20.27-22.31,24.67-3.4,1.26-6.49,4.92-8.38,8.22-4.87,8.54-9.69,17.23-13.04,26.4-1.47,3.93.68,9.22,1.2,13.98,8.01.42,13.78-2.88,18.91-7.02,8.01-6.39,15.61-13.25,23.47-19.8,15.61-13.15,33.42-20.48,54.05-20.32,9.17.05,15.19,5.71,15.19,14.88.1,23.52.1,46.98,0,70.5-.05,9.17-5.92,14.77-15.19,14.93-1.99.05-4.03.05-6.02,0-12.26-.21-15.87-3.35-18.02-15.5-.16-.79-.42-1.52-1-3.4-4.19,1.47-8.22,3.09-12.31,4.24-5.29,1.52-10.63,3.56-16.08,3.88-10.63.63-21.27-.1-31.9.26-12.05.37-21.68-4.3-28.65-13.78-5.08-6.91-9.01-14.67-13.36-22.1-1.57-2.67-2.88-5.55-4.92-9.48-4.77,9.32-8.9,17.44-13.72,26.82,4.82-1.36,8.33-2.3,13.41-3.72-3.09,4.45-5.03,7.86-7.59,10.79-4.98,5.66-6.49,11.89-5.6,19.38.94,7.8-1.41,9.64-10.63,9.69v-6.97c.05-7.59.58-15.03-5.13-21.63-2.3-2.67-2.3-7.44-3.77-12.99,4.14,2.15,6.65,3.46,9.22,4.77.37-.21.79-.47,1.15-.68-3.98-8.49-7.91-16.92-12.47-26.71-5.24,8.96-9.9,16.92-15.35,26.29,4.4-1,7.39-1.68,10.79-2.46.05,6.65-1.62,12.26-7.33,15.14-6.6,3.3-8.75,8.22-8.17,15.14.31,3.56.05,7.12.05,11.05-2.57.16-4.5.26-7.86.42,2.78-15.61-2.78-28.49-13.57-39.6.47-.42.89-.84,1.36-1.26,3.14.58,6.34,1.15,11.21,1.99-6.6-9.43-12.31-17.65-18.65-26.77-4.98,9.32-9.48,17.76-14.72,27.6,5.03-1.41,8.64-2.41,12.26-3.46.47.31.94.63,1.36.94-2.1,4.09-3.4,9.01-6.44,12.15-6.02,6.13-8.17,12.99-7.33,21.27.31,2.93.05,5.92.05,9.22h-7.7c0-4.09-.26-7.86.05-11.58.58-7.02-1.89-11.94-8.54-14.88-6.18-2.72-9.22-7.91-9.64-15.35,3.88.84,7.28,1.57,12.15,2.62-5.24-8.85-9.85-16.6-15.08-25.46-1.94,5.76-3.35,10.27-4.92,14.72-7.23,20.48-21.58,31.43-43.32,33.57-13.2,1.31-25.51-.21-37.45-5.97-7.75-3.72-15.66-7.28-23.67-10.48-4.98-1.99-10.27-3.09-16.5-4.92.47,2.67.58,4.14,1,5.55,2.25,7.02-.05,12.73-5.24,17.34-5.39,4.82-12.1,5.5-18.7,3.35-2.2-.73-4.3-3.77-5.08-6.18-1.15-3.77-1.78-7.91-1.52-11.84,1.26-17.49-2.04-34.36-6.44-51.12-3.3-12.62,1.78-21.27,14.82-23.94,14.51-2.99,29.12-.94,42.64,4.4,11.58,4.61,22.37,11.52,33,18.18,6.44,4.03,11.63,9.9,17.91,14.19,4.77,3.25,10.32,5.39,15.5,8.01.52-.58,1-1.15,1.52-1.73-.89-2.93-1.26-6.18-2.78-8.75-6.81-11.58-13.57-23.15-21.06-34.26-6.02-9.01-13.41-17.08-19.48-26.03-7.18-10.58-4.24-16.29,8.33-17.7,3.2-.37,6.39-.89,9.59-1.05,4.3-.26,10.79-2.1,12.57,0,5.24,6.08,8.8,13.72,12.62,20.95.52,1.05-.89,3.2-1.62,4.77-1,2.15-2.15,4.19-3.51,6.81,9.06,3.88,17.6,4.5,26.14.89,2.57-1.1,5.34-3.46,6.44-5.92,1.36-3.04,2.41-7.39,1.2-10.16-.94-2.1-5.55-2.57-9.22-4.03-.58,3.82-.94,6.34-1.36,8.85-11.05-2.78-12.73-4.19-13.62-16.03-.47-6.13-2.78-8.64-8.75-9.64-3.3-.58-7.02-2.93-9.01-5.66-11.94-15.5-23.2-31.37-34.78-47.4ZM795.5,525.16c-24.83-21.06-45.31-43.32-28.28-78.72.73,2.67.16,5.55.1,8.43-.16,8.54-1.94,17.55.16,25.51,3.56,13.83,12.36,25.14,23.36,34.31,8.59,7.18,16.71,7.44,26.66,1.2-2.41-5.87-4.66-11.89-7.39-17.65-2.41-5.03-.16-7.12,4.3-6.86,3.93.21,7.75,1.89,12.1,3.04-.52-3.56-1.41-7.28-1.41-11,0-2.51.68-6.6,2.15-7.23,2.25-.89,5.71.16,8.28,1.2,2.36,1,4.24,3.09,7.39,5.5v-15.5c4.61-.37,8.69-.68,12.99-1.05-3.4-7.8-3.35-7.8-3.3-18.65,0-1-.68-2.41-1.47-2.88-2.67-1.62-5.5-2.88-8.54-4.4-1.68,3.51-2.78,6.34-4.35,8.85-2.46,4.03-4.4,9.06-8.01,11.63-13.09,9.38-23.78,20.17-28.44,36.14-.89,3.09-3.51,5.71-5.34,8.49-.58-.26-1.2-.52-1.78-.73v-11c-4.66-.26-8.54-.47-12.41-.68.58-9.9,1.05-10.42,9.53-12.41,1.15-.26,2.62-.42,3.35-1.2,1.68-1.73,2.93-3.77,4.4-5.71-2.15-1.36-4.24-3.77-6.44-3.93-4.24-.26-8.59.79-13.36,1.31,4.92-16.08,18.28-14.56,30.33-14.72,1.99-10.95-.1-13.67-10.21-13.25-5.45.21-10.84,1.2-17.28,1.99,9.53-12.52,22.78-11.94,35.56-12.99-2.78-11.31-12.31-6.39-18.86-8.28,4.24-7.12,5.13-7.33,23.83-5.6-3.14-5.66-7.49-9.43-13.72-9.59-18.59-.52-34.73,5.08-44.73,21.79-4.45,7.49-7.07,16.08-10.42,24.2-.79,1.94-1.31,3.98-2.04,6.39-3.61-2.57-6.7-4.71-10.42-7.33-.94,2.15-2.46,3.98-2.36,5.6.63,6.91,1.1,13.98,2.93,20.64.89,3.2,4.61,5.76,7.39,8.28,4.09,3.72,8.43,7.18,13.78,11.68-7.07,1.94-12.05,3.35-16.97,4.71.05.68.05,1.36.1,2.04,1.73.63,3.46,1.41,5.24,1.78,5.08,1.1,10.32,1.78,15.29,3.14,1.62.42,2.72,2.57,4.09,3.98-.42.58-.84,1.1-1.26,1.68-9.59,0-19.22-.05-28.81.05-4.66.05-4.66.21-3.4,5.81h29.8c-.63,4.92-3.2,6.91-7.33,7.18-3.2.16-6.44-.1-9.59.42-1.26.21-2.25,1.94-3.35,2.99,1.1.84,2.1,2.25,3.3,2.41,2.99.37,6.02-.05,9.01.26,1.2.16,2.25,1.41,3.4,2.2-1.05.89-2.04,2.41-3.2,2.62-6.76,1.05-13.51,2.04-20.32,2.51-13.72,1-13.88.73-17.55-12.73-1.62-5.97-4.3-11.1-11.84-12.99,0,6.7.63,12.94-.21,18.96-.84,5.81-3.14,11.47-5.39,18.96,6.55-3.61,11.37-6.29,16.66-9.22,3.51,4.77,6.6,9.17,9.9,13.41,8.33,10.74,24.46,10.69,31.16-.84,6.02-10.32,10.69-21.53,15.5-32.53,1.41-3.25,2.78-4.4,6.13-3.61,3.77.79,7.7,1.31,11.63,1.99ZM539.68,686.59c1.99-4.92,3.93-9.01,5.19-13.36.47-1.57-.21-4.4-1.41-5.39-10.16-8.12-20.9-15.56-30.9-23.94-16.03-13.36-33.94-20.38-55-17.7-1.68.21-3.25,1.36-4.82,2.1,1,1.57,1.99,3.09,3.14,4.87-2.62,2.36-5.45,4.98-8.85,8.07,6.29,2.3,11.52,4.19,18.23,6.6-5.13,1.57-9.64,3.3-6.18,7.54,2.15,2.67,2.04,4.4,1.78,7.12-.16,1.73,1.15,3.56,1.94,5.6-3.09.68-6.34,1.1-9.27,2.25-1.41.58-2.3,2.57-3.46,3.88,1.31.94,2.46,2.25,3.88,2.67,10.11,3.2,20.48,5.6,30.33,9.38,9.74,3.72,18.96,8.69,28.39,13.15,11.79,5.6,23.88,4.09,35.98,1.31,1-.21,2.41-1.94,2.3-2.78-.16-1.2-1.36-2.51-2.46-3.3-.94-.68-2.36-.68-4.14-1.15,2.36-1.94,4.09-3.35,6.29-5.19-3.77-.52-6.7-1.05-10.95-1.73ZM827.71,631.27c5.55-3.46,9.48-5.92,14.14-8.8-12.52-2.51-23.1-2.46-32.53,5.92-10.89,9.74-22.16,19.07-33.52,28.28-5.92,4.82-8.54,10.95-8.96,18.18-.1,2.2,1,4.5,1.47,6.44-.26,3.61-.52,7.07-.73,10.63-2.2.42-4.24.79-6.29,1.15-.16.52-.37,1.05-.52,1.57,2.04,1.05,3.98,2.88,6.08,3.09,15.29,1.31,29.91-.79,43.32-9.17,7.96-4.98,16.5-9.06,24.57-13.83,1.47-.89,2.04-3.25,3.77-6.18-7.18.73-12.2,1.31-17.28,1.83-.31-.52-.68-1.05-1-1.52,2.72-1.83,5.5-3.67,7.59-5.13-2.78-2.67-4.56-4.45-6.34-6.18,2.1-1.57,4.03-3.46,6.34-4.61,3.56-1.83,7.44-2.99,11-4.82,1.73-.89,2.99-2.78,4.4-4.19-.31-.63-.63-1.26-1-1.94h-12.47c-.05-.42-.05-.79-.1-1.2,3.98-2.3,7.96-4.56,13.3-7.59-5.71-.79-9.69-1.26-15.24-1.94ZM768.78,601.73c-4.09,1.73-6.86,2.2-8.75,3.77-11.1,9.32-23.73,7.8-36.66,5.87-11.89-1.78-23.83-3.04-35.83-3.88-11.16-.79-22.05-2.41-31.74-8.22-3.98-2.41-7.02-2.04-10.42.42-2.1,1.52-4.61,2.62-6.44,4.45-5.71,5.71-12.41,6.39-19.9,5.13-14.67-2.46-29.17-2.51-43.11,3.72-1.26.58-2.67.79-4.03,1.15-8.49,2.2-16.55,1.94-24.41-2.78-3.4-2.04-7.59-2.72-11.79-4.09,0,8.8,3.72,14.61,11.47,16.66,5.71,1.52,11.89,2.2,17.81,1.89,10.42-.52,20.74-2.57,31.11-3.09,23.41-1.2,46.98-3.35,70.34-2.3,25.4,1.15,50.65,5.71,76,8.33,3.61.37,8.17-.89,11.16-2.99,7.65-5.45,11.68-13.57,15.19-24.04ZM466.77,484.41c.42.37.89.73,1.31,1.05-.68,4.09-1.78,8.17-2.04,12.31-.31,5.08,2.04,6.97,6.6,5.29,3.46-1.31,5.81-.79,8.75,1.31,1.68,1.15,4.92,1.52,6.81.68,7.18-3.2,13.78-8.85,22.21-3.35,2.67-12.57,1.15-14.61-13.25-16.97,1.47-1.94,2.3-3.88,3.72-4.61,1.89-1,4.24-1.2,6.44-1.47,4.82-.58,4.61-3.25,3.14-6.65h-18.96c5.6-6.13,10.06-11,14.04-15.29-9.01-3.09-16.71,3.56-25.98,6.49,1-4.92,1.99-9.85,4.87-13.15,3.04-3.51,7.8-5.5,12.83-8.8-13.57-.52-18.33,3.25-26.4,19.8-6.76-2.25-8.59-5.34-6.02-11.58,1.73-4.24,4.4-8.07,6.65-12.1,1.68-2.99,3.35-5.92,5.45-9.59-10.06,1.73-14.98,5.6-20.11,13.72-3.04,4.77-6.81,9.06-11.1,14.61.89,2.57,2.36,6.86,3.61,10.53-6.02,5.66-11.68,10.89-18.44,17.23,9.27,4.03,14.09-4.71,21.89-4.56-6.34,6.97-6.08,14.46-2.72,24.62,6.18-7.23,11.42-13.41,16.71-19.54ZM621.18,403.95c.31.68.63,1.41.94,2.1-2.57,1.78-5.13,3.56-7.7,5.29-7.91,5.24-10.21,13.04-5.92,21.27.63,1.2,2.51,2.3,3.93,2.46.84.05,2.04-1.83,2.67-3.04,2.46-4.71,3.56-11.05,7.39-13.98,10.11-7.86,9.06-17.49,6.6-27.71-2.51-10.48-9.38-16.81-20.06-18.02-6.91-.79-14.04-1.05-21-.47-11.73,1-20.74,6.97-26.71,17.23-1,1.68-1.31,3.72-1.99,5.6.47.37.94.68,1.41,1.05,3.93-2.67,7.65-5.71,11.79-7.96,5.03-2.78,10.16-6.18,15.61-7.02,8.43-1.31,17.18-.84,25.77-.73,1.68.05,3.3,2.04,4.98,3.09-3.4,1.68-6.02,1.68-8.54,2.2-8.8,1.78-17.86,2.88-26.19,5.92-9.01,3.3-11.1,9.74-8.28,21,4.82-3.67,9.38-6.76,13.41-10.37,5.55-5.03,11.47-8.96,19.17-8.64,2.83.1,6.97-2.51,8.49,2.57-2.78.73-5.5,2.04-8.28,2.2-10.63.42-16.24,6.97-14.72,18.23,9.27-4.19,18.23-8.22,27.24-12.26ZM736.89,658.62c.16-.68.31-1.36.47-2.1-1.99-1.1-3.93-2.51-6.08-3.2-7.65-2.25-15.35-5.55-23.15-6.13-23.57-1.78-47.19-2.99-70.82-3.4-12.31-.21-24.67,1.62-37.03,2.78-4.56.42-9.06,1.47-13.57,2.2.05.73.1,1.47.16,2.2,50.34-3.4,100.36-2.25,150.01,7.65ZM699.8,597.28c1.47,1.2,2.62,2.3,3.93,3.2,6.81,4.61,20.06,2.67,22.73-3.77,1.2-2.88.73-6.55.52-9.85-.47-5.97,4.03-9.38,9.53-6.97,2.36,1,4.61,2.2,8.22,3.98-.73-3.61-.58-7.75-1.78-8.17-5.24-1.89-10.84-2.67-16.66-3.93-.05-.68-.1-1.89-.31-3.09-.16-1.1-.42-2.25-.63-3.25q-6.86-.52-8.38,5.5c-1.62,6.55-3.25,13.15-4.98,20.22-6.7-3.3-9.79.31-12.2,6.13ZM586.04,601.79h18.7c-1.94-6.13-3.67-11.52-5.66-17.7,4.19.42,7.33.73,10.48,1,4.03.31,5.45-1.78,5.03-5.5-.58-5.55-4.45-6.65-9.01-6.55-3.88.05-7.28.16-9.79-3.98-1.1-1.89-4.45-2.46-6.76-3.61-.79,2.62-2.41,5.34-2.1,7.86.79,5.87,2.46,11.63,3.77,17.34-6.18,1.94-6.49,2.83-4.66,11.16ZM765.54,568.05c-4.61,1.41-7.54,2.51-10.58,3.2-3.93.89-5.45,2.78-5.34,7.07.16,9.53-4.3,14.82-13.88,17.55q-8.38,2.36-6.49,11.37c9.43,1.78,18.23.31,25.77-5.92,1.26-1.05,2.2-3.93,1.68-5.29-2.83-7.59-1.05-14.09,3.61-20.22,1.52-2.04,2.83-4.24,5.24-7.75ZM633.75,557.84c6.55,0,13.25.16,20.01-.05,4.82-.16,9.06.31,11.79,5.08.58,1,2.93,2.1,3.72,1.73,1.52-.79,3.4-2.51,3.61-4.03.52-3.72.31-7.59.05-11.37-.05-1.05-1.26-2.72-2.2-2.93-5.19-1.1-10.42-1.83-15.82-2.72-.47,3.14-.84,5.6-1.26,8.33-1.89,0-3.3.05-4.66,0-1.52-.1-3.09-.26-4.61-.42-.37-2.46-.68-4.56-.94-6.65-10.63.47-11.37,1.41-9.69,13.04ZM646.22,623.21c-3.04.58-6.7.94-10.06,2.15-1.36.47-2.99,2.72-2.93,4.19.05,2.67.42,6.7,2.1,7.75,5.55,3.4,12.31,3.72,17.81.58,3.04-1.73,4.3-6.55,6.39-9.95-2.46-1.31-4.87-2.83-7.44-3.82-1.62-.68-3.51-.58-5.87-.89ZM679.9,470.37c-15.19-2.25-31.32,3.25-30.38,14.61,15.14,2.67,30.54-3.4,30.38-14.61ZM461.38,686.27c-6.44-2.99-16.5-2.41-20.69.73-3.25,2.41-4.5,5.29-3.14,9.43,3.04,9.48,7.12,11.58,17.49,8.64,3.25-6.91-3.25-7.65-6.23-9.79-1.1-10.11,7.44-6.86,12.57-9.01ZM717.77,491.43c.58,9.01-2.25,17.81,4.24,25.19,1,1.15,2.57,3.04,3.46,2.83,1.89-.42,4.4-1.62,5.13-3.2,4.3-9.48-1.62-21.37-12.83-24.83ZM693.73,591.1c-13.3-.79-15.29.37-19.48,10.79,16.66,2.78,29.54-8.28,26.92-23.2h-6.81c-.21,4.19-.42,8.12-.63,12.41ZM691.53,639.66c.47-.05,2.83.31,4.82-.42,2.04-.73,4.82-2.3,5.24-3.98.37-1.62-1.41-4.4-3.04-5.71-5.66-4.5-11.99-3.72-18.23-1.31-.94.37-1.78,2.04-1.89,3.2-.52,6.44,1.99,8.22,13.09,8.22ZM593.84,632.01c2.51,12.1,10.58,13.83,22.73,4.77-3.61-8.96-11.89-10.69-22.73-4.77ZM729.82,478.12c-.79.37-1.62.73-2.41,1.1,1.99,6.34,3.51,12.83,6.18,18.8.79,1.78,4.87,2.04,7.44,3.04,1-2.72,3.35-5.81,2.72-8.12-1.99-7.18-7.02-12.1-13.93-14.82ZM554.61,534.38c.37-.94.79-1.94,1.15-2.88-2.83-1.83-5.5-4.77-8.54-5.24-6.65-1-13.46-.79-20.22-.84-.84,0-2.46,1.73-2.36,2.41.26,1.26,1.41,3.09,2.41,3.25,9.11,1.31,18.33,2.25,27.55,3.3ZM554.14,644.37h20.38c0-8.43-1.05-9.9-7.07-10.32-8.64-.68-11.79,1.68-13.3,10.32ZM567.91,549.77c-1.31-2.93-1.78-5.66-2.78-5.87-8.59-2.04-17.28-3.93-27.08-1.99,7.75,10.79,18.44,6.55,29.86,7.86ZM627.1,604.88c-2.36-7.39-4.45-14.19-6.81-21.68-4.24,5.29-8.12,10.11-12.47,15.5,6.7,2.15,12.57,4.03,19.28,6.18ZM724,636.51c-2.04,11.89,4.82,11.73,12.94,10.48,1.83-.26,4.19-3.09,4.5-5.03.21-1.31-2.51-4.19-4.24-4.56-4.19-.89-8.64-.68-13.2-.89ZM670.47,493c-.52-.84-1.05-1.68-1.52-2.51-5.6,1.47-11.26,2.72-16.71,4.61-1.41.47-3.25,3.25-2.88,4.45.47,1.68,2.51,3.56,4.3,4.14,1.89.63,4.82.68,6.23-.42,3.82-3.04,7.07-6.81,10.58-10.27ZM788.9,589.01c-.63-7.33-2.36-8.54-10.48-8.01-4.92.31-7.91,2.2-6.91,8.01h17.39ZM531.72,583.45c-5.92,1.41-11.52,2.72-17.02,4.03-.16,5.81,2.72,7.59,8.28,6.76,6.76-1.1,8.96-3.77,8.75-10.79ZM641.92,568c.52,6.76,3.61,11.21,7.59,10.37,5.87-1.26,4.3-6.02,4.5-10.37h-12.1ZM620.71,478.33c4.14,7.91,9.79,9.43,19.28,5.39-5.6-4.45-11.26-8.07-19.28-5.39ZM652.35,519.81c9.59-.37,11.21-1.78,11.79-9.69-9.79-1-12.1.79-11.79,9.69ZM841.12,700.41c.73,5.24,4.35,8.59,8.07,7.39,3.3-1.05,7.54-2.04,5.45-7.39h-13.51ZM542.3,517.56c-5.39-7.02-11.37-5.6-19.43-5.03,2.25,2.41,3.35,4.71,4.66,4.87,4.45.47,8.96.16,14.77.16ZM637.89,502.01c-1.1-8.54-2.36-9.64-9.53-8.38-1.2.21-3.04,1.52-3.09,2.41-.05,1.15,1.15,3.04,2.25,3.4,3.09,1.15,6.44,1.68,10.37,2.57ZM664.45,525.94c-8.69-.21-10.42,1.62-9.17,9.53,6.02-.1,9.06-3.09,9.17-9.53ZM654.91,585.71c-.52-.52-1.1-1.05-1.62-1.57h-9.06c-.42.58-.84,1.2-1.26,1.78,2.1,1.94,4.09,5.08,6.39,5.39,1.57.21,3.72-3.61,5.55-5.6ZM680.63,583.03c.52-4.92,2.3-9.85-4.92-11.73-.37,4.82-2.2,9.79,4.92,11.73ZM630.04,511.17c-.42.63-.89,1.26-1.31,1.89,1.78,5.5,5.6,7.44,11,6.55.37-.63.73-1.26,1.15-1.89-3.61-2.2-7.23-4.35-10.84-6.55ZM626.79,625.41c-3.09,2.62-5.29,4.5-8.64,7.33,4.09.52,6.6.89,9.64,1.26-.37-3.14-.63-5.45-1-8.59ZM631.4,575.02c.68,6.81,4.56,6.34,8.12,5.81.68-.1,1.1-2.1,1.62-3.2-3.09-.84-6.18-1.62-9.74-2.62ZM671.73,625.88c-2.62,2.25-4.87,4.24-8.12,7.07,3.77.37,6.34.63,9.38.94-.47-3.04-.79-5.13-1.26-8.01Z"/>
  <path class="st0" d="M470.44,854.51c-4.4-2.88-8.17-5.03-11.63-7.65-10.79-8.07-22.73-7.91-34.36-3.51-13.62,5.13-16.45,20.53-5.5,30.12,6.39,5.55,13.98,10.58,21.89,13.36,21.21,7.33,42.69,13.98,64.37,19.69,34.36,9.06,69.09,16.6,103.39,25.82,24.67,6.6,48.55,7.33,73.49.58,50.34-13.67,101.09-25.77,151.63-38.86,8.85-2.3,17.44-6.02,25.87-9.74,4.5-1.99,8.69-4.98,12.62-8.07,7.07-5.5,9.17-13.2,7.07-21.58-2.04-8.22-8.9-12.47-16.45-13.04-12.73-1-25.56-.26-39.02-.26v46.77h-15.24v-59.82c1.73-.16,3.3-.42,4.82-.42,19.28-.05,38.55-.05,57.83,0,10,.05,25.25,10.37,26.45,18.86,1.73,11.99.79,24.15-8.01,33.42-5.55,5.87-12.05,11.73-19.28,14.93-13.15,5.81-26.87,10.84-40.8,14.19-51.33,12.26-102.87,23.73-154.31,35.51-1.15.26-2.2.73-5.19,1.73,61.75,15.03,121.73,29.59,181.7,44.15-19.8,1.36-39.49,1.15-58.61-3.3-42.79-9.95-85.48-20.48-128.06-31.22-11.84-2.99-23.05-3.3-34.88,0-33.99,9.48-68.14,18.59-102.35,27.39-28.86,7.44-58.4,7.75-88.15,5.76,60.71-13.88,121.41-27.71,182.12-41.59,0-.58-.05-1.15-.05-1.73-14.4-3.25-28.81-6.39-43.16-9.79-43.32-10.32-86.74-20.27-129.85-31.53-13.2-3.46-25.93-9.64-37.97-16.24-12.15-6.7-17.7-18.18-16.18-32.47,1.31-12.26,6.34-22.37,18.23-26.92,14.67-5.66,29.91-6.02,44.73-.47,12.99,4.82,15.45,10.27,12.83,25.93Z"/>
  <path class="st0" d="M513.65,870.01v20.9h-17.65v-65.21c1.68-.16,3.4-.37,5.13-.37,15.03-.05,30.12-.21,45.15.1,4.3.1,8.9,1.05,12.68,2.93,7.18,3.56,12.83,8.43,13.15,17.81.31,9.22-4.61,13.51-13.36,16.08,6.97,8.75,13.41,16.81,20.79,26.08-9.43-.1-18.07,3.14-24.41-5.55-1.15-1.62-2.83-2.83-4.14-4.35-5.39-6.08-11.73-9.32-20.17-8.49-5.34.52-10.79.05-17.18.05ZM514.07,853.99c10.89,0,21.27.37,31.58-.21,3.3-.16,8.28.05,8.22-6.29-.1-5.97-4.87-5.76-7.91-5.92-10.48-.58-21.06-.21-31.9-.21,0,4.24,0,8.17,0,12.62Z"/>
  <path class="st0" d="M780.99,875.51c.16,1.52.26,1.94.21,2.3q-1.68,10.74-12.52,10.74h-63.43v-60.34h73.28v9.74h-57.35v13.72h54.79v12.89h-52.27v10.95c19.01,0,37.97,0,57.3,0Z"/>
  <path class="st0" d="M601.86,888.5v-60.23h73.17v9.79h-57.41v13.57h54.68v12.94h-52.01v10.89h57.88c-.84,4.19-1.2,7.33-2.2,10.32-.37,1.15-2.15,2.62-3.3,2.62-23.41.16-46.88.1-70.82.1Z"/>
  <path class="st0" d="M681.42,991.95c-.1,1.57-.05,2.99-.37,4.4-.79,4.03-2.41,7.49-7.28,7.28-4.71-.21-6.44-3.61-6.81-7.75-.21-2.78-.21-5.66.1-8.38.47-3.93,2.41-6.91,6.86-6.97,4.5-.05,6.29,2.99,7.02,6.86.37,1.52.37,3.14.47,4.56ZM678.17,991.9c-1.52-2.99-2.78-5.34-4.03-7.75-1,2.51-2.83,4.98-2.83,7.49,0,2.78,1.68,5.55,2.62,8.33,1.36-2.57,2.67-5.13,4.24-8.07Z"/>
  <path class="st0" d="M664.5,984.2c-4.56,3.14-10.42-4.61-10.95,4.56.89,0,1.73.05,2.51,0,4.4-.47,6.86,1.73,7.54,5.81.73,4.24-.84,7.7-5.13,8.85-4.03,1.1-7.65-.68-8.43-4.61-.84-4.35-.89-9.11.1-13.36.52-2.1,4.14-4.24,6.6-4.71,1.99-.37,4.45,1.89,7.75,3.46ZM656.59,1001.95c1.57-2.78,3.09-4.19,2.93-5.45-.16-1.62-1.62-3.09-2.51-4.66-1.15,1.26-3.09,2.46-3.25,3.82-.16,1.47,1.31,3.14,2.83,6.29Z"/>
  <path class="st0" d="M645.43,981.58c-3.25,7.7-6.29,14.93-9.38,22.16-.84-.31-1.73-.68-2.57-1,1.89-5.81,3.77-11.68,5.66-17.55-2.62-.47-5.55-1.05-8.49-1.57.05-.68.16-1.31.21-1.99,4.71-.05,9.38-.05,14.56-.05Z"/>
  <path class="st0" d="M619.77,987.55c-2.2.68-3.67,1.15-5.13,1.62-.42-.42-.79-.84-1.2-1.26,2.78-2.67,5.55-5.34,8.33-7.96.58.21,1.2.37,1.78.58,0,7.07.05,14.09-.1,21.16,0,.52-1.31,1.05-1.99,1.57-.58-.89-1.57-1.78-1.62-2.67-.16-3.98-.05-8.01-.05-13.04Z"/>
</svg>