<?xml version="1.0" encoding="UTF-8"?>
<svg id="Layer_1" xmlns="http://www.w3.org/2000/svg" version="1.1" viewBox="0 0 1296 1296">
  <!-- Generator: Adobe Illustrator 30.1.0, SVG Export Plug-In . SVG Version: 2.1.1 Build 136)  -->
  <defs>
    <style>
      .st0 {
        fill: #fff;
      }
    </style>
  </defs>
  <path class="st0" d="M487.21,352.88h37.85c1.65.29,3.3.79,5.03.93,39.86,2.8,77.72,13.29,113.84,30.38,2.15,1.01,5.67,1.08,7.83.07,27.8-13.14,56.74-22.48,87.12-27.29,10.56-1.65,21.12-2.73,31.75-4.02h37.85c1.44.36,2.87.93,4.31,1.01,35.63,2.15,69.67,10.85,102.35,25,43.96,19.03,81.74,46.69,113.27,82.74,37.71,43.24,62.27,93.01,72.9,149.47,2.51,13.22,3.73,26.72,5.53,40.08v39c-.36,1.51-.86,2.94-.93,4.45-2.66,39.14-12.5,76.49-29.66,111.69-36.49,74.77-93.37,128.06-170.66,159.24-43.96,17.74-89.85,24.42-136.97,21.48-40.87-2.59-79.8-13-116.79-30.67-2.01-.93-5.24-1.15-7.25-.22-69.89,32.97-142.43,40.29-217.27,21.48-49.99-12.57-94.16-36.56-132.45-71.11-54.66-49.27-88.49-110.11-101.42-182.44-2.08-11.64-3.09-23.42-4.6-35.12v-37.85c.36-1.87.72-3.73,1.01-5.6,2.94-18.03,4.6-36.49,9.12-54.16,16.45-64.71,50.57-118.73,101.13-162.18,44.6-38.35,96.1-62.42,154.21-72.04,10.92-1.8,21.91-2.87,32.9-4.31ZM813.87,591.55c-20.61,0-40.08-.29-59.62.14-6.39.14-9.05-1.58-11.2-7.76-17.38-50.13-48.63-90-91.51-120.95-2.94-2.08-4.96-1.94-7.54.14-5.1,4.02-10.41,7.76-15.44,11.92-36.06,30.09-61.99,67.23-77.14,111.69-1.22,3.59-2.66,5.03-6.75,4.96-19.32-.29-38.64-.14-57.96-.22-1.44,0-2.8-.29-4.74-.5,17.17-64.36,50.78-117.79,100.56-161.39-84.9-28.73-203.27-9.41-277.32,86.84-71.61,93.3-68.95,226.11,6.9,316.25,77.07,91.65,193.07,105.08,270.35,78.15-64.5-57.24-101.13-128.57-109.46-214.61h149.4v64.5h-68.59c.29,1.44.36,2.15.65,2.8,18.82,46.76,48.84,84.75,89.85,113.99,3.3,2.37,5.32,1.36,7.97-.57,29.02-20.9,53.22-46.4,71.32-77.28,7.11-12.07,12.78-25,19.82-38.86h-69.89v-64.64h148.97c-2.08,28.44-8.04,55.59-17.67,81.95-18.96,52-49.77,96.03-91.65,132.52,78.29,27.8,198.81,12.93,275.38-84.25,74.2-94.16,72.04-229.27-7.04-320.99-80.52-93.37-197.88-101.13-268.2-75.56,49.7,43.74,83.32,97.18,100.56,161.75Z"/>
</svg>