<?xml version="1.0" encoding="UTF-8"?>
<svg id="Layer_1" xmlns="http://www.w3.org/2000/svg" version="1.1" viewBox="0 0 1296 1296">
  <!-- Generator: Adobe Illustrator 30.1.0, SVG Export Plug-In . SVG Version: 2.1.1 Build 136)  -->
  <defs>
    <style>
      .st0 {
        fill: #fff;
      }
    </style>
  </defs>
  <path class="st0" d="M300.1,791.98c-9.14-3.4-19.24-5.88-27.23-10.35-19.34-10.7-25.01-27.08-25.4-43.39-1.25-45.16-.58-90.32-.19-135.48.1-6.1,2.31-12.34,4.52-18.29,9.43-25.17,31.75-36.65,67.05-34.81,30.4,1.63,53.3,17.3,55.7,41.61,2.69,26.87,2.41,53.95,2.89,80.89.38,20.77.67,41.61-.38,62.39-.48,9.29-3.56,18.64-7.02,27.65-6.83,17.72-26.26,24.95-48.2,29.7-7.22.07-14.43.07-21.74.07ZM292.31,670.04s-.1,0,0,0c-.1,2.98-.1,5.96-.1,8.93.1,21.06-.1,42.11.29,63.24.19,8.51,7.79,14.89,17.32,15.95,9.33.99,18.76-3.76,21.93-12.12,1.83-4.75,2.12-9.85,2.12-14.82.19-28.78.19-57.57.1-86.35-.1-15.45-.1-30.84-.87-46.29-.38-8.37-7.12-13.97-18.28-15.24-10.77-1.28-17.61,3.54-21.26,10.35-1.54,2.91-1.25,6.45-1.25,9.64-.1,22.19,0,44.45,0,66.71Z"/>
  <path class="st0" d="M1178.64,791.98c-13.95-4.18-30.11-6.95-37.13-17.87-6.83-10.7-14.91-22.4-15.3-33.75-1.73-46.93-3.08-93.93,0-140.79,2.21-34.24,31.27-57.21,84.56-47.57,23.38,4.18,37.13,17.65,39.73,34.38,3.56,22.54,3.46,45.44,3.94,68.27.58,25.81.77,51.68-.29,77.56-.48,10.78-2.89,21.84-7.31,32.11-7.02,16.16-25.69,23.32-46.66,27.72-7.02-.07-14.24-.07-21.55-.07ZM1168.83,670.75v68.55c0,9.5,8.75,18.15,18.86,18.93,11.45.85,22.51-6.88,24.44-17.23.29-1.77.1-3.54.1-5.32v-127.32c0-3.26-.38-6.52-1.35-9.64-3.27-10.7-11.93-16.31-23.38-15.6-10.1.64-18.66,9.29-18.66,19.07,0,22.83.1,45.73,0,68.55Z"/>
  <path class="st0" d="M459.9,791.98c-18.57-3.69-36.27-8.93-44.25-23.04-5.2-9.15-8.95-19-10.77-28.78-1.83-9.85-.38-19.99-.38-30.34h44.83c.29,2.69.77,4.96.87,7.23.1,7.73-.19,15.45.1,23.18.38,10.21,8.47,17.87,18.57,17.94,10.77.07,19.91-7.8,20.2-17.94.29-11.27.87-22.61-.1-33.89-1.54-16.8-17.8-26.51-34.63-35.45-8.08-4.32-16.84-8.08-25.01-12.41-12.22-6.45-20.68-14.96-23.09-26.09-4.23-19.28-3.27-38.57,6.45-56.86,10.68-20.13,38.67-29.63,71-25.45,31.75,4.11,48.78,19.21,50.99,45.73.67,8.29.1,16.59.1,25.66h-45.6c0-6.81.77-13.33-.29-19.71-.77-4.75-2.6-10.14-6.45-13.68-9.43-8.65-23.57-6.59-29.53,3.69-11.45,19.78-2.02,41.33,23.38,51.89,25.78,10.7,47.33,24.53,54.36,46.36,7.79,24.17,7.79,48.77-2.31,72.81-6.06,14.46-20.68,22.83-40.12,26.87-2.98.64-5.87,1.49-8.75,2.2-6.64.07-13.08.07-19.53.07Z"/>
  <path class="st0" d="M617.19,791.98c-35.21-5.81-49.16-24.25-52.43-48.7-1.35-9.64-2.69-19.35-2.79-29.07-.29-34.17-.87-68.34.19-102.44.48-15.24,3.46-30.56,15.78-43.81,14.91-16.09,41.27-22.12,72.06-16.23,21.45,4.04,38.39,19.21,40.21,37.01,1.25,12.41,1.06,24.88,1.64,37.36.19,5.03-3.17,6.38-9.62,6.66-33.86,1.56-33.67,1.7-34.06-23.39-.1-5.46-1.64-11.06-3.94-16.23-2.98-6.81-10.39-12.48-19.72-9.36-7.12,2.41-11.83,9.22-16.64,14.53-1.64,1.84-.29,5.25-.29,7.87,0,44.24-.1,88.55,0,132.78,0,3.19.1,6.88,2.21,9.43,4.43,5.53,9.33,11.63,20.3,10.28,9.04-1.13,17.61-10.49,18.09-20.06.48-9.71.1-19.5.1-29.85h43c-.1,19.07,3.27,38.35-6.73,56.79-8.56,15.74-26.55,22.9-47.81,26.59-6.64-.14-13.08-.14-19.53-.14Z"/>
  <path class="st0" d="M169.94,669.48c-9.52,35.3-19.63,70.54-28.19,105.99-2.31,9.43-7.41,12.62-19.34,11.84-5.58-.35-11.16-.5-17.7-.78-8.85-38.71-17.51-77.13-26.26-115.56-.96.07-2.02.14-2.98.21v116.19c-13.76,0-26.17.35-38.39-.35-2.21-.14-5.68-4.47-5.68-6.88-.38-51.68-.48-103.43-.48-155.11,0-20.49.19-41.05.29-61.54v-9.93c15.2,0,29.25-.28,43.2.28,2.69.07,6.64,3.26,7.41,5.46,10.49,30.91,20.59,61.96,30.69,92.94,2.69,8.22,5.2,16.45,7.79,24.6,1.06.07,2.02.14,3.08.21,1.54-3.05,3.46-5.96,4.52-9.07,12.6-35.16,25.3-70.33,37.23-105.63,2.5-7.3,7.02-9.57,16.55-8.93,7.98.5,16.16.21,24.15,0,8.75-.28,12.8,1.63,12.8,9.07-.38,57.35-.29,114.71-.29,172.06v52.04h-45.89v-116.97c-.77,0-1.64-.07-2.5-.14Z"/>
  <path class="st0" d="M954.29,786.59v-232.67c14.91,0,29.34-.21,43.77.21,2.69.07,6.83,2.48,7.7,4.47,10.01,22.61,20.88,45.16,28.57,68.2,3.37,10.07,4.62,20.13,14.82,29.99,5.87-12.83,3.27-24.67,2.79-36.51-.77-20.7-.96-41.47-.96-62.24,0-1.49,3.56-3.12,5.87-4.25,1.15-.57,3.17-.21,4.71-.21,34.35-.99,34.15-.99,34.15,24.1-.1,65.65-.1,131.29-.1,196.94v12.41c-12.31,0-23.38.35-34.44-.28-2.6-.14-6.16-3.4-7.12-5.74-7.99-18.79-15.78-37.72-23.09-56.64-6.83-17.65-12.89-35.45-19.82-53.1-.87-2.2-5-3.69-10.2-7.23v122.65c-15.39-.07-30.79-.07-46.66-.07Z"/>
  <path class="st0" d="M808.16,787.73v-103.86c-14.43,0-28.28-.35-41.95.35-2.12.14-5.29,5.25-5.29,8.15-.38,29.42-.19,58.84-.19,88.19v6.45h-41.56v-232.74h41.56v101.8h47.04v-8.08c-.1-28.78,0-57.64-.48-86.42-.1-6.45,3.37-8.01,11.45-8.08,30.02-.28,30.5-.43,30.4,21.48-.1,29.63-1.64,59.2-1.54,88.83.1,37.08,1.25,74.23,1.73,111.3.19,12.48-.19,12.48-17.61,12.55-7.7.07-15.2.07-23.57.07Z"/>
  <path class="st0" d="M928.99,786.95h-48.2c0-40.69.1-80.96,0-121.23-.19-35.59-.77-71.18-.87-106.77,0-1.77,3.56-4.96,5.48-5.03,14.33-.43,28.77-.21,43.48-.21.1,78.34.1,155.4.1,233.24Z"/>
</svg>