<?xml version="1.0" encoding="UTF-8"?>
<svg id="Layer_1" xmlns="http://www.w3.org/2000/svg" version="1.1" viewBox="0 0 1296 1296">
  <!-- Generator: Adobe Illustrator 30.1.0, SVG Export Plug-In . SVG Version: 2.1.1 Build 136)  -->
  <defs>
    <style>
      .st0 {
        fill: #fff;
      }
    </style>
  </defs>
  <path class="st0" d="M649.15,934.41c-.9-1.5-1.68-3.13-2.71-4.57-3.61-4.81-6.08-10.11-7.22-16.07-.78-3.91-.6-7.58,1.56-11.19,5.36-8.91,6.26-18.84,5.54-29.07-.48-6.62-.66-13.3-.6-19.92,0-4.93,0-9.75-1.56-14.5-.66-1.99-.36-3.91.48-5.84,1.87-4.27,2.17-8.85,2.05-13.42,0-1.14-.66-2.41-1.26-3.43-.54-.9-1.38-.9-2.05.12-1.56,2.53-2.65,5.24-2.29,8.36.24,2.11.48,4.21.66,6.38.24,2.47.72,4.87-.36,7.4-.54,1.26-.24,2.95-.3,4.45-.06,1.99-2.05,3.19-3.67,2.11-2.77-1.93-5.78-3.13-9.03-4.03-1.32-.36-2.53-1.14-3.79-1.81-4.45-2.29-8.97-4.57-13.36-6.98-.9-.48-1.75-1.26-2.41-2.11-2.29-2.95-4.51-5.9-6.56-9.03-1.44-2.23-2.59-4.69-3.97-6.98-1.14-1.81-2.41-3.61-3.85-5.18-1.38-1.5-2.47-3.01-3.07-4.99-1.5-4.99-3.19-9.87-4.87-14.8-.24-.66-.78-1.5-1.44-1.75-2.05-.78-3.31-2.29-3.85-4.27-.96-3.79-1.93-7.64-2.47-11.55-.54-3.91-.54-7.82-.84-11.79-.06-.72-.18-1.5-.42-2.23-3.31-9.99-6.32-20.04-9.99-29.85-2.59-6.98-6.08-13.54-9.09-20.34-1.26-2.89-1.68-5.84-.78-9.09.78-2.89.84-6.08,1.26-9.09.12-.72.48-1.44.78-2.17.72.42,1.68.72,2.23,1.32,1.26,1.68,2.23,3.61,3.49,5.3,1.2,1.62,2.65,3.07,4.15,4.45.42.36,1.5.6,1.75.36.48-.42.66-1.26.66-1.99,0-.6-.24-1.26-.54-1.75-.66-1.14-1.2-2.41-2.11-3.25-5.54-5.42-7.94-12.46-9.33-19.86-2.35-12.82-4.33-25.7-6.68-38.51-.96-5.3-2.23-10.53-3.67-15.71-1.38-4.81-2.47-5.24-6.62-2.65-2.29,1.38-4.27,3.31-6.26,5.18-2.65,2.53-2.95,5.84-2.53,9.39,2.11,17.81,6.68,35.02,12.22,52.05,2.71,8.24,5.42,16.49,7.94,24.79.6,1.93.54,4.09.78,6.14.06.54,0,1.14-.18,1.68-.36,1.32-.9,2.47-2.53,2.59-1.62.06-2.23-.9-2.59-2.35-2.17-8.12-4.33-16.19-6.5-24.31-4.69-17.51-9.33-35.08-14.02-52.6-.6-2.17-1.75-2.77-3.85-2.05-2.35.84-4.99.06-6.44-1.87-1.08-1.5-.9-3.19.78-3.91,2.17-.9,3.55-2.53,5.05-4.15,1.38-1.44,3.01-2.77,4.75-3.73,3.61-2.11,5.05-5.72,3.61-10.53-1.26-4.15-2.05-8.3-2.17-12.7-.06-2.05-1.02-4.27-2.11-6.14-1.56-2.83-3.43-5.54-5.36-8.06-1.14-1.5-2.71-2.71-4.15-3.85-.96-.78-1.75-1.44-1.08-2.77.6-1.2,1.75-1.56,2.83-.96,1.56.84,3.13,1.81,4.39,3.01,6.38,6.2,9.03,14.08,9.69,22.93.18,2.77.84,5.6,1.81,8.18,1.08,2.83,2.53,2.95,4.63.96,1.32-1.26,2.71-2.59,3.97-3.91.3-.36.3-.96.42-1.44-.54-.12-1.14-.54-1.68-.42-.96.24-1.81.78-2.71,1.14-2.05.84-2.71.24-2.83-1.93-.3-4.21-.48-8.42-1.32-12.52-.48-2.47-1.99-4.81-3.37-6.98-1.38-2.11-3.31-3.85-4.81-5.96-1.99-2.77-4.45-4.69-7.58-5.96-2.35-.96-3.01-2.29-2.23-4.75.78-2.53,1.62-5.05,2.83-7.28,3.91-7.16,9.33-12.7,16.49-16.61,2.77-1.5,4.87-4.51,6.92-7.04.42-.48-.18-2.47-.9-3.25-.96-1.08-1.68.24-2.35.9-.42.42-.78.96-1.2,1.44-1.68,1.87-4.45,1.99-6.2.3-3.43-3.19-6.98-6.32-10.29-9.63-1.26-1.26-2.41-2.89-3.01-4.57-.78-2.17.48-3.49,2.77-3.25.72.06,1.44.24,2.17.3,2.47.18,3.79-1.38,3.79-3.97,0-.96.72-2.05,1.38-2.89.9-1.14.84-2.11.12-3.25-.3-.48-.6-.96-.9-1.44-1.62-2.41-2.05-4.99-1.08-7.7,2.65-6.32,6.5-11.19,11.86-14.74,2.35-1.56,4.81-2.11,7.34-.18,1.2.9,2.35.54,3.19-.6.6-.84,1.08-1.81,1.81-3.07.84.48,1.81,1.08,2.77,1.62.66.3,1.68.9,2.05.66.66-.42,1.02-1.38,1.32-2.23.18-.54,0-1.26,0-1.87,0-1.56.54-2.77,1.75-3.73,2.65-2.05,5.24-4.15,7.82-6.26.36-.3.9-.6,1.08-1.02.24-.6.18-1.26.24-1.93-.6,0-1.38-.18-1.81.12-1.02.6-1.81,1.44-2.77,2.17-1.56,1.2-3.07,2.53-4.75,3.43-2.59,1.44-4.75,3.19-6.62,5.54-1.02,1.26-2.47,2.17-3.85,3.01-.42.3-1.5,0-1.93-.36-.36-.3-.48-1.38-.18-1.87,2.47-4.09,1.87-8.24.6-12.52-.9-3.01-.54-6.02,1.08-8.73,4.99-8.3,11.92-13.96,21.48-15.47,4.27-.66,8.42.36,12.22,2.41,2.47,1.32,2.65,2.29.96,4.57-.06.06-.06.12-.12.12-.54.9-1.99,1.75-.9,2.83.78.78,2.23,1.2,3.37,1.2,1.32,0,2.59-.72,3.91-.9.6-.06,1.32.54,1.99.84-.3.72-.42,1.81-1.02,2.17-1.44.84-3.01,1.26-4.57,1.93-3.01,1.26-6.02,2.47-8.97,3.73-.66.3-1.44.66-1.81,1.2-.54.72-1.14,1.81-.96,2.47.36,1.26,1.56,1.14,2.65.66,3.01-1.32,6.08-2.65,9.09-3.97,1.2-.54,2.41-1.2,3.61-1.81,1.87-1.02,3.43-.96,4.21.06.96,1.38.42,3.85-1.14,5.05-.96.72-2.05,1.38-3.07,2.05-2.23,1.44-3.19,3.67-2.77,6.44.84,5.18,6.56,10.41,11.61,10.35,1.5,0,3.25-.9,4.39-1.93,3.19-2.83,7.22.12,7.7,3.43.18,1.44.48,2.83.84,4.21.3,1.14,1.08,2.11,2.29,1.56.78-.36,1.62-1.32,1.81-2.17.24-1.02-.12-2.23-.3-3.31-.42-2.35.84-4.09,3.19-4.21.66-.06,1.32.06,1.99.24,4.21,1.2,8.49,2.35,12.7,3.67,1.14.36,2.17,1.08,3.13,1.87,5.48,4.09,11.13,7.94,17.51,10.53,2.05.84,3.91,2.41,5.42,4.03,2.23,2.47,1.26,4.87-1.93,5.6-.72.18-1.44.3-2.17.42-3.31.6-6.02,1.93-7.58,5.24-.6,1.26-1.56,2.41-2.23,3.67-.72,1.44-1.93,2.05-3.31,1.68-4.45-1.02-8.67-2.41-10.71-7.22-.48-1.14-1.08-2.89-2.47-2.11-1.44.78-.48,2.41.24,3.43,1.75,2.41,1.68,5.3,2.47,8,.18.78.36,1.56.6,2.53.72-.12,1.38-.24,1.99-.36,1.56-.18,3.37.96,3.85,2.59.54,1.68-.42,2.77-1.68,3.37-3.67,1.75-6.86,4.27-10.17,6.62-2.17,1.5-4.75,2.77-7.76,2.05-1.99-.48-3.25.78-2.83,2.89,1.02,5.72,1.44,11.61,4.75,16.67,1.08,1.68,1.62,3.79,2.47,5.66.3.72.6,1.5,1.08,2.17.96,1.32,1.81,1.26,2.77,0,.18-.24.36-.48.54-.78,3.49-6.38,9.15-8.67,15.83-9.21,1.38-.12,2.53.24,3.49,1.26.54.6,1.14,1.14,1.81,1.56,2.23,1.56,4.57.48,5.05-2.29.24-1.56.36-3.13.72-4.63.72-3.19,3.97-4.99,6.62-3.85,1.56.66,1.99,1.75,1.14,3.25-.66,1.2-1.44,2.35-2.17,3.49-1.87,3.01-1.87,5.9.66,8.3,2.23,2.11,2.41,4.27,1.26,6.86-1.26,3.01-1.02,5.96.6,8.85.9,1.56,1.68,3.19,2.41,4.87,1.14,2.53.36,4.15-2.29,4.69-.24.06-.48.18-.72.18-7.88-.3-15.23,2.77-22.93,3.61-4.69.54-8.67,2.71-12.4,5.54-1.32,1.02-2.71,1.87-4.09,2.83-3.07,2.05-6.08,4.15-9.15,6.2-.72.48-1.32,1.14-2.11,1.5-2.11.96-3.73.06-4.27-2.29-1.14-5.05,1.38-9.81,6.26-11.49,1.2-.42,2.47-.72,3.67-1.2,1.26-.54,2.29-1.32,2.17-2.95-.18-1.5-1.08-2.59-2.59-2.77-2.05-.24-4.15-.36-6.2-.24-2.71.18-4.93-.6-6.56-2.89-1.38-1.93-2.89-3.79-4.03-5.84-1.38-2.47-.66-3.85,2.05-4.09,2.77-.24,4.45-1.56,5.36-4.27,1.02-3.07,2.65-3.79,5.78-2.95,1.02.24,1.99.6,3.01.72.48.06,1.2-.06,1.44-.42.24-.3.12-1.14-.18-1.5-1.44-1.93-2.95-3.85-4.63-5.6-1.56-1.56-1.87-3.37-1.68-5.48.3-3.73.48-7.46.54-11.19,0-.84-.6-1.68-1.02-2.83-.96.84-1.75,1.38-2.35,2.05-1.56,1.68-3.37,2.59-5.72,2.41-1.5-.12-3.07-.06-4.57.06-.54.06-1.02.6-1.56.96.42.42.84.9,1.32,1.14s1.08.18,1.62.18c4.09.06,6.62,2.29,8.18,6.08,1.62,3.79,1.08,6.98-1.38,10.35-2.41,3.31-5.66,4.03-9.27,4.21-1.62.06-3.31.24-4.93.54-1.93.36-3.31-.42-4.03-2.11-.72-1.75-1.26-3.67-1.68-5.54-.84-3.79-1.93-7.34-4.75-10.17-.78-.78-.66-2.65-.54-4.03.18-1.5-.06-2.59-1.62-3.31-1.32,1.93-2.11,3.91-1.14,6.26.42,1.08.84,2.23,1.38,3.31,3.79,7.22,4.39,15.29,6.2,23.05,1.44,6.38,2.77,12.76,4.09,19.08.06.24.18.54.72.72v-12.82c.18-.06.3-.06.48-.12.18.48.42.9.54,1.38,4.09,14.44,8,28.95,10.71,43.75.3,1.75.66,3.55,2.95,3.73,1.81.12,3.13-.96,3.91-3.31,1.32-3.91,2.59-7.82,3.91-11.73.9-2.59,2.29-4.51,4.93-5.66,1.2-.48,2.17-2.17,2.71-3.49.96-2.41,2.35-4.21,4.45-5.54.78-.48,1.75-1.02,2.65-1.02,3.19-.06,6.14-1.02,9.03-2.23,1.2-.54,2.53-.78,3.85-1.08,6.02-1.26,12.04-2.53,18.05-3.79,3.19-.66,5.6.84,6.32,4.09.6,2.95.48,5.84-1.99,8.12-1.62,1.5-1.32,2.77.72,3.43,1.2.42,2.53.48,3.73.84,1.02.3,2.23.54,2.95,1.26.66.66,1.2,1.99,1.08,2.89-.12.78-1.14,1.75-1.93,2.05-4.75,1.75-9.63,3.31-14.44,4.87-2.29.72-3.55,2.29-3.67,4.63-.06,1.02.54,2.71,1.2,2.95.9.3,2.17-.48,3.25-.9.3-.12.54-.66.72-1.08,1.26-3.67,4.45-4.99,7.58-6.2,3.43-1.26,6.08.72,5.9,4.45-.18,4.33-.54,8.67-.78,12.94-.06.66,0,1.32,0,1.99,2.05.3,3.19-.72,3.37-3.01.12-1.93-.06-3.91.06-5.84.12-1.68.3-3.37.78-4.99.66-2.11,2.41-2.35,3.79-.66,1.93,2.35,2.89,5.05,2.35,8.18-.36,2.17-.6,4.39-.9,6.56.3.12.54.24.84.42.12-.3.18-.66.36-.84.78-.54,1.99-1.68,2.41-1.44.84.48,1.93,1.75,1.81,2.59-.24,2.71-.9,5.36-1.5,8.06-.48,2.41-1.2,4.81-1.56,7.28-.12.66.84,1.5,1.26,2.29.6-.66,1.5-1.26,1.75-2.05.54-1.68.72-3.43,1.02-5.18.18-1.26.78-1.5,1.93-1.14,1.62.48,2.65,1.68,2.71,3.25.12,3.67.3,7.4-.12,11.07-.72,6.2-1.93,12.4-2.89,18.53-.12.6-.24,1.26-.48,1.81-2.59,5.42-4.15,11.13-4.69,17.09-.6,6.14-2.65,11.67-5.72,16.85-.6.96-1.02,2.17-1.2,3.31-.36,1.81.54,2.59,2.29,2.35,1.26-.18,2.65-.78,3.43.78.84,1.62.06,3.01-.9,4.27-.66.84-1.32,1.75-2.11,2.65,1.68,1.44,2.77-.54,4.21-.3.12,1.99.06,4.09.36,6.08.3,1.81.84,3.61,1.56,5.3.24.6,1.38.72,2.11,1.08.18-.78.6-1.56.54-2.35-.12-1.44-.66-2.83-.84-4.21-.18-1.68.6-2.23,2.11-1.5.6.3,1.14.72,1.62,1.2,3.13,3.25,4.33,10.77,2.35,14.86-1.26,2.59-3.13,4.45-6.26,4.51-.6,0-1.2.24-1.75.48-.72.3-1.56,1.26-1.99,1.08-1.44-.66-3.19-1.44-3.91-2.71-1.2-2.05-2.11-4.03-4.45-4.93-.54-.24-.96-1.08-1.32-1.68-1.56-2.53-3.13-5.05-4.51-7.7-1.62-3.07-3.07-6.26-4.57-9.39-.06-.12-.12-.24-.06-.36.96-2.59-.84-4.09-2.35-5.36-5.05-4.21-5.54-10.17-6.08-16.13-.3-3.01-.6-6.02-.96-8.97-.48-3.73-1.81-7.1-3.91-10.23-.72-1.02-1.38-2.29-1.62-3.55-.54-2.89-1.99-5.12-3.97-7.04-3.07-3.07-6.14-6.14-9.27-9.15-2.65-2.59-3.61-6.08-4.87-9.39-.24-.6.48-1.56.78-2.35.48-1.2.96-2.41,1.44-3.61-.24-.24-.48-.42-.72-.66-1.5.9-3.19,1.62-4.51,2.77-1.62,1.44-1.56,3.49-.3,5.24.9,1.26,1.93,2.47,2.71,3.79.36.66.54,1.81.3,2.47-.18.48-1.32.78-2.05.78-4.51-.06-9.81-5.42-9.87-10.29,0-3.01-.9-5.42-2.47-8-1.5-2.53-2.11-5.72-2.77-8.67-.72-3.13-2.35-5.05-5.42-5.54-.6-.12-1.62-.24-1.81.06-.3.54-.3,1.44-.06,2.05,1.44,4.03,3.01,8.06,4.57,12.1,1.62,4.33,3.13,8.73,4.93,12.94,2.05,4.81,5.54,7.88,10.89,8.24.78.06,1.62.54,2.17,1.14,2.05,2.05,4.03,4.21,6.08,6.32.96.96,2.05,1.75,3.13,2.53,2.41,1.75,3.37,4.33,3.43,7.16.06,2.77-.42,5.48-.42,8.24,0,1.5.12,3.13.66,4.51,1.2,2.95,2.59,5.84,4.15,8.61,1.99,3.43,2.77,7.1,3.01,11.07.24,3.49.96,6.92,1.38,10.41.12.96,0,1.99.06,2.95.06.6.06,1.26.36,1.75,1.44,2.53,2.89,5.12,4.51,7.52,5.05,7.52,10.53,14.62,17.15,20.76,3.19,2.95,4.39,6.98,4.81,11.31.18,2.11-.3,3.97-1.5,5.66-.78,1.08-1.38,2.29-2.05,3.43,2.77,1.5,6.14-.36,6.14-3.91,0-2.89.12-5.78.12-8.67,0-1.56.78-2.23,2.11-2.59,1.38-.42,2.17.3,2.53,1.5,1.75,5.24,3.67,10.35,5.12,15.65.84,3.01.12,6.08-1.99,8.67-.84,1.02-1.75,2.17-2.23,3.43-.66,1.68-1.44,3.49-1.44,5.3,0,2.89-.78,5.54-1.56,8.24-.36,1.08-.3,2.47-.06,3.61.66,2.95,1.56,5.78,2.35,8.67.6,2.23.3,4.33-.66,6.38-1.38,2.89-2.77,5.72-4.15,8.61-2.89,6.2-5.66,12.52-8.55,18.72-1.38,3.01-2.95,5.9-4.57,8.73-1.32,2.23-2.41,4.39-2.89,7.04-.48,2.59-1.26,5.24-2.35,7.64-1.38,3.07-1.87,6.2-2.17,9.45-.3,3.55-.6,7.16-1.26,10.65-.54,2.83.24,5.12,1.44,7.52.96,1.93,1.75,3.97,2.35,6.08.72,2.47.12,4.75-1.02,7.04-1.26,2.47-3.49,4.69-2.53,8.24.9.06,1.99-.12,2.89.18,1.14.42,2.53.96,3.07,1.93.3.54-.6,2.11-1.26,2.95-.96,1.26-2.35,2.17-3.37,3.43-1.44,1.81-1.38,2.35.36,4.33.66-.78,1.32-1.56,1.99-2.35,1.5-1.75,3.07-1.99,4.75-.42,2.83,2.59,5.78,5.05,8.36,7.94.96,1.08,1.44,3.13,1.26,4.63-.36,2.65-1.32,5.18-2.17,7.76-.72,2.11-1.68,2.71-3.67,1.93-1.68-.72-3.25-1.93-4.57-3.19-1.75-1.75-3.13-3.85-4.87-5.6-1.38-1.38-3.01-2.59-4.69-3.55-1.5-.9-2.35-1.99-1.99-3.79.6-2.53-.78-3.73-2.71-4.87-1.75-1.02-3.43-2.29-4.87-3.79-.66-.66-1.02-2.17-.78-3.13.24-.96,1.44-1.69,2.17-2.53.06,0,.3,0,.6,0ZM585.12,539.71c.12,0,.24-.06.42-.06.06-.72.12-1.44.12-2.17.12-2.71.78-5.24,2.65-7.22,1.32-1.44,2.47-1.38,3.55.18,1.32,1.87,2.77,3.31,5.05,4.03,3.79,1.08,5.84.18,6.86-3.85.66-2.71.9-5.54,1.44-8.3.78-3.79,1.26-6.26,6.32-3.85,2.05.96,3.49.42,4.75-1.5.66-.96,1.14-2.11,1.5-3.19,1.32-4.21,1.62-8.61,1.2-13.06-.12-1.5-.6-3.07-1.26-4.45-.3-.6-1.5-.9-2.35-.84-.36,0-.96,1.08-1.02,1.68-.06,1.32.06,2.65.24,3.91,1.02,7.4-3.13,13.36-9.87,14.08-1.08.12-2.47-.54-3.19-.06-1.44,1.02.3,1.81.66,2.71v.18c-.18-.06-.36-.12-.54-.18-.78,2.29-1.5,4.63-2.41,6.86-.3.78-1.2,1.26-1.81,1.93-.36-.72-.9-1.38-.96-2.17-.18-2.89-1.38-5.3-3.13-7.46-1.02-1.32-2.11-2.59-3.13-3.91-3.73-4.75-3.55-9.87-1.14-15.1.24-.54.24-1.26.36-1.87-.72,0-1.56-.24-2.23,0-.6.24-1.14.9-1.56,1.5-.96,1.44-1.87,2.95-2.83,4.39-1.44,2.17-3.43,3.55-5.9,4.15-2.17.54-3.73-.18-4.75-2.17-.6-1.14-1.2-2.35-1.62-3.61-.66-1.99-2.05-3.07-3.97-3.43-2.41-.48-4.21-1.62-4.99-4.09-.54-1.62-1.5-1.81-3.01-1.14-1.44.6-3.01.9-4.87,1.5.3-.84.42-1.02.42-1.14.06-.66.06-1.38.06-2.05-.6.18-1.14.42-1.75.6-.66.24-1.32.72-1.99.72-3.19-.18-5.78,1.02-7.88,3.25-4.99,5.3-6.2,11.61-4.75,18.66.9,4.33,3.73,7.52,6.74,10.53,2.41,2.41,5.42,4.33,6.32,8.06.18.72.9,1.38,1.5,1.87,4.45,3.37,8.91,6.8,13.48,10.05,2.35,1.68,4.15,1.2,6.08-1.08,1.38-1.68,2.59-3.49,4.15-4.99,1.26-1.26,2.83-2.35,4.39-3.25,1.38-.78,2.47-.18,3.01,1.38.6,1.26,1.14,2.59,1.62,3.97ZM625.44,826.52c-.78-.84-1.56-1.68-2.35-2.53-3.91-4.21-8.3-8.06-9.09-14.32,0-.24-.18-.48-.36-.66-2.71-3.43-3.61-7.58-4.39-11.79-.42-2.41-1.44-4.57-3.55-5.9-.48-.3-1.08-.3-1.62-.48-.12.6-.42,1.2-.3,1.75.3,1.38.72,2.83,1.26,4.09,2.05,4.51,3.13,9.21,3.07,14.2,0,.78.42,1.68.84,2.41,3.85,7.16,8.85,13.36,15.35,18.17,1.62,1.2,3.19,2.53,4.87,3.67.54.36,1.56.54,1.99.24s.6-1.32.54-1.99c-.36-3.73-.84-7.46-1.32-11.19-.42-3.25.6-5.6,3.73-6.32,3.07-.72,4.81-2.65,6.44-5.05.72-1.08,1.62-1.62,2.83-2.11,1.44-.6,2.95-1.68,3.73-2.95.96-1.5,1.5-3.43,1.75-5.3.78-6.92,1.5-13.78,4.63-20.16.96-1.93,1.02-4.27-.36-6.44-3.61,2.59-6.32,5.78-6.8,10.29-.24,2.35.12,4.75.54,7.1.42,2.17-.06,3.97-1.68,5.18-2.23,1.68-2.83,3.91-2.83,6.5,0,3.43-1.75,5.84-4.69,7.22-2.47,1.14-4.99,2.05-7.46,3.01-2.41.9-4.21,2.59-4.51,5.18-.18,1.62.42,3.37.9,4.99.3,1.32.36,2.35-1.14,3.19ZM664.98,862.5c1.26-2.11,2.53-4.15,3.73-6.14.24-.48.54-1.08.42-1.56-.48-2.59.72-4.39,2.41-5.96,3.01-2.83,4.15-6.5,4.63-10.53.36-2.77,1.14-5.48,1.68-8.24.18-1.02.42-2.17.12-3.07-1.75-5.42-3.55-10.77-5.54-16.07-1.26-3.31-1.02-4.09,2.29-4.81,2.41-.54,2.65-.66,2.41-3.19-.18-2.23.42-4.03,2.23-5.42,1.5-1.2,2.83-2.53,3.25-4.57.3-1.38,1.26-3.07-.42-3.85-1.68-.78-2.29,1.14-2.77,2.29-2.65,5.84-6.68,10.47-11.55,14.38-3.67,2.95-3.61,3.13-1.14,7.16.96,1.56,2.17,3.31,2.23,4.99.12,2.83-.18,5.54,1.14,8.18.3.6,0,1.5-.06,2.23-.24,2.41-.54,4.87-.72,7.28-.3,3.55-.54,7.1-2.41,10.29-.54.9-.78,2.17-.72,3.25.06,3.67-.18,7.22-2.23,10.47-.72,1.2-.36,2.35,1.02,2.89ZM636.75,690.27c0-.54.06-.96-.06-1.26-.24-.6-.66-1.08-.96-1.62-.48.42-1.08.72-1.38,1.26-.54,1.02-.9,2.17-1.32,3.31-1.44,3.97-3.13,7.76-6.08,10.83-.84.84-1.26,2.29-1.56,3.49-.48,2.17-1.62,3.73-3.43,4.87-1.44.9-3.07,1.62-4.39,2.71-1.93,1.5-4.09,2.95-5.48,4.93-2.53,3.79-5.9,6.44-9.39,9.09-1.32,1.02-2.59,2.47-3.19,3.97-.78,2.17-1.5,4.15-2.95,6.14-1.75,2.35-3.61,4.51-5.6,6.62-.72.78-1.44,1.75-1.75,2.77-.18.72.18,2.05.72,2.35.66.42,1.99.42,2.59-.06,1.08-.9,2.05-2.17,2.77-3.43.84-1.5,1.44-3.19,2.11-4.81.96-2.41,2.35-4.57,4.39-6.14,3.55-2.65,6.02-6.08,7.7-10.23.6-1.5,2.17-2.83,3.55-3.85,2.17-1.5,4.69-2.41,6.86-3.91,3.13-2.17,6.2-4.45,8.06-8,1.2-2.23,2.23-4.81,3.97-6.5,3.61-3.55,4.15-8.06,4.81-12.52ZM650.05,580.99c.42-.3,1.2-.54,1.56-1.14,1.99-3.01,3.85-6.08,5.72-9.21.24-.36.24-1.2,0-1.5-.24-.36-1.02-.54-1.44-.42-1.2.36-2.35,1.02-3.55,1.44-2.89,1.02-5.72,2.29-8.67,2.77-2.71.42-5.6-.06-8.36-.12-1.2-.06-2.35-.12-2.95,1.26-1.2,2.83-3.37,4.51-6.08,5.6-.84.36-1.75,1.02-2.29,1.75-.36.48-.18,1.38-.24,2.05.6-.06,1.26.12,1.75-.12,3.19-1.68,6.08-3.85,9.87-4.27,4.33-.54,8.61-1.32,12.7,1.14.48.36,1.08.48,1.99.78ZM640.12,730.65c.24-.12.48-.24.78-.36-.42-.42-.84-1.08-1.26-1.08-.54,0-1.44.48-1.56.96-.54,2.35-.96,4.81-1.32,7.22-.18.9-.54,2.05-.18,2.77.66,1.44.12,2.65-.12,3.97-.54,2.95-1.32,5.66-3.85,7.52-.12.12-.18.3-.3.48-1.56,2.47-3.19,4.87-4.75,7.34-.3.48-.9.96-.84,1.38.18,1.26.66,2.53.96,3.73.84-.36,1.81-.6,2.47-1.14.6-.54,1.08-1.38,1.38-2.17.6-1.56,1.75-2.53,3.13-3.49,2.23-1.56,3.85-3.67,4.09-6.74.06-1.14.42-2.29.9-3.37,1.5-3.55,1.62-7.34,1.56-11.07-.12-2.05-.72-3.97-1.08-5.96ZM584.34,580.33c-.6-.66-1.02-1.56-1.62-1.75-1.08-.3-1.26.66-1.56,1.56-.72,2.17-1.5,4.33-2.41,6.44-.72,1.68-1.62,3.25-2.35,4.87-2.29,5.42-4.63,10.77-8.61,15.23-.54.6-.9,1.5-1.14,2.35-.48,1.68.72,2.95,2.17,2.23,1.32-.66,2.77-1.68,3.37-2.89,3.01-5.72,5.96-11.49,8.55-17.45,1.68-3.25,2.47-6.8,3.61-10.59ZM622.79,686.54c-.06-3.97-.9-7.64-2.77-11.07-.78-1.38-1.75-2.71-2.83-3.85-.96-1.02-2.41-1.5-3.61-.36-1.26,1.2-.12,2.29.42,3.31.06.18.24.3.36.42,2.53,3.07,3.85,6.62,4.57,10.53.42,2.29.36,4.33-.42,6.56s-1.26,4.57-1.56,6.92c-.18,1.38-.18,3.31,1.56,3.55,1.93.3,2.35-1.56,2.59-3.01.6-4.33,1.08-8.67,1.68-13ZM664.43,793.72c-.18-.96-.24-2.23-.78-3.25-.36-.72-1.32-1.44-2.05-1.5-.6-.06-1.62.78-1.87,1.38-.48,1.5-.6,3.19-.9,4.75-.24,1.02-.42,2.11-.9,3.07-1.87,3.91-3.91,7.82-5.72,11.73-.78,1.68.54,3.31,2.29,2.89.72-.18,1.5-.96,1.99-1.68.96-1.5,1.26-3.67,2.53-4.69,4.03-3.19,4.75-7.76,5.42-12.7ZM560.57,565.58c-1.38-.42-3.01-.72-4.51-1.26-2.53-.96-7.04,1.62-7.4,4.39-.06.36,0,.78.18,1.08,1.14,1.68,2.23,3.49,3.61,4.93,1.38,1.44,3.25,1.32,4.99.6,1.5-.6,2.53-1.68,2.71-3.49.06-2.11.24-4.21.42-6.26ZM574.29,725.42c.18.06.42.06.6.12.9-2.53,1.87-5.05,2.71-7.64.18-.54.06-1.32-.12-1.87-1.32-3.07-2.59-6.2-4.15-9.15-.66-1.32-1.75-3.07-3.49-2.29-1.68.78-1.38,2.71-1.26,4.39,0,.18.06.36.12.54,1.14,2.05,2.11,4.21,3.49,6.08,1.32,1.81,2.17,3.55,2.17,5.84-.06,1.32-.06,2.65-.06,3.97ZM612.44,787.34c.24.84.54,2.23,1.14,3.49.84,1.68,2.23,1.68,2.89-.12.6-1.68.84-3.49.9-5.3.06-1.62.42-2.95,1.56-4.03.42-.36.72-.84,1.02-1.32,1.08-1.81,1.02-3.97-.06-4.81-1.08-.84-2.77-.24-4.15,1.62-2.23,2.89-2.95,6.32-3.31,10.47ZM560.21,598.32c2.11.96,3.91.18,5.3-1.99,2.89-4.63,5.84-9.27,8.73-13.9.54-.84,1.08-1.75,1.2-2.71.12-.72-.3-1.87-.84-2.17s-1.56.12-2.23.48c-.42.24-.66.84-.96,1.32-3.61,6.32-5.9,13.42-11.19,18.96ZM547.15,540.73c-.48.42-1.26.78-1.5,1.38-.24.54,0,1.5.42,1.99.54.6,1.38,1.02,2.17,1.32,6.02,2.17,12.52,3.01,17.75,7.28.42.36,1.87.24,2.17-.18.78-1.08-.42-1.5-1.14-1.87-6.02-3.19-12.04-6.32-18.11-9.45-.48-.12-.96-.24-1.75-.48ZM650.11,904.93c0,.12.06.24.06.3.78-.18,1.81-.06,2.35-.54,1.14-.96,2.11-2.17,2.17-3.97.12-3.01.54-5.96.66-8.97,0-.6-.6-1.2-.96-1.87-.54.48-1.32.84-1.5,1.38-.54,1.68-.78,3.55-1.32,5.24-.36,1.26-.96,2.53-1.5,3.73-.84,1.87-2.41.9-3.67,1.02-1.68.12-1.75,1.68-1.81,2.83-.06,1.26,1.02,1.5,2.11,1.32,1.14-.18,2.29-.36,3.43-.48ZM601.55,644.84c.12.54.12.78.24,1.02,2.41,6.62,4.81,13.24,7.34,19.8.18.48,1.32.96,1.75.78.54-.24,1.08-1.08,1.14-1.75.06-.66-.42-1.44-.72-2.05-2.35-4.51-4.33-9.27-5.36-14.32-.3-1.5-1.14-2.89-1.93-4.21-.24-.36-1.14-.6-1.56-.48-.48.12-.66.84-.9,1.2ZM560.27,590.26c-.12-.18-.24-.36-.36-.48-.72.3-1.56.36-2.11.84-2.95,2.71-5.84,5.54-8.61,8.42-.54.54-.78,1.44-.9,2.23-.06.48.18,1.2.54,1.44.3.24,1.02.06,1.44-.18,2.41-1.38,4.63-2.95,5.96-5.6.84-1.62,1.93-3.07,2.89-4.57.42-.72.78-1.44,1.14-2.11ZM550.76,611.86c.18-.06.6-.06,1.02-.24,3.85-1.68,5.6-5.24,7.1-8.85.12-.36-.3-1.26-.72-1.5-.48-.24-1.5-.3-1.81.06-2.47,2.77-4.87,5.54-7.16,8.49-.9,1.2-.3,2.05,1.56,2.05ZM552.32,585.74c-.9-2.65-2.35-3.79-4.39-3.85-2.05-.06-3.07,1.26-3.73,3.01-.72,1.81-1.38,3.61-1.93,5.48-.24.84.06,1.81.06,2.71,3.07-3.19,4.69-7.58,9.99-7.34ZM557.08,619.08c1.38-.18,2.59-.18,3.61-.54.96-.36,1.99-1.02,2.65-1.81,1.14-1.26.6-2.77-.3-3.91-1.02-1.26-2.29-.78-3.25.12-1.32,1.26-2.53,2.65-3.67,4.09-.3.36-.48,1.14-.3,1.44.3.36.96.42,1.26.6ZM682.31,665.96c-.24-.12-.6-.42-.96-.42-.48-.06-1.14-.06-1.5.18-.48.36-.72.96-1.02,1.5-1.08,2.17-2.23,4.27-3.19,6.5-.36.78-.3,1.81-.48,2.71,1.02-.36,2.05-.66,2.95-1.14.42-.24.66-1.02.9-1.56.9-2.11,1.81-4.21,2.71-6.32.18-.36.3-.66.6-1.44ZM584.28,777.71c-.06,2.53,1.68,4.81,3.55,4.87,1.5.06,2.35-.9,2.41-2.65.06-2.47-1.62-4.39-3.79-4.45-1.56.06-2.29.78-2.17,2.23ZM595.71,615.35c.12-.06.24-.12.36-.24-.72-1.56-1.38-3.19-2.23-4.75-.24-.42-.96-.54-1.5-.78-.24.54-.66,1.14-.66,1.62.18,2.11.48,4.21.78,6.32.06.54.3,1.14.66,1.5s.96.6,1.38.6c.24,0,.6-.72.66-1.14.36-1.02.42-2.11.54-3.13ZM566.53,482c1.75-.12,3.07-.12,4.33-.3.42-.06,1.02-.54,1.08-.84.06-1.5.06-3.01-.24-4.45-.12-.6-1.2-1.38-1.81-1.38-.54,0-1.26.9-1.68,1.56-.48.9-.78,1.93-1.08,2.95-.3.78-.48,1.68-.6,2.47ZM578.56,566.61c-1.08,1.5-2.17,2.59-2.77,3.91-.6,1.38-.78,2.95-.84,4.45,0,.48.96,1.38,1.5,1.38.66,0,1.87-.6,1.99-1.2.6-2.65,1.38-5.42.12-8.55ZM595.47,556.2c.54-.48,1.81-1.14,2.23-2.17.48-1.08.36-2.53,0-3.67-.12-.48-1.62-.9-2.41-.72-1.38.3-2.65,2.71-2.53,4.21.06,1.2.42,2.35,2.71,2.35ZM602.51,498.72c.42,1.5.72,2.83,1.2,4.03.48,1.26,1.44,1.32,2.11.12.66-1.14,1.26-2.35,1.5-3.55.12-.72-.24-2.05-.78-2.41-.66-.48-1.93-.6-2.71-.24-.6.24-.9,1.38-1.32,2.05ZM584.22,757.55c-.12.12-.24.18-.3.3.66.9,1.32,1.87,1.99,2.77.72-.66,1.56-1.32,2.23-2.11.36-.42.48-1.14.72-1.68.6-1.5,0-2.77-1.5-3.37s-1.99.54-2.41,1.56c-.36.78-.48,1.68-.72,2.53ZM566.95,578.88c-.18-.24-.42-1.08-.96-1.32-.36-.18-1.26.36-1.56.84-1.14,1.62-2.11,3.37-3.07,5.05-.18.36-.12,1.08.12,1.32.24.24.9.3,1.32.24,1.93-.48,4.15-3.55,4.15-6.14ZM575.85,459.37c1.93-1.08,3.85-1.99,5.6-3.13.36-.24.36-1.62.06-2.05-.36-.48-1.5-.84-1.99-.54-1.62.78-3.13,1.87-4.57,2.95-.36.3-.66,1.14-.54,1.56.12.36.84.66,1.44,1.2ZM576.94,556.5c-1.68.06-3.61,1.81-3.61,3.07,0,1.02,1.93,2.53,3.25,2.53s2.53-1.56,2.41-3.19c0-1.38-.72-2.29-2.05-2.41ZM582.83,765.86c.36,1.44.6,2.59.96,3.73.42,1.2,1.38,1.32,2.05.3.6-.96.84-2.17,1.26-3.25.54-1.2.06-2.29-.78-3.01-.54-.42-1.75-.6-2.17-.24-.6.6-.9,1.69-1.32,2.47ZM573.33,566.43c-.12-.18-.3-.9-.78-1.26-.18-.18-1.08-.06-1.26.24-.96,1.56-1.99,3.13-2.71,4.81-.3.66.06,1.87,1.38,1.62.96-.24,3.31-3.85,3.37-5.42ZM604.44,489.82c-.12.06-.18.12-.3.18.42.78.84,1.5,1.26,2.29.6-.66,1.14-1.26,1.75-1.93.12-.12.18-.36.18-.54,0-1.02,0-1.99-.12-3.01,0-.12-.84-.3-.96-.18-.66.9-1.26,1.87-1.81,2.83-.06.06,0,.24,0,.36ZM624.6,767.18c-1.02-.48-2.05-1.38-2.71-1.14-.72.24-1.26,1.44-1.62,2.35-.12.3.6,1.26,1.08,1.38,1.75.48,2.17-1.14,3.25-2.59ZM532.4,522.13c-1.26-.48-4.45,1.44-4.39,2.65,0,.3.78.84,1.2.84,2.05-.06,2.95-1.38,3.19-3.49ZM573.57,552.46h.78c.42-.72,1.2-1.5,1.08-2.11-.12-.66-1.02-1.26-1.62-1.87-.54.66-1.44,1.26-1.5,1.99-.12.6.78,1.32,1.26,1.99Z"/>
  <path class="st0" d="M753.26,889.04c1.2-1.5,1.93-2.71,2.89-3.61.48-.54,1.38-1.08,1.99-.96.54.12,1.2,1.02,1.32,1.75.78,3.97,1.08,7.94-1.87,11.19-3.91,4.39-4.21,9.99-5.24,15.35-1.87,9.99-3.67,19.98-5.36,29.97-.6,3.55-.54,7.28-1.02,10.83-.24,1.93-.96,3.85-1.62,5.72-.54,1.5-1.38,2.83-.6,4.45.84,1.81.12,3.13-.96,4.63-1.2,1.62-2.29,3.43-3.01,5.3-.96,2.47-.36,4.93,1.14,7.16,1.38,2.05,2.83,4.09,4.21,6.2.96,1.5.66,2.77-.78,3.67-5.3,3.37-13.12.54-14.92-5.54-.36-1.26-.18-3.07.36-4.27,1.56-3.43,1.62-6.74-.18-10.05-.12-.24-.3-.48-.3-.66.18-5.54-1.2-11.13,1.02-16.49.48-1.14,1.02-2.29,1.68-3.31,2.89-4.39,4.03-9.39,4.45-14.56.18-2.11.48-4.21.66-6.38.12-1.56.48-3.31,0-4.69-1.26-3.67.24-6.74,1.2-9.99,3.13-.24,5.96-1.14,8.06-3.49.72-.78,1.2-2.35,1.02-3.49-.24-1.5-1.75-1.62-3.13-1.62-4.93.06-5.18-.24-5.18-5.42,0-2.77-.42-5.48-.36-8.24.12-5.36.24-10.77.66-16.13.12-1.99,1.08-3.97,1.62-5.96.66-2.35.42-4.63-.48-6.98-.96-2.53-.54-2.95,1.62-4.33.78-.48,1.32-1.75,1.62-2.77,1.26-4.99,1.2-9.99-.6-14.8-1.62-4.33-3.73-8.55-5.54-12.82,1.38-.36,2.05-1.44,1.2-3.01-.66-1.26-1.81-2.35-2.95-3.25-2.89-2.23-5.66-4.63-6.14-8.55-.54-4.51-.96-9.15,1.75-13.3,1.5-2.41,3.07-4.81,4.27-7.34.72-1.5,1.26-3.31,1.14-4.93-.12-2.47.18-4.51,1.81-6.56,2.47-3.13,3.07-7.22,3.01-11.01-.12-5.78-1.02-11.49-1.62-17.21-.06-.66-.48-1.56-.96-1.87-4.45-2.83-5.78-7.16-5.96-12.22-.06-1.68-.42-3.37-.96-4.93-.24-.72-1.2-1.14-1.81-1.75-.54.72-1.38,1.44-1.62,2.29-.24.9.06,1.99.06,3.01,0,3.49.06,7.04-.12,10.53-.06,1.2-.96,2.35-1.32,3.61-.3,1.02-.54,2.17-.36,3.19.3,1.32.9,2.65,1.56,3.79,2.83,4.63,2.83,9.51,1.5,14.5-1.44,5.36-3.07,10.71-4.75,15.95-.3.9-1.5,1.87-2.47,2.05-.66.12-1.87-.9-2.23-1.75-1.08-2.53-1.93-5.12-2.71-7.76-1.93-6.38-4.87-12.16-8.42-17.69-1.44-2.29-2.65-4.81-3.61-7.34-.9-2.47-.18-3.67,2.17-4.75,2.59-1.26,3.79-3.43,3.55-6.44-.36-4.63-.54-9.27-1.14-13.84-.18-1.26-1.38-2.35-2.23-3.73.12-.24.42-.66.72-1.14-.3-.42-.6-.84-.9-1.26-.78-1.08-.66-2.11.42-2.95.96-.72,1.99-1.26,2.83-2.11.72-.66,1.26-1.62,1.87-2.41.54-.72,1.14-1.38,1.56-2.17.72-1.32,1.5-2.71,1.93-4.21.84-2.89,1.56-5.78,2.17-8.73.18-.78,0-1.75-.24-2.53-.9-3.07-1.75-6.08-1.68-9.39.06-3.49-1.5-6.5-3.61-9.27-1.5-1.99-2.71-4.15-3.91-6.32-.3-.6-.06-1.5,0-2.29.66.12,1.38.18,2.05.36,4.27,1.08,8.42,2.53,12.76,3.19,6.92,1.14,12.94,3.97,18.35,8.36,7.52,6.08,13.9,13.36,20.34,20.58,5.72,6.44,11.13,13.06,14.8,20.94,8.3,17.87,9.81,36.17,3.31,54.94-4.03,11.67-8,23.41-11.98,35.14-1.99,5.9-2.59,11.98-2.77,18.17-.12,3.49-.66,6.86-2.11,10.05-1.32,2.77-1.26,5.72-1.26,8.67,0,.72.06,1.62-.3,2.17-2.83,4.87-2.71,10.47-3.73,15.77-.36,1.81-.96,3.61-1.75,5.3-.24.54-1.38,1.2-1.87,1.02-.6-.18-1.2-1.08-1.44-1.87-.72-2.35-1.38-4.75-1.99-7.22-.18-.84-.36-1.75-.12-2.53.96-3.31.3-6.62,0-9.87-.12-1.02-.42-2.23-1.68-1.93-.54.12-1.14,1.32-1.2,2.11-.48,5.24-.9,10.47-1.26,15.77-.06.6-.12,1.32.06,1.87,1.68,4.69,3.55,9.33,5.6,14.44ZM745.68,828.92c0,.06.06.18.06.24,1.93-.48,3.91-.72,5.84-1.38,2.05-.72,3.19-2.65,2.95-4.63-.06-.6-.42-1.38-.84-1.68-.3-.18-1.26.18-1.56.6-1.68,2.29-3.79,2.77-6.44,2.17-1.5-.3-3.31,1.44-3.31,3.07,0,1.99,1.68,1.26,2.71,1.62.24.06.42,0,.6,0Z"/>
  <path class="st0" d="M557.56,761.64c-1.02,2.89-.54,5.42,1.32,7.22,4.45,4.39,7.64,9.57,10.35,15.16.24.48.48,1.02.78,1.5.9,1.26,2.29,1.26,2.83-.12,1.02-2.53,2.95-2.53,4.57-.54,1.32,1.56,2.35,3.49,3.07,5.48,1.81,4.93,2.89,10.17,5.24,14.8,2.29,4.63,5.78,8.67,8.73,13,2.23,3.25,5.05,6.14,6.14,10.17.06.18.06.36.12.96-1.32-.48-2.53-.78-3.61-1.26-1.02-.42-1.87-1.14-2.89-1.56-3.43-1.44-6.02-3.61-7.34-7.28-.54-1.44-1.56-2.83-3.43-2.53-1.02.18-1.44,2.59-.84,4.45,1.44,4.63,5.12,6.44,9.27,7.64,2.29.66,4.57,1.38,6.74,2.35.72.3,1.14,1.44,1.75,2.17-.78.48-1.5.96-2.35,1.38-.36.18-.84.12-1.26.3-.66.3-1.68.72-1.75,1.2-.06.84.36,1.87.9,2.47.3.3,1.44-.12,2.05-.42,1.44-.78,2.83-1.75,4.27-2.53.72-.36,1.56-.48,2.65-.84-.18,2.47-.66,4.33-2.05,5.84-6.5,7.1-12.88,14.32-19.5,21.24-3.61,3.79-7.82,6.98-11.43,10.83-2.53,2.77-4.57,6.02-6.56,9.27-3.13,4.93-3.85,10.41-3.43,16.25.3,3.97.42,8,.12,11.98-.12,1.87-1.02,3.85-2.05,5.48-1.08,1.69-1.81,3.25-1.5,5.18.18,1.26-.36,1.93-1.32,2.77-2.47,2.17-4.99,2.41-7.82.96-1.99-1.02-4.15-1.75-6.2-2.71-1.26-.54-1.38-1.75-.78-2.71,2.53-3.97,1.75-8,.66-12.16-.06-.24-.18-.48-.18-.72.12-6.68.12-13.36.42-20.04.06-1.81.84-3.67,1.5-5.42,2.41-6.56,4.93-13.12,7.34-19.68.66-1.81.78-3.79,1.32-5.66.72-2.53,1.68-4.93,2.29-7.46.54-2.23.9-4.51,1.26-6.8.48-3.19.66-6.38,1.26-9.51.3-1.75,1.26-3.37,1.81-5.05.54-1.5,1.2-3.01,1.32-4.57.48-4.33.72-8.73,1.02-13.54,1.75,2.11,3.19,3.91,4.69,5.66.42.54.84,1.14,1.44,1.44s1.5.42,1.99.18c.48-.3.84-1.26.78-1.87-.06-.78-.54-1.5-.9-2.23-4.63-9.69-9.63-19.2-13.84-29.07-1.87-4.33-2.23-9.33-3.19-14.02-.36-1.87-.48-3.73-.78-5.6-.84-5.6.96-10.29,4.39-14.56.48-.6.66-1.75.48-2.53-.78-3.61-1.68-7.22-2.71-10.77-.48-1.62-.12-2.89.6-4.27.84-1.68,1.32-3.55,2.05-5.3.3-.66.78-1.26,1.2-1.93.6.54,1.38.96,1.68,1.62,3.49,8.24,7.04,16.43,10.29,24.73.72,1.93.54,4.21.9,6.26,1.02,5.72,2.11,11.43,3.19,17.15.12.48.3,1.02.3,1.44-.06.6-.18,1.5-.54,1.68-.54.24-1.44.24-1.93-.06-.66-.36-1.14-1.08-1.56-1.81-1.81-3.07-3.67-6.08-5.12-9.33-.6-1.38-.18-3.31-.36-4.99-.12-1.26-.3-2.59-.84-3.73-.24-.48-1.32-.6-1.99-.9-.18.6-.48,1.2-.42,1.81.12,1.44.36,2.83.54,4.27.18,1.2.12,2.59-1.26,2.65-1.02.06-2.23-.6-3.19-1.14-.18-.24-.3-.96-.72-1.75ZM589.15,837.35c0-.48,0-.78-.06-1.08-.24-2.11-2.17-3.37-4.33-2.89-1.62.36-1.87.96-1.14,3.55.6,2.11.54,4.09-.42,6.2-1.14,2.47-1.99,5.12-2.83,7.76-.24.72,0,1.62,0,2.47.78-.36,1.5-.72,2.23-1.14.3-.18.54-.54.66-.84,1.81-3.97,3.67-7.88,5.42-11.86.36-.78.36-1.56.48-2.17ZM547.99,916.06c1.32,2.89,4.03,3.67,5.9,1.44,1.44-1.75,2.95-3.97,3.19-6.14.42-3.91-.12-7.94-.36-11.92,0-.42-.42-1.02-.78-1.08-.36-.06-.96.3-1.14.6-.3.66-.54,1.38-.6,2.11-.06,1.75.24,3.55-.06,5.24-.66,4.09-.6,8.73-6.14,9.75ZM555.51,884.53c.84-.3,2.05-.72,3.19-1.26.3-.18.42-.84.48-1.32,0-.12-.48-.54-.66-.48-2.29.66-2.77-1.08-3.61-2.59-.3-.48-.9-.84-1.38-1.2-.9,1.2-2.11,2.29-2.53,3.61s.6,2.35,1.93,2.71c.66.24,1.38.36,2.59.54ZM578.98,799.62c.24-2.23.6-4.21.54-6.2,0-.84-.66-1.87-1.26-2.53-.84-.84-2.11-.3-2.41.84-.72,2.35.66,6.2,3.13,7.88Z"/>
  <path class="st0" d="M745.37,347.14c-.3.6-.54,1.26-.84,1.81-.18.3-.54.54-.84.72-3.73,3.01-5.84,2.83-8.49-1.2-1.87-2.89-3.31-6.14-4.99-9.21-.78-1.44-1.56-2.83-2.41-4.21-.6-.96-1.32-.84-2.47-.48-4.39,1.38-6.8,5.18-9.75,8.24-16.55,17.21-34.06,33.34-52.05,48.98-21.12,18.29-42.49,36.29-63.79,54.4-.9.78-1.87,1.44-2.89,2.05-1.56.84-3.73.3-4.63-1.02-1.02-1.5-.9-3.49.6-4.75,4.69-4.03,9.45-7.94,14.14-11.98,22.45-19.14,45.25-37.97,67.28-57.65,14.86-13.3,28.7-27.8,42.91-41.88,1.75-1.68,2.95-3.97,4.21-6.08.3-.48-.06-1.56-.42-2.29-2.23-4.99-4.51-9.99-6.74-15.04-.3-.66-.48-1.44-.66-2.17-.48-1.62.06-2.89,1.44-3.67,1.68-.9,3.37-1.81,5.18-2.35.54-.18,1.75.72,2.17,1.38,1.44,2.53,2.71,5.18,3.97,7.82,5.96,12.04,11.92,24.01,17.87,36.05.54.78.84,1.62,1.2,2.53Z"/>
  <path class="st0" d="M673.58,880.19c-.54,3.13.48,5.84,2.17,8.24,2.11,3.01,2.65,6.2,1.93,9.81-.54,2.77.06,5.3,2.71,6.8,1.26.72,1.62,1.87,1.87,3.25.66,4.15.78,8.24-.78,12.22-.36.9-.3,1.99-.24,2.95.06.42.6.9,1.02,1.02.3.06.9-.42,1.02-.78,1.38-3.79,3.01-7.52,3.85-11.49.54-2.41,0-5.3-1.99-7.04-3.01-2.65-3.85-5.72-2.77-9.57.3-1.14.06-2.47-.12-3.67-.42-3.01-.84-6.08-1.5-9.03-.42-1.87-1.32-3.61-1.87-5.48-.6-1.99-1.14-4.03-1.75-6.08-.18-.54-.54-1.38-.78-1.38-.66,0-1.26.42-1.87.72-.24.12-.24.66-.42.78-.66.42-1.38,1.08-1.99,1.02-.54-.06-1.38-.96-1.44-1.56-.24-2.83-.06-5.66,2.35-7.7.36-.3.66-.72,1.08-1.02,2.77-1.93,4.15-4.45,3.61-7.94-.12-.78.06-1.68.36-2.41.3-.6,1.08-1.44,1.56-1.38.54,0,1.38.9,1.5,1.5.48,1.99.54,4.09.96,6.14,2.05,10.65,4.03,21.3,6.14,31.89,1.26,6.44,2.83,12.82,4.15,19.26.6,2.95.42,5.9-1.62,8.3-1.75,2.05-2.35,4.39-2.23,7.1.12,3.73-1.2,6.98-3.55,9.81-2.11,2.47-4.09,4.99-6.02,7.58-1.14,1.56-2.35,2.29-4.21,1.75-1.87-.54-2.89-1.75-3.07-3.97-.18-2.23-.24-4.51-.36-6.74-.36-5.42,0-10.77,1.02-16.07.6-3.01-.18-5.9-1.32-8.61-1.62-3.85-3.37-7.64-4.99-11.49-.78-1.99-1.5-3.97-1.99-6.02-1.62-6.56,1.56-11.25,5.9-15.41,1.44-1.38,3.19-.66,3.49,1.38.12,1.14.12,2.29.18,3.31Z"/>
  <path class="st0" d="M673.82,530.2c-.24,1.08-.42,3.07-1.2,4.81-.6,1.32-1.81,2.77-3.07,3.19-5.42,1.93-10.41,4.57-15.1,8-4.21,3.13-9.09,5.36-13.72,7.88-1.02.54-2.35.66-3.49,1.02-2.35.72-4.69,1.26-6.98,2.17-1.93.78-3.49.54-4.87-.9-2.65-2.77-3.61-6.44-4.81-10.05-.06-.24-.06-.54.06-.72,1.14-1.26,2.11-2.77,3.49-3.67,5.48-3.79,10.95-7.58,16.55-11.13,2.11-1.32,4.63-1.81,6.92-2.83.9-.42,1.81-1.08,2.29-1.87.24-.42-.42-1.62-.96-2.11-1.5-1.38-1.5-2.95-.24-4.27,1.56-1.62,3.19-3.31,5.12-4.33,3.25-1.75,6.74-3.19,10.23-4.45.96-.36,2.41-.12,3.37.42.96.6,1.81,1.75,2.35,2.83,2.47,4.75,3.79,9.81,4.09,16.01Z"/>
  <path class="st0" d="M543.24,926.29c1.62.48,3.01.78,4.27,1.2,2.11.72,4.15,1.69,6.26,2.41,1.81.6,3.43,2.47,3.73,4.51.72,5.54,1.56,11.01,2.35,16.55.42,3.25.6,6.56,1.93,9.69.84,1.99,1.62,3.91,3.37,5.24,2.59,1.99,3.79,4.51,3.55,7.94-.06,1.02.72,2.29,1.38,3.25,1.26,1.81,2.83,3.43,4.03,5.3,1.99,3.01,4.45,3.43,6.86.78,1.56-1.69,3.25-2.83,5.6-2.59,3.19.3,4.51,2.83,2.83,5.6-1.5,2.47-3.13,4.81-4.63,7.22-.54.9-1.02,1.87-1.38,2.83-1.56,4.33-5.3,5.84-9.15,3.37-2.65-1.69-5.05-3.73-7.7-5.48-2.05-1.38-3.07-3.07-2.71-5.6.12-.72,0-1.5-.12-2.23-.42-2.29-1.75-3.19-3.91-2.71-1.38.3-2.71.66-4.09,1.02-2.35.54-3.85-.36-4.27-2.77-.24-1.44-.48-3.01-.3-4.51.78-6.68-.36-13.12-1.75-19.56-1.44-6.8-2.83-13.6-4.21-20.4-.6-2.89-1.08-5.78-1.62-8.67-.12-.72-.18-1.32-.3-2.41Z"/>
  <path class="st0" d="M638.98,1037.02c.72-4.21,1.26-7.76,1.93-11.25.3-1.5,1.32-2.35,2.77-2.71,1.26-.36,2.23.24,3.07,1.14.72.78,1.44,1.56,2.35,2.11,1.99,1.26,4.75.06,5.24-2.23.12-.48-.36-1.26-.78-1.62-.48-.36-1.26-.48-1.93-.48-2.71,0-4.51-1.5-6.26-3.43-1.08-1.2-.96-2.23-.12-3.31.9-1.08,1.81-2.29,2.89-3.13,3.19-2.53,3.43-5.84,2.77-9.45-.24-1.32-.66-2.59-.66-3.85,0-1.81.24-3.67.42-5.48,0-.3.3-.6.3-.9.36-3.31,1.08-6.44,3.97-8.55.24-.18.36-.66.48-1.02,1.68-4.27,3.43-8.55,5.05-12.88.54-1.5.72-3.19,1.26-4.69.66-2.11,1.99-2.29,3.55-.78,2.17,2.05,4.33,3.97,6.56,5.9,1.2,1.02,1.87,2.23,1.2,3.79-.96,2.23-1.87,4.51-3.07,6.56-2.41,3.97-2.89,8.3-2.65,12.82.12,2.17.18,4.39.18,6.56,0,1.99-.72,3.43-2.59,4.33-2.59,1.26-4.63,3.25-5.6,6.14-.6,1.81-.6,3.55.24,5.3.84,1.75,1.68,3.49,2.47,5.24,1.44,3.31.66,6.02-2.29,7.94-5.12,3.43-10.23,6.8-15.35,10.29-1.2.78-2.53,1.5-3.67.42-.9-.72-1.32-2.05-1.75-2.77ZM663.59,993.09c-1.14-.9-1.81-1.87-2.53-1.87-1.32,0-2.77.36-4.03.84-1.68.72-1.75,1.99-.36,3.13.36.3.78.66,1.2.84.84.3,1.99.9,2.53.54,1.14-.78,1.93-2.05,3.19-3.49Z"/>
  <path class="st0" d="M513.51,631.96c-1.14-.96-1.26-1.93-.54-3.13,1.5-2.65,3.07-5.3,4.45-8,.6-1.26.96-2.71,1.26-4.09.06-.42-.24-1.2-.6-1.38s-1.14,0-1.5.3c-.54.42-.96,1.08-1.32,1.75-1.38,2.65-2.71,5.36-4.15,7.94-1.56,2.95-4.15,3.55-6.68,1.32-1.32-1.2-2.47-2.77-3.37-4.33-.3-.54-.06-1.87.42-2.29.42-.36,1.62-.24,2.23.12,2.95,1.68,4.33,1.44,5.72-1.75.84-1.99,1.26-4.15,1.81-6.26.12-.48-.18-1.38-.54-1.56-.42-.18-1.14.12-1.62.42s-.78,1.02-1.32,1.26c-.96.54-2.05,1.26-3.07,1.26-2.65,0-4.39.96-5.36,3.61-.72,2.05-1.99,2.59-3.67,2.11-1.44-.42-2.05-1.38-1.75-2.83.18-1.02.42-2.11.96-3.01,1.62-2.89,2.47-5.96,2.83-9.27.3-2.41,1.38-4.09,3.37-5.48,1.75-1.2,3.19-2.83,4.69-4.39,1.81-1.87,3.49-3.85,5.18-5.78,1.56-1.81,3.19-3.61,4.63-5.54,1.2-1.62,1.93-1.99,3.37-.54,2.05,2.05,4.03,4.27,5.48,6.74,3.85,6.5,5.72,13.78,4.27,21.24-.72,3.91-2.83,7.82-5.12,11.07-2.53,3.61-6.02,6.56-9.15,9.75-.24.36-.54.54-.9.72Z"/>
  <path class="st0" d="M703.25,783.01c-.12-3.73-1.38-7.04-3.25-10.23-2.05-3.49-4.09-6.98-5.72-10.71-1.81-4.15.54-8.49,4.75-9.75,1.32-.36,2.17-.24,2.59,1.32,3.79,13.9,9.69,26.9,15.23,40.08,1.38,3.37,1.99,6.86,1.32,10.47-.48,2.71-1.93,4.03-4.57,4.27-2.83.24-5.6.54-8.42.66-.66,0-1.68-.48-1.99-1.02-1.08-2.23-2.05-4.51-2.95-6.86-2.65-6.92-4.99-14.02-7.94-20.82-1.32-3.07-3.67-5.72-5.6-8.55-1.56-2.29-3.31-4.51-4.81-6.86-.9-1.38-.42-2.41,1.14-3.07,3.67-1.56,6.56-.84,9.09,2.47,2.47,3.25,3.49,7.1,4.39,11.07.54,2.47,1.38,4.93,2.23,7.34.24.72.66,1.38,1.14,1.87.72.66,1.62,1.14,2.47,1.68.3-.9.6-1.81.84-2.71.12-.12.06-.42.06-.66Z"/>
  <path class="st0" d="M730.33,829.7c-.78,2.83-1.5,6.02-2.59,9.15-2.05,5.9-4.87,11.49-8.36,16.67-1.56,2.29-3.25,4.39-6.14,5.05-3.37.78-5.36-.3-5.96-3.73-1.38-8-2.47-16.07-3.79-24.13-.54-3.43-1.32-6.86-2.11-10.29-.36-1.62-.12-3.01,1.26-4.03,2.17-1.56,4.33-3.25,6.68-4.63,1.93-1.14,3.19-.72,4.57,1.14,1.32,1.81,2.65,3.61,3.97,5.42.42.6.9,1.26,1.56,1.56s1.62.36,2.17.06c.42-.24.66-1.38.48-1.99-.36-1.08-1.02-2.11-1.62-3.13-.9-1.62-1.99-3.19-2.71-4.87-.66-1.44-.06-2.59,1.44-3.31.9-.42,1.62-1.2,2.47-1.81.48-.36,1.2-.96,1.56-.78.6.24,1.2.9,1.38,1.5.6,2.23,1.02,4.51,1.62,6.74.96,3.55,2.05,7.1,3.07,10.65.42,1.44.6,2.83,1.02,4.75ZM709.27,825.49h.12c0,1.02-.06,1.99,0,3.01.3,3.85,1.87,5.42,5.66,5.72,3.61.24,5.84-2.95,4.33-6.32-1.44-3.13-3.91-5.42-6.68-7.28-1.44-1.02-2.77-.36-3.19,1.38-.24,1.08-.18,2.29-.24,3.49ZM714.92,838.31c-2.23-.12-3.97,1.08-3.67,2.23.18.66,1.08,1.38,1.81,1.56,1.2.3,3.49-1.38,3.25-2.35-.18-.72-1.14-1.2-1.38-1.44Z"/>
  <path class="st0" d="M800.92,707.06c-1.44-.6-3.31-.96-4.69-1.99-5.78-4.39-12.22-7.52-18.72-10.59-3.55-1.68-6.98-7.58-6.44-11.61.12-.84,1.08-2.11,1.75-2.23,5.42-.78,10.89-1.87,16.37-.54,2.71.66,5.3,1.99,6.8,4.51,1.81,3.07,4.39,4.63,7.64,5.66,3.31.96,4.93,3.55,5.18,7.34.18,3.55-1.62,7.22-4.39,8.49-.96.48-2.05.6-3.49.96ZM778.95,690.27c1.08.42,2.05.72,3.01,1.08,2.59,1.14,5.6,1.81,7.7,3.61,2.77,2.41,5.54,4.15,9.03,4.81.48.12,1.38.12,1.44-.06.24-.54.36-1.38.12-1.93-.36-.72-1.02-1.44-1.68-1.87-1.26-.78-2.71-1.2-3.91-2.05-.84-.6-1.93-1.5-2.11-2.41-.42-2.23-.78-2.53-3.07-.96-.72-1.5-1.38-2.95-2.11-4.39-.18-.3-.3-.72-.6-.84-2.05-1.2-4.09-2.17-6.8-1.2,2.47,2.41-.24,3.91-1.02,6.2Z"/>
  <path class="st0" d="M703.01,701.65c.36,3.49-.42,6.56-2.83,9.15-1.2,1.32-2.59,1.81-4.09,2.17-.36.06-1.02-.42-1.32-.84-1.62-2.11-3.07-4.33-4.75-6.38-.96-1.2-1.56-2.35-.72-3.85,1.99-3.49,1.32-7.46,1.56-11.25.18-2.71.84-5.12,2.17-7.4.48-.84.54-2.17.36-3.13-.42-2.05-1.2-4.09-1.75-6.14-.12-.54.24-1.26.36-1.93.6.36,1.44.54,1.81,1.08,1.32,2.17,2.53,4.39,3.67,6.62.3.6.48,1.26.72,1.93.66,1.81.96,3.79,1.93,5.42,2.29,3.85,2.77,8.12,2.89,12.46,0,.72,0,1.44,0,2.11Z"/>
  <path class="st0" d="M700.54,673.18c.9.42,1.93.72,2.71,1.32,2.47,1.87,4.21,4.45,5.12,7.4,1.99,6.5,3.91,13.06,5.54,19.68.48,2.05.24,4.39,0,6.56-.54,5.24-4.15,7.76-8.42,9.69-1.56-1.32-1.99-2.83-.84-4.69.6-1.08.96-2.29,1.44-3.43.78-1.75.9-3.43.24-5.3-.36-.96-.66-2.11-.54-3.13.78-6.68-.96-13.12-2.11-19.56-.42-2.29-1.81-4.33-2.77-6.5-.24-.48-.54-.96-.84-1.38.18-.24.3-.42.48-.66Z"/>
  <path class="st0" d="M701.38,737.99c-.6,2.65-1.08,5.36-1.81,8-.18.66-1.02,1.08-1.56,1.62-.42-.6-1.02-1.14-1.26-1.81-.36-.9-.6-1.93-.72-2.89-.78-6.44-4.15-11.86-6.86-17.45-.6-1.2-1.56-2.23-2.59-3.13-1.68-1.62-2.23-3.49-1.87-5.78.18-1.32.24-2.65.48-3.91.42-2.17,2.11-2.89,3.79-1.5,1.08.84,2.05,2.05,2.59,3.31,1.44,3.55,3.13,6.86,5.42,9.93,3.07,3.85,4.09,8.61,4.39,13.6Z"/>
  <path class="st0" d="M598.42,1000.73c-.36,2.29-.54,4.57-1.08,6.86-.6,2.47-2.17,3.61-4.51,2.83-3.13-1.02-6.26-2.41-9.15-4.09-2.35-1.32-2.59-3.37-1.02-5.6,2.47-3.49,5.05-6.86,7.82-10.17,1.75-2.05,3.91-1.75,5.54.6,1.93,2.89,2.23,6.2,2.41,9.57Z"/>
  <path class="st0" d="M738.75,770.61c-.48,2.11-.96,4.75-1.68,7.34-1.32,4.81-2.95,9.51-4.21,14.38-1.08,4.03-3.61,6.62-7.04,8.42-1.14.6-2.11.36-2.83-.84-.54-.96-.66-1.68.24-2.65,5.96-6.08,9.33-13.36,10.05-22.09.48-6.02-.6-11.73-1.62-17.51-.36-1.99-.3-4.09-.12-6.08.06-.66,1.14-1.68,1.75-1.68.66,0,1.44.9,2.05,1.5.24.24.36.66.42,1.02.78,4.03,1.68,8,2.35,12.04.42,1.87.48,3.79.66,6.14Z"/>
  <path class="st0" d="M672.14,758.69c-1.02-.42-1.81-.6-2.47-1.02-5.24-3.79-9.03-8.97-12.34-14.5-.24-.42-.54-1.02-.36-1.38.66-1.75-.3-2.59-1.56-3.49-1.56-1.08-1.87-2.89-1.14-4.87.24-.72.24-1.62.06-2.41-.42-1.62-1.14-3.19-1.44-4.81-.24-1.56.96-2.59,2.41-1.93,1.02.48,2.23,1.32,2.71,2.35,1.08,2.35,1.99,4.87,2.47,7.4,1.26,6.62,4.03,12.16,9.81,15.83,1.5.96,2.95,2.29,4.03,3.79.6.84.72,2.47.36,3.43-.3.78-1.68,1.14-2.53,1.62Z"/>
  <path class="st0" d="M678.94,949.04c4.51-.78,5.96.3,5.96,4.81,0,2.53.48,4.39,3.31,4.93,1.56.3,1.75,1.87,1.02,2.83-2.47,3.19-5.12,6.14-7.7,9.15-.3.36-.84.48-1.32.54-1.68.24-3.55.72-4.69-1.08-.96-1.62.18-3.07,1.14-4.21,1.5-1.75,2.11-3.49,1.75-5.84-.18-.9.18-1.99.54-2.89.9-2.11.96-4.21.36-6.38-.24-.6-.3-1.26-.36-1.87Z"/>
  <path class="st0" d="M742.43,997.6c.06,2.71-1.2,4.81-3.85,5.84-2.77,1.08-5.6,2.17-8.49,2.89-3.61.9-5.05-.9-4.15-4.57.6-2.47,1.08-4.99,1.44-7.52.3-2.05.6-2.47,2.59-2.11.9.18,1.93.54,2.65,1.14,1.5,1.26,3.07,1.69,4.93,1.44.78-.12,1.56-.12,2.35-.06,2.23.12,2.59.54,2.53,2.95Z"/>
  <path class="st0" d="M695.37,949.22c-.66,1.56-1.14,3.31-2.11,4.75-.9,1.5-2.59,1.5-4.15,1.08-1.5-.36-1.62-1.62-1.75-2.95-.12-2.11-.84-3.85-2.05-5.66-2.29-3.37-2.11-5.72.84-8.42,1.14-1.02,2.47-.6,3.37.24,3.01,2.95,4.27,6.8,5.84,10.95Z"/>
  <path class="st0" d="M761.86,699.18c-1.68-.9-3.43-1.68-4.99-2.77-.9-.6-1.56-1.56-2.35-2.35-1.5-1.56-1.26-3.43.66-4.39.9-.42,2.17-.6,3.13-.36,2.89.72,4.87,2.77,6.2,5.42,1.2,2.35.18,3.91-2.41,3.97-.06.18-.12.36-.24.48Z"/>
  <path class="st0" d="M770.83,696.23c-1.62.06-2.83-.6-3.73-1.99-1.14-1.62-2.29-3.25-3.49-4.81-1.02-1.38-1.44-2.77-.42-4.33.9-1.32,2.95-1.81,4.45-1.02.42.24.9.66,1.14,1.14,1.26,2.83,2.47,5.72,3.61,8.61.66,1.75.24,2.35-1.56,2.41Z"/>
  <path class="st0" d="M651.68,703.15c0,.84.06,1.62,0,2.41-.18,1.44-1.5,2.05-2.47,1.02-2.77-3.01-5.6-6.08-5.05-10.77.06-.72.18-1.5.54-2.17.6-1.2,1.68-1.26,2.47-.18,1.44,2.05,2.95,4.15,4.21,6.38.48.9.42,2.17.6,3.25-.18.06-.24.06-.3.06Z"/>
  <path class="st0" d="M690.19,808.1c-.48,0-.96.06-1.44,0-1.56-.24-1.87-.9-1.2-2.29,1.08-2.29,2.17-4.63,3.19-6.92.72-1.62,2.17-1.87,3.37-.48,1.02,1.2,1.99,2.59,2.71,3.97.3.6.06,1.75-.3,2.41-1.38,2.41-3.61,3.37-6.32,3.31Z"/>
  <path class="st0" d="M690.13,816.59c-1.14-.18-2.23-.12-3.13-.54-.72-.3-1.62-1.14-1.75-1.81-.12-.84.36-2.11.96-2.59,2.11-1.56,4.57-1.62,6.92-.72.72.24,1.38,1.75,1.38,2.65,0,.84-.78,1.93-1.5,2.35-.78.54-1.93.48-2.89.66Z"/>
  <path class="st0" d="M704.99,746.6c-1.87-2.29-2.83-4.63-1.81-7.4.24-.6.72-1.2,1.26-1.38.3-.12,1.08.48,1.32.96.66,1.32,1.44,2.65,1.68,4.03.3,1.87-.72,3.13-2.47,3.79Z"/>
  <path class="st0" d="M705.54,733.78c-.3.42-.84,1.02-1.38,1.68-.6-.54-1.5-.9-1.68-1.56-.54-1.68-1.02-3.49-1.14-5.3-.06-.78.72-1.81,1.38-2.35.72-.6,1.56-.24,1.75.84.36,2.05.66,4.09,1.08,6.68Z"/>
  <path class="st0" d="M529.09,508.29c-.06,1.38-.66,1.93-2.05,1.56-1.81-.48-3.31-2.53-3.31-4.45,0-1.2.48-1.68,1.68-1.44,1.99.42,3.73,2.41,3.67,4.33Z"/>
  <path class="st0" d="M525.84,516.78c-.54-.12-1.2-.18-1.87-.36-1.62-.36-1.26-1.75-1.26-2.89.06-1.26.9-1.32,1.81-1.2.6.06,1.2.18,1.81.3,1.32.24,2.41,1.08,2.29,2.47-.12,1.5-1.44,1.62-2.77,1.68Z"/>
  <path class="st0" d="M561.17,536.82c-2.53-.12-3.73-1.14-4.51-2.65-.72-1.38-.18-2.53.72-3.61,1.56-1.93,3.01-3.91,4.51-5.9.24-.36.54-.66.9-.96,1.2-.96,2.53-1.87,4.03-1.02,1.38.78.78,2.35.6,3.61-.42,3.07-1.32,6.02-3.37,8.36-.96,1.08-2.29,1.75-2.89,2.17Z"/>
  <path class="st0" d="M592.46,522.92c-1.99.84-4.09,1.87-6.44,1.2-.72-.18-1.62-1.32-1.62-2.05-.06-2.95.12-5.9.3-8.79,0-.42.48-.78.78-1.14.48.36,1.08.6,1.32,1.02,1.87,3.13,3.67,6.32,5.66,9.75Z"/>
</svg>