<?xml version="1.0" encoding="UTF-8"?>
<svg id="Layer_1" xmlns="http://www.w3.org/2000/svg" version="1.1" viewBox="0 0 1296 1296">
  <!-- Generator: Adobe Illustrator 30.1.0, SVG Export Plug-In . SVG Version: 2.1.1 Build 136)  -->
  <defs>
    <style>
      .st0 {
        fill: #fff;
      }
    </style>
  </defs>
  <path class="st0" d="M334.79,661.38c.21-.32.58-.63.63-1,1.16-11.63,1.68-23.41,3.52-34.93,2-12.84,4.79-25.62,7.94-38.24,4.47-17.94,11.36-35.14,19.36-51.76,8-16.68,17.46-32.56,28.09-47.77,14.1-20.15,30.77-37.88,48.87-54.39,15.47-14.1,32.25-26.51,50.24-37.19,17.36-10.26,35.4-19.2,54.6-25.57,11.63-3.84,23.36-7.52,35.3-10.31,11.2-2.58,22.73-4.21,34.14-5.68,9.15-1.16,18.36-1.42,27.57-2.1.47-.05.89-.42,1.37-.63h18.62c.68.21,1.32.63,2,.63,15.05.21,29.93,2,44.77,4.58,16.41,2.79,32.51,6.94,48.19,12.31,17.36,5.94,34.09,13.41,50.03,22.46,16.36,9.26,31.88,19.73,46.29,31.88,7.47,6.31,15.1,12.52,21.88,19.46,8.52,8.73,16.57,17.89,24.2,27.41,7.52,9.36,14.52,19.15,21.2,29.14,8.94,13.31,16.57,27.41,22.51,42.35,4.58,11.57,9.36,23.2,13.1,35.09,3.73,11.99,6.79,24.3,9.21,36.61,1.89,9.42,2.63,19.04,3.47,28.62.95,10.73,2,21.52,1.89,32.25-.11,10.73-1.21,21.46-2.58,32.14-1.53,11.84-3.31,23.72-6.05,35.35-2.74,11.68-6.52,23.15-10.31,34.61-5.47,16.57-12.99,32.25-21.41,47.5-9.42,17.04-20.25,33.14-32.51,48.24-5.47,6.73-11.68,12.89-17.68,19.15-4.52,4.73-9.05,9.57-13.94,13.89-8.42,7.36-16.73,14.89-25.78,21.46-11.1,8.05-22.51,15.68-34.35,22.57-10.1,5.89-20.83,10.78-31.62,15.47-9.42,4.1-19.1,7.68-28.93,10.68-11.78,3.58-23.78,6.73-35.88,9.15-9.31,1.89-18.83,2.68-28.3,3.47-11.63.95-23.25,2-34.88,1.89-11.84-.11-23.67-1.37-35.46-2.53-19.88-2-39.19-6.58-58.23-12.52-14.47-4.52-28.51-10.21-42.08-16.83-15.83-7.73-30.83-17.04-45.19-27.35-13.78-9.89-26.67-20.83-38.77-32.62-8.05-7.89-15.52-16.41-22.62-25.2-7-8.63-13.47-17.73-19.67-26.93-13.89-20.52-24.57-42.72-33.14-65.97-6.31-17.04-10.84-34.61-14.1-52.45-1.68-9.21-2.47-18.62-3.42-27.99-.63-6.21-.95-12.47-1.42-18.73-.05-.37-.42-.68-.63-1-.05-6.26-.05-12.47-.05-18.67ZM968.31,674c-1.26-86.59-30.56-160.39-89.32-221.41-59.02-61.28-132.25-93.32-217.1-95.11-98.69-2.05-180.96,36.46-245.45,110.52-52.29,60.07-77.91,131.3-75.44,211.1,2.84,92.64,40.4,170.18,110.26,230.62,62.13,53.71,135.46,78.43,217.78,74.49,87.22-4.16,159.87-40.35,218.26-104.32,53.29-58.5,79.22-128.57,81.01-205.9Z"/>
  <path class="st0" d="M813.08,927.19c-16.04,9.1-31.77,18.15-49.29,24.83-2.79-7.1-5.47-13.89-8.26-20.83,8.21-3.79,16.15-7.47,24.62-11.36-2.26-4.16-4.16-7.73-5.89-10.94-10.47,4.37-20.67,8.63-30.88,12.94-2.16.89-3.58,1.47-2.21,4.89,3.68,9.1,6.47,18.57,9.42,27.99.21.74-1.1,2.63-2,2.89-8.94,2.63-17.94,5.16-26.99,7.36-6.63,1.63-13.41,2.84-20.46,4.31-1.32-7.42-2.58-14.52-3.89-22.15,3.63-.68,7.36-1.32,11.05-2.1,3.42-.68,6.79-1.58,10.15-2.26,2.74-.53,3.1-2.26,2.47-4.52-.74-2.74-1.47-5.42-2.31-8.52-11.57,2.16-23.3,4.31-35.72,6.63.47,5.52.89,11.47,1.53,17.41.58,5.84,1.37,11.68,2.21,18.41h-51.5c0-6.79-.05-13.62,0-20.41,0-2.42,1.89-2,3.42-1.95,6.63.21,13.2.47,19.83.53.68,0,1.95-1.21,1.95-1.95.21-3.42.11-6.84.11-10.42-11.57-.53-22.88-1.1-34.77-1.63-1.21,11.63-2.47,23.04-3.68,34.88-18.04-1.37-35.09-5.1-52.08-9.89,1.79-6.1,3.63-12.2,5.26-18.41.63-2.37,1.53-2.74,3.95-2.1,6.73,1.74,13.57,3.05,20.41,4.31.84.16,2.63-.68,2.79-1.32.74-3.05,1.21-6.21,1.37-9.31.05-.63-1.42-1.74-2.37-2-7.1-1.89-14.2-3.52-21.31-5.37-3.68-.95-7.31-2-11.73-3.26-3.58,10.84-7.21,21.99-11.05,33.67-6.52-2.47-12.63-4.63-18.62-7.05-6.79-2.79-13.47-5.79-20.15-8.84-3.16-1.42-6.26-3.1-9.31-4.73-1.68-.89-2.21-1.79-.89-3.89,3.37-5.58,6.31-11.42,9.42-17.25,6.15,3.16,12.1,6.26,18.1,9.26,1.16.58,2.47.79,3.68,1.21,1.63.63,2.63.26,3.31-1.53,1.1-2.95,2.47-5.73,3.79-8.84-10.52-5.47-21.09-10.89-31.93-16.57-6,9.73-12.2,19.67-18.83,30.41-14.73-10.84-29.41-21.67-44.35-32.72,5.42-6.1,10.31-11.63,15.41-17.41,6.52,5.26,13.15,10.63,19.94,16.1,2.74-3.63,5.05-6.79,7.42-9.94-9.52-8.26-18.94-16.41-28.62-24.83-7.79,8.31-15.62,16.73-24.15,25.88-4.58-4.84-8.26-8.47-11.57-12.41-5.47-6.37-10.84-12.89-16.15-19.46-2.95-3.63-5.68-7.47-8.52-11.2-1.37-1.79-.95-3,.89-4.21,4.37-2.84,8.63-5.89,12.89-8.84,1.95-1.32,3.68-1.26,5.16.74,2.68,3.58,5.26,7.21,8.05,10.73,2.16,2.74,4.52,5.26,7.1,8.21,3.26-2.89,6.21-5.47,9.21-8.1-4.89-6.58-9.89-13.1-14.68-19.83-2.74-3.89-5.05-8.1-7.73-12.05-.42-.58-2.05-1-2.68-.68-9.57,5.52-19.1,11.15-28.88,16.89-10.36-16.47-18.94-33.72-25.15-52.87,6.63-2.42,13.31-4.84,20.31-7.36,1.95,4.63,3.73,9.15,5.68,13.57,1.47,3.37,3.26,6.63,4.73,9.99.79,1.79,2.05,1.84,3.42,1.26,2.95-1.26,5.84-2.68,8.84-4.05-5.21-13.31-10.21-26.14-15.26-39.14-10.94,3.26-21.88,6.47-33.09,9.84-6.84-20.41-9.94-41.45-12.26-63.34,7.26-.47,14.68-.95,21.78-1.37,1.37,9.63,2.68,18.62,3.95,27.57.32,2.16,1.16,3.31,3.47,2.89,2.79-.53,5.58-.89,8.31-1.63.68-.21,1.53-1.63,1.47-2.42-1.42-11.36-3.1-22.73-4.47-34.09-.37-3.05,0-6.21-.11-9.31-.05-2.16-.37-4.31-.58-6.68-10.57,0-20.73-.11-30.93.05-2.84.05-3.84-.63-3.79-3.68.16-10.78.58-21.52,2.68-32.14.21-1.16.05-2.42.05-3.26-1.58-1.1-3.16-1.74-4.16-2.89-1.26-1.42-1.84-3.1,0-4.94,1.53-1.53,2.74-3.42,3.89-5.26.42-.63.74-1.84.37-2.31-3.16-4.63-1.05-9.21.11-13.62,2.1-7.79,5.16-15.15,9.89-21.83,2.89-4.1,4.68-9,6.73-13.62,3.95-8.84,7.73-17.73,11.68-26.57.42-1,1.1-1.84,1.63-2.74,4.73,2.37,9.47,4.79,14.2,7.1.63.32,1.63.26,2.26-.05,3.26-1.74,6.47-3.52,9.57-5.47,1.47-.95,2.68-2.31,4.21-3.63-7.21-4.1-13.84-7.89-20.57-11.63-1.79-1-1.74-2-.68-3.58,6.58-9.99,12.84-20.2,19.73-30.04,4.05-5.79,8.94-10.99,13.57-16.57,5.73,5,11.2,9.73,16.73,14.52-5.84,7.73-11.63,15.36-17.62,23.25,1.21.74,2.16,1.37,3.16,1.95,7.05-6.79,15.2-11.57,23.46-16.41,3.79-2.21,6.42-6.47,9.42-9.89.32-.37-.21-1.89-.79-2.47-3.84-3.84-7.79-7.52-11.63-11.36-3.84-3.84-7.52-7.79-11.68-12.05,5.1-5,9.89-10.26,15.2-14.83,8.15-6.94,16.73-13.36,25.15-19.99q5-3.95,8.57,1.26c2.53,3.68,5.1,7.31,7.63,10.99,1.1,1.63,1.63,2.74-.68,4.47-6.26,4.58-12.15,9.73-18.2,14.62-1.58,1.26-1.68,2.37-.21,3.79,1.26,1.21,2.42,2.58,3.37,4.05,2.1,3.21,4.1,2.31,6.63.42,8.84-6.63,17.78-13.05,26.67-19.57.63-.47.95-1.42,1.42-2.21-5.94-9.73-11.94-19.46-18.41-29.93,16.36-8.42,32.51-16.68,49.24-25.3,2.89,7.26,5.37,13.62,7.84,19.94,1,2.53-1.26,2.84-2.68,3.52-6.37,3.05-12.78,6-19.15,9-.47.21-.89.58-1.79,1.16,1.63,3,3.1,6,4.84,8.84.42.68,2,1.32,2.68,1.05,10.68-4.58,21.31-9.36,32.3-14.2-3.63-10.78-7.26-21.67-11.1-33.09,16.47-5.05,32.83-9.73,50.13-12.31,1.26,7.21,2.53,14.36,3.84,21.78-5.42,1.16-10.99,2.47-16.62,3.47-7.94,1.37-8,1.32-5.94,9.1.42,1.58.68,3.16,1.1,5.05,11.84-2.21,23.57-4.37,35.82-6.63-.32-4.16-.53-8.63-.95-13.1-.53-5.52-1.42-11.05-1.79-16.62-.42-5.79-.21-6.1,5.73-6.26,12.78-.42,25.51-.53,38.3-.68,2.26,0,4.52.58,6.47.84,0,6.94.11,13.89-.16,20.78,0,.58-2.16,1.53-3.31,1.53-6.52-.05-12.99-.42-19.52-.47-.74,0-2.1,1.47-2.16,2.37-.26,3.21-.11,6.42-.11,9.84,4.42.32,8.79.74,13.1,1,4.05.26,8.15.37,12.2.53,1.68.05,2.89-.32,2.74-2.53-.11-1.47.26-3.05.63-4.52.63-2.79,3.1-3.42,5.31-1.53.42.37,1,.53,1.68.89.95-9.1,1.84-17.83,2.79-26.93,17.99,1.37,34.98,5,52.13,9.94-1.74,6.05-3.68,12.2-5.31,18.46-.68,2.63-2.31,2.68-4.21,2.21-7.36-1.79-14.68-3.63-22.3-5.58-.79,4.1-1.63,7.73-2,11.36-.05.68,1.42,2,2.37,2.26,7.15,1.89,14.31,3.63,21.46,5.42,3.68.95,7.31,1.95,11.63,3.16,3.63-10.99,7.31-22.09,11.2-33.98,11.84,4.94,23.09,9.47,34.25,14.31,4.79,2.05,9.26,4.79,13.94,7.1,1.58.79,1.84,1.53.95,3.05-3.26,5.79-6.47,11.63-9.68,17.46-7.84-3.79-15.52-7.47-23.78-11.52-1.79,3.95-3.42,7.68-5.21,11.63,5.52,2.84,11.05,5.63,16.52,8.52,4.52,2.37,9,4.94,13.57,7.26.74.37,2.42.37,2.68-.05,5.89-9.57,11.68-19.2,17.52-28.99,15.89,9.36,30.3,20.62,44.5,32.56-4.73,5.47-9.21,10.73-13.84,15.83-.42.47-2.31.37-2.95-.11-5.47-4.37-10.84-8.84-16.15-13.47-1.58-1.37-2.58-.89-3.58.47-1.95,2.63-3.79,5.31-5.73,8.05,9.52,8.31,18.94,16.57,28.67,25.04,7.84-8.15,15.89-16.52,24.15-25.15,14.47,13.84,26.62,28.51,37.67,44.5-6,4.05-11.47,7.79-17.2,11.63,3.84,2.37,8.05,4.26,11.42,7.15,3.95,3.42,6.63.63,9.68-.89,1.74-.84,3.31-2.05,5.21-3.31,2.47,4.1,5.05,8,7.15,12.1,3.73,7.26,7.05,14.68,10.73,21.94,2.42,4.73,5.52,9.1,7.79,13.89,1.58,3.37,2.21,7.15,3.26,10.78.74,2.53,1.1,5.37,2.42,7.58,4.84,8,8.47,16.57,10.73,25.57,2.31,9.15,3.68,18.52,5.37,27.83.16.95-.32,2-.53,3.37-1.89-.84-3.37-1.53-5.47-2.47.42,3.42.95,6.52,1.16,9.63.05.74-.84,2.16-1.37,2.21-6.84.53-13.68.84-20.73,1.26-.42-4.26-.79-8-1.16-11.63-4.47-.47-9-.89-13.47-1.37.58,5.73,1.21,11.73,1.84,17.78.16,1.74.47,3.47.53,5.21.11,2.68-.05,5.31.05,8,.16,5.58.32,5.68,5.73,5.68h25.99c1.1,0,2.16.11,3.47.16.84,20.25-2.63,39.87-6.21,59.92-4.31-.79-8.57-1.58-12.78-2.37-2.26-.42-4.47-.89-6.73-1.37-2.37-.47-2.89-1.37-2.31-4.1,1.74-8.05,2.84-16.25,4.21-24.78-4.68-.42-8.47-.74-12.36-1.1-1.74,9.47-3.31,18.52-5.05,27.57-.63,3.21-1.42,6.37-2.26,9.52-1.1,4.26-.68,4.73,3.47,5.79,8.94,2.31,17.78,4.84,26.67,7.31.84.21,1.58.74,2.63,1.21-5.94,18.89-12.31,37.51-21.73,55.08-6.42-3.21-12.73-6.37-19.62-9.73,2.58-5.84,5-11.42,7.47-17.04.37-.89.63-1.84,1-2.74q2.05-5.05-2.95-7.05c-6.73-2.68-6.42-2.58-9.36,4.05-4.52,10.15-9.57,20.04-14.52,30.41,9.84,5.52,19.83,11.1,30.56,17.1-5.52,8.52-10.63,17.1-16.41,25.2-5.47,7.63-11.63,14.78-17.62,22.04-.42.53-2.21.79-2.68.37-4.52-3.79-9-7.68-13.26-11.73-.58-.58-.79-2.47-.32-3.16,5-7,10.21-13.89,15.31-20.78.21-.26.26-.58.42-.89-2.74-2.05-5.31-4.16-8.1-6-.53-.37-2.1-.05-2.58.53-8.21,9.68-16.36,19.46-24.41,29.3-.47.58-.37,2.42.21,2.95,5,5,10.21,9.78,15.26,14.78,2.63,2.63,5.05,5.52,8.05,8.89-3.58,3.58-7.05,7.47-10.99,10.73-10.57,8.84-21.41,17.36-32.09,26.09-1.74,1.42-2.63,1.37-3.95-.68-2.95-4.68-6.31-9.15-9.47-13.73-1.16-1.63-1.63-2.79.74-4.47,6.31-4.47,12.31-9.42,18.31-14.41.68-.58.89-2.74.37-3.47-1.74-2.53-3.95-4.73-6.26-7.42-10.73,7.94-21.31,15.73-32.19,23.83,5.58,9.63,11.68,19.67,17.89,29.88ZM605.02,665.8c-.53.11-.84.32-1.16.26-.53-.05-1.05-.21-1.53-.42-6-2.1-12.15-3.31-18.04-.16-6.1,3.26-11.89,7.15-17.78,10.84-.79.47-1.42,1.21-2.16,1.84.16.21.32.47.47.68,4.47-1.89,9-3.63,13.36-5.73,8.42-4.05,17.25-4.84,26.25-3.05,8.05,1.58,14.94,5.63,20.67,11.57,1.63,1.68,1.63,3.52-.58,4.52-3.73,1.68-7.58,3.16-11.42,4.47-8.05,2.79-16.04,5.79-24.93,4.68-9.63-1.16-18.04-4.1-23.2-13.05-.26-.42-1.21-.47-1.84-.74s-1.26-.53-1.89-.84c-.79-.42-1.53-1.32-2.37-1.37-6.73-.37-8-2.47-4.89-8.47.42-.79.95-1.47,1.42-2.21,1.53-2.53,3-5.05,4.52-7.58-.32-.37-.58-.74-.89-1.1-1.79,1-3.89,1.68-5.26,3.05-4.05,4.05-8.15,7.89-13.84,9.21-.26,2.95-.84,5.68-.74,8.42.42,10.15.74,20.36,3.26,30.3,2.63,10.42,4.58,20.99,7.94,31.14,3.31,9.94,7.21,19.73,12.52,28.88,4.1,7.1,7.31,14.62,13.41,20.57,7.15,7,14.89,13.2,22.99,19.04,4.31,3.16,8.21,6.94,12.1,10.63,3.68,3.52,6.94,7.36,10.57,10.99,3.73,3.73,8.57,5.42,13.62,5.37,8.47-.11,16.94-.42,25.36-1.37,6.26-.68,12.52-2.26,17.52-6.47,6.52-5.52,12.73-11.42,19.15-17.04,4.73-4.16,9.68-8.1,14.31-12.41,5.16-4.79,10.26-9.63,14.94-14.83,5.79-6.47,10.78-13.62,14.73-21.41,3.47-6.89,7.89-13.47,10.21-20.67,3.16-9.78,4.58-20.1,7.1-30.09,3.1-12.31,3.05-24.99,3.73-37.51.47-9.1-.68-18.25-1.1-27.3-2-.84-1.79-1-4.52-5.84-2.79-4.89-5.89-9.68-9.36-14.1-6.58-8.36-15.05-14.62-25.09-18.36-9.47-3.47-19.04-6.68-29.25-7.58-10.1-.89-20.1-2.58-30.2-3.73-6.1-.68-12.31-.63-18.36-1.53-4.1-.58-8.47-1.1-11.63-4.58-.37-.42-2.21,0-2.89.53-4.26,3.42-8.36,7.1-12.63,10.52-3.42,2.68-8.26,4.16-8,9.78,0,.16-.21.37-.32.58-3.79,5.89-8.47,10.78-14.89,13.89-5.73,2.79-10.84,6.31-14.2,11.89-2.21,3.63-4.89,7.1-5.05,11.68,4.63-.58,8.94-1.58,13.2-1.47,5.42.16,10.84,1.05,16.25,1.89,8.1,1.26,15.94.74,23.62-2.26.84-.32,1.79-.32,3-.47-.58,3.26-2.58,4.68-4.84,5.26-3.89,1-7.89,2.1-11.84,2-9.63-.26-19.25-1.37-28.93-1.84-10.99-.53-19.15,4.63-25.09,13.62-1.37,2.05-2.37,4.31-3.58,6.47.21.26.42.53.68.79,2.05-.84,4.21-1.47,6.05-2.58,6.26-3.68,12.26-7.79,18.62-11.26,5.16-2.84,10.99-2.53,16.62-1.53,2.79.63,5.26,2.1,6.05,5.58ZM794.72,870.01c.37.16.74.32,1.1.53,77.49-60.23,111.89-138.93,101.21-237.88-5.37,2.21-7.73-1.37-10.26-3.84-1.89-1.84-3.31-3.37-6.1-2.42-3.16,1.05-2.26,3.68-2.74,6-.84,4.21-1.58,8.63-3.52,12.36-1.16,2.26-3.42,3.84-4.42,6.79-2.68,8.05-7.89,13.47-17.15,13.31-.05.53-.21.89-.05,1.16,5.1,10.21,4.05,20.52.21,30.72-3.1,8.31-6.15,16.62-9.63,24.78-2.84,6.63,0,11.52,3.84,16.36.47.58.89,1.58.68,2.16-.16.47-1.32.89-1.95.84-5.79-.37-11.47-.63-17.31.16-3.95.53-8.15-.58-12.63-1,.32,1.16.58,2.05.79,2.95,1.37,5.47,1.58,11.31-1,15.99-1.79,3.26-2,6.52-3,9.73-.89,2.89-1.37,6-2.84,8.57-1.16,2-1.21,3.52-.53,5.47,3.1,9,2.58,17.83-1.68,26.3-2.74,5.52-5.89,10.89-8.84,16.31-2.1,3.89-2.21,8.1-2.1,12.47.11,6.47-.11,12.94-.53,19.36-.21,4.42-1.05,8.63-1.58,12.84ZM408.33,658.07c-2.05,41.93,6.15,81.54,24.41,118.99,18.36,37.61,44.61,68.75,79.07,93.9,0-1.32-.05-1.95,0-2.53,1.1-9.78,2.31-19.52,3.37-29.3.42-4.05.79-8.15.58-12.15-.16-2.53-1.58-4.68-4.26-6.05-6.47-3.37-10.99-8.68-12.52-15.83-1.21-5.52-.68-11.15,2.47-16.15,1.05-1.68,1.16-3.05-.05-4.68-3.42-4.63-5.37-9.89-6.21-15.62-.32-2.05-.89-4.21-3.95-4.16-1,0-2.21-1.05-2.95-1.89-1.95-2.42-3.37-5.47-5.63-7.52-3.58-3.16-5.63-7.05-6.68-11.42-1.37-5.68-1.42-11.42,1.84-17.1-1.1-.63-2.47-1.16-3.52-2.05-2.42-2.1-4.79-4.31-7-6.63-1.68-1.79-2.89-4-4.47-5.94-3.16-3.84-6.73-7.36-9.47-11.52-2.47-3.73-4-8.1-5.94-12.1-2,.32-4.1.84-6.26,1.05-5.89.47-10.63-2.31-15.36-5.31-7.15-4.47-11.47-10.63-13.31-18.89-.53-2.37,1.26-6.31-4.16-7.1ZM917.39,676.06c-1.16-13.89-2.31-27.25-3.37-40.61-.42-5.68-3.26-10.57-6.89-12.1-1.68,2.37-3.31,4.58-4.84,6.89-.53.84-.95,2-.89,3,.05,2.05.47,4.1.68,6.21.89,8.26,2.1,16.52,2.47,24.78.32,6.68-.11,13.41-.63,20.1-.68,8.84-.95,17.78-2.84,26.41-3.16,14.47-6.63,29.04-11.57,42.98-4.73,13.36-10.78,26.41-17.73,38.82-7,12.52-15.15,24.51-24.09,35.72-7.79,9.78-16.99,18.62-26.3,27.09-8.89,8.05-18.78,15.1-28.2,22.57-.68.53-1.37,1.21-1.68,1.95-1.63,3.63-3.05,7.36-4.68,10.99-.84,1.84-1.68,3.84-3,5.37-2.1,2.31-4.58,4.26-6.94,6.37,3.37,6.47,6.63,12.84,9.89,19.15-.89.63-1.32,1.05-1.79,1.26-6.68,3.16-13.41,6.21-20.1,9.42-.89.42-2.05,2.05-1.84,2.63,1.37,3.47,3.05,6.84,4.63,10.15,13.52-5.89,26.3-11.57,37.98-19.67-6.15-10.21-12.15-20.04-17.99-29.67,13.31-9.73,26.62-19.52,40.19-29.46,4.47,5.05,9.36,10.52,14.31,15.99-.95,1.26-1.53,2.58-2.47,3.37-5.47,4.31-11.1,8.47-16.57,12.84-3.63,2.89-4.1,3.68-1.32,6.68,1.42,1.53,2.37,3.42,3.84,4.84.53.53,2.1.68,2.68.26,6.89-5.16,13.84-10.31,20.46-15.78,4.42-3.68,8.36-7.94,12.52-11.94,1.42-1.32,1.74-2.31.11-3.89-6.89-6.73-13.68-13.57-20.46-20.41-.84-.84-1.63-1.68-2.16-2.26,10.94-13.31,21.62-26.3,32.56-39.66,5.58,3.63,11.52,7.36,17.36,11.31.47.32.53,2.1.11,2.79-1.42,2.21-3.21,4.16-4.79,6.26-3.89,5.21-7.79,10.42-11.78,15.83,2.26,1.95,4.26,3.63,6.26,5.37,1.89,1.68,3.63,1.89,5.31-.32,5.37-7.15,10.94-14.15,16.15-21.41,3.37-4.73,6.15-9.89,9.26-14.94-9.15-5.37-17.78-10.42-26.41-15.41-4.16-2.42-4-2.63-1.79-6.73,4.26-7.89,8.42-15.89,12.31-23.99,2.63-5.42,4.73-11.1,7.15-16.78,7.31,2.63,14.31,5.1,21.31,7.63-.53,1.63-.84,3.05-1.37,4.31-2.58,6.1-5.21,12.15-7.79,18.31-.37.95-.68,2.84-.37,3,3.05,1.58,6.21,2.95,9.42,4.1.37.16,1.47-1.1,1.89-1.84,1.68-3.31,3.37-6.58,4.68-10.05,3.95-10.21,7.68-20.41,11.63-30.93-3.1-.95-5.42-1.63-7.68-2.31-8.05-2.47-16.15-4.89-24.2-7.36-1.53-.47-2.37-1.16-1.84-3.05,1.26-4.68,2.63-9.42,3.47-14.2,1.79-9.84,3.42-19.73,4.94-29.62.58-3.84,1.32-4.79,5.26-4.31,5.73.68,11.47,1.42,17.41,2.21,0,.89.11,1.63,0,2.42-1,7.79-1.95,15.62-3.05,23.41-.26,1.68-.21,2.42,1.63,2.68,3.26.53,6.52,1.32,10.15,2.1,1.16-7,2.53-13.62,3.26-20.31.95-8.36,1.42-16.83,1.89-25.25.05-.84-1.53-2.53-2.37-2.58-9.15-.37-18.31-.47-27.51-.63-1.37-.11-2.79-.05-3.89-.05ZM410.75,843.55c8.47,10.42,16.83,20.88,25.46,31.14,3.47,4.16,3.89,3.89,7.94-.05,7.15-7.05,14.36-13.99,21.25-20.67,11.99,10.26,23.72,20.25,35.67,30.46-4.16,6-8.47,12.2-12.78,18.41-7-5.26-14.05-10.52-21.31-15.94-2.53,3.16-5,6.15-7.73,9.57,4.31,3.47,8.21,6.84,12.36,9.89,6.37,4.73,12.84,9.31,19.36,13.84,1.32.89,2.95,1.74,4.26-.26,3.26-5,6.63-9.99,9.78-15.05,2.74-4.31,5.26-8.73,7.94-13.2,3,1.79,5.84,3.52,8.68,5.26.11-1.16-.26-1.79-.63-2.42-2.31-4.1-4.63-8.15-6.89-12.31-1.05-1.89-.84-4.1-3-5.84-10.78-8.52-21.88-16.78-31.62-26.41-10.26-10.1-19.52-21.41-28.56-32.67-8.42-10.42-15.2-22.04-21.09-34.09-8.05-16.41-14.47-33.56-18.99-51.29-2-7.89-3.37-15.94-4.73-23.99-.95-5.37-1.68-10.78-2.05-16.2-.53-7.52-.84-15.1-1-22.67-.16-6.47,1.89-12.89-2.42-19.15-2.42-3.42-2.89-8.15-4.31-12.47-3.16.32-3.47.89-3.52,6.31-.05,4.52-.89,5.42-5.21,4.89-5.73-.63-11.42-1.42-17.83-2.21.89-7.68,1.74-15.15,2.58-22.94-3.31,1.37-6.31,2.79-9.47,3.79-2.58.79-4.68,1.47-4.21,4.89.21,1.47-.42,3-.58,4.52-.68,8.1-1.32,16.2-1.95,24.25-.16,2.05.53,3,2.79,3,8.05.11,16.1.42,24.15.63,2.53.05,5,0,7.52,0,.68,20.73,1.68,40.98,6.79,60.65-.11.16-.16.32-.26.32-7.15,1.63-14.36,3.26-21.57,4.79-.37.05-1.26-.89-1.37-1.42-.58-2.89-.95-5.79-1.42-8.73-1.16-7.15-2.26-14.36-3.47-21.83-3.37.47-6.37.84-9.42,1.26-1.89.26-2.63,1.26-2.47,3.16.32,3.05.16,6.21.79,9.21,2.53,11.89,5.37,23.72,7.79,35.61.53,2.58,1.95,2.58,3.42,2.21,9.63-2.53,19.31-5.05,28.83-7.84,2.47-.74,3.16-.21,3.84,2.1,2.16,7.05,4.21,14.15,6.89,20.99,3.21,8.15,7.05,16.04,10.84,24.46-6.68,3.42-13.41,6.84-20.57,10.47-4.16-9.1-8.21-17.94-12.36-26.93-3.37,1.21-6.52,2.26-9.57,3.63-.58.26-.89,2-.63,2.84,3.89,13.57,10.94,25.67,18.04,37.77,1.05,1.79,2.42,1.68,3.79.95,8.79-4.89,17.57-9.73,26.2-14.89,2.05-1.21,2.37-.53,3.37,1,8.94,13.05,17.99,26.04,27.14,39.24-4.89,4.26-10.52,9.15-16.57,14.47-4-5.05-8-9.99-11.78-15.05-5.73-7.73-6.63-7.89-14.1-1.47-.58.37-1,.89-2,2ZM356.73,608.25c.53.21,1,.47,1.53.68.68-.89,1.37-1.79,2.05-2.68,3.79-4.68,7.36-9.57,11.42-14.05,7.1-7.84,15.15-14.62,24.15-20.25,11.78-7.31,23.3-15.31,37.51-17.36,4.42-.63,9-2,13.26-1.47,6.63.84,13.1,3.05,19.62,4.58,1.21.26,2.68.42,3.73-.05,5.52-2.37,10.99-4.94,16.47-7.47.37-.16.74-.47,1.1-.68,5.42-3.1,10.89-5.94,17.41-6,2.95-.05,4.16.89,3.31,3.84-24.93,4.47-37.51,21.41-44.66,44.14,9,6,18.67,8.05,29.09,4.84,9.47-2.89,16.73-9.63,24.51-15.36,6.37-4.68,12.84-8.73,20.52-11.15,10.26-3.21,20.31-2.53,29.98,1.21,6.26,2.42,11.94,6.26,17.94,9.31,10.42,5.31,21.04,9.36,32.98,4.47,5.84-2.42,11.63-4.63,16.2-9.36,6.42-6.68,9.31-14.99,11.99-23.57,1.05-3.21.32-4.94-2.74-5.84-.68-.21-1.37-.47-2.1-.53-4.58-.32-8.31,1.84-11.36,4.84-4.52,4.42-8.84,9.05-13.15,13.73-7.68,8.42-17.25,10.57-27.78,7.79-6.68-1.79-12.99-4.94-19.46-7.58-5.52-2.26-10.99-4.84-16.62-6.68-2.47-.79-3.58-2.16-4.47-4.21-.42-.89-1.21-1.89-2.05-2.31-2.95-1.37-6-2.47-9-3.73-7.21-2.95-14.31-6.84-22.41-2.63-.95.47-2.37.63-3.37.32-2.42-.84-2.42-3.16-.05-5.58,3.89-3.95,7.73-8,11.78-11.78,5.63-5.16,12.26-8.05,20.04-8.21,3.42-.05,6.84-.21,10.26-.68,5.05-.68,9.99-1.63,15.83-2.63-3.79-6.37-7.05-12.68-11.1-18.46-4.89-7-11.73-11.47-20.46-12.05-3.05-.21-6.37.05-8.68,2.89-1.53,1.89-3.16,3.68-5.1,5.89.84,1.74,2.21,3.95,3,6.37,1.74,5.37.63,10.73-1.47,15.62-3.79,8.89-9.47,16.25-18.99,19.83-3.58,1.32-7.15,2.53-10.78,3.68-8.05,2.63-16.36,3.21-24.67,2.79-8.94-.47-17.83-1.95-26.83-2.47-7.31-.42-14.68-.11-22.04-.05-.84,0-1.74.26-2.58.42-8,1.47-14.62,5.58-21.25,10.15-8,5.52-15.52,11.57-21.94,18.78-6.63,7.47-12.41,15.57-15.99,24.99-1.68,4.47-3.05,9.1-4.58,13.73ZM639.69,967.38c1.84.37,3.31.95,4.79.89,11.26-.37,22.46-.79,33.72-1.37.74-.05,1.95-1.42,2-2.21.05-2.37-.32-4.79-.58-7.21-.74-8.1-1.47-16.15-2.1-24.25-.05-.68.89-1.89,1.53-2.05,2.47-.47,5-.47,7.47-.95,11.63-2.16,23.2-4.42,34.93-6.68,1.79,6.42,3.47,13.05,5.52,19.52.79,2.47.32,2.95-2.1,3.37-6.42,1.1-12.73,2.58-19.1,4-1.63.37-2.58,1-1.84,3.21.95,2.95,1.21,6.15,1.79,9.52,1.79-.26,3.31-.26,4.79-.68,10.42-2.68,20.78-5.52,31.19-8.05,2.74-.68,2.84-1.63,1.95-3.89-1.21-3.16-2.1-6.42-3.1-9.63-2.21-7.1-4.47-14.26-6.68-21.36,6.26-2.37,11.99-4.52,17.78-6.68-1.26-.89-2.42-1.1-3.58-1.21-4.47-.37-8.94-.74-13.41-1.1-2.74-.21-5.47-1-8.1-.58-3.52.53-6.89,1.89-10.31,2.89-13.89,3.89-28.09,6.1-42.4,7.31-10.52.89-21.2.53-31.83.05-9.15-.37-18.36-1.16-27.41-2.68-11.63-1.95-23.15-4.79-34.72-7.21-1.05-.21-2.26-.05-3.26.21-7.05,1.84-14.05,4.21-21.57,2.58-.89-.21-2.68.84-3.16,1.79-1.21,2.42-1.79,5.1-2.79,7.63-1.47,3.79-3.1,7.52-4.73,11.31-1.84-.74-3.16-1.16-4.47-1.79-6.1-2.84-12.26-5.63-18.31-8.57-1.74-.84-2.53-.47-3.31,1.21-1.32,2.74-2.84,5.37-4.42,8.15,1.53,1.16,2.89,2.63,4.52,3.37,9.42,4.16,18.89,8.36,28.41,12.2,5.94,2.37,6.05,2.16,8.26-3.89,3-8.26,6-16.52,8.94-24.83.74-2.1,1.79-2.21,3.73-1.58,6.84,2.21,13.62,4.37,20.57,6.15,6.79,1.74,13.73,2.95,20.88,4.47-1,7.31-2,14.41-3.1,21.52-.05.47-1.53,1.16-2.16,1-8.05-1.68-16.04-3.47-24.36-5.31-1,3.89-2,7.84-3.26,12.73,13.94,2.68,27.14,5.21,40.66,7.84,1.63-12.36,3.16-23.94,4.63-34.88h43.5c.47,7.84.95,15.41,1.42,23.3-8.42,0-16.2.05-23.94-.05-2.05,0-3.1.53-3,2.79.21,3.21.11,6.37.11,9.68ZM524.59,640.29c-3.89-8.79-3-17.68.16-27.3-15.15,6.26-29.56,6.79-42.87-.37-14.1,4.21-23.83.05-30.09-13.05-1,1.74-1.42,3-1.84,4.31-1.63,5.42,1.26,9.47,4.21,13.36,8.31,11.2,14.78,22.99,12.41,37.61-1.42,8.63-3.79,16.94-9.63,23.78-2.68,3.16-3.79,6.42-2.42,10.57,2.74,8.31,7.26,15.31,14.1,20.78.53.42,1.21.74,1.47,1.26,2.89,5.31,6.52,9.1,13.05,10.47,7,1.53,13.36-3.05,12.41-10.21-1.37.16-2.79.53-4.1.37-7.42-.79-13.68-6.73-15.52-13.84-1.05-4.21,1.05-7.36,5.73-9.52,3.37-1.58,7.68-.32,9.57,3.1,1.68,3,2.58,6.37,4.05,9.47,3.95,8.36,8.47,9.94,15.73,3.1,2.16-2,3.52-5,4.73-7.79,2.21-4.94,4.05-9.99,6-15.05.37-1,.53-2.05.74-3-4.94-1.42-9.57-3.05-12.63-7.47-4.89-7.05-.95-21.41,5.94-25.62,2.74-1.53,5.58-3.16,8.79-5ZM508.49,483.36c2,.68,3.31,1.1,4.58,1.63,1.32.58,2.58,1.21,3.79,1.89,1.58.89,3.31,2.68,4.73,2.47,1.32-.21,2.31-2.53,3.42-3.89,5.42-6.52,12.73-5.31,19.83-4.79,1.68.11,3.37.74,4.94,1.37,5.89,2.37,9.99,7.05,14.2,11.57,5.84,6.26,8.42,14.1,10.47,22.15.26,1,.95,2.16,1.79,2.68,4.94,2.95,9.99,5.63,14.94,8.63,2.47,1.53,4.52,3.73,7.05,5.1,2.26,1.21,4.89,1.89,7.42,2.31,1.53.26,4,.16,4.68-.79,5.37-7.1,12.84-9.42,21.15-9.84,2.89-.16,6,.16,8.68,1.16,8.05,2.95,11.78,9.26,12.1,17.62.16,3.37.74,6.42,3.31,8.79.79.74,1.68,1.37,2.31,2.16,6.37,7.79,14.05,13.52,24.15,15.47,1,.21,2.16-.42,3.21-.68-.58-1.26.37-3.05-2.05-3.73-3.21-.89-6.42-2.16-9.31-3.84-6.15-3.58-9.21-9.57-12.05-15.89-5-11.05-4.84-22.67-3.89-34.3.53-6.26,1.32-6.21-4.84-6.31-6.68-.11-11.26-3.47-13.52-9.99-1.05-3-6.05-5.26-8-3.73s-4,3.1-6.1,4.42c-9.42,5.84-20.73,3.05-26.41-6.37-.42-.68-1.1-1.26-1.84-1.58-2.26-1-4.73-1.53-6.79-2.74-5.89-3.58-9.84-8.57-10.89-15.62-.21-1.26-1.53-2.84-2.74-3.42-7.31-3.52-14.89-6.47-22.09-10.26-5.68-3-11.57-6.15-14.1-12.78-4.21,1.32-6.94,3.95-8.94,7.31-3.16,5.37-5.37,10.94-2.74,17.31.95,2.31-.79,4.89-3.31,5.52-6.63,1.63-11.57,6-17.15,10.99ZM840.54,454.01c2-2.63,3.79-5.21,5.89-7.52,1.47-1.63,1.05-2.68-.37-3.84-3.52-2.84-6.94-5.89-10.63-8.57-6.21-4.58-12.52-9.1-18.94-13.41-.95-.63-3.63-.53-4.16.21-3.26,4.58-6.21,9.42-9.21,14.2-2.95,4.68-5.79,9.36-8.31,13.52-13.47-7.15-26.62-14.1-40.03-21.25,2.68-6.73,5.42-13.78,8.21-20.88,7.36,3.58,14.52,7.05,21.67,10.57,2.31,1.16,3.89.89,5-1.63,1.1-2.47,2.42-4.84,3.89-7.79-3.58-2.05-7.05-4.52-10.84-6.21-8.47-3.73-17.1-7-25.62-10.57-1.95-.84-2.84-.21-3.47,1.47-2.26,6.31-4.47,12.68-6.73,18.99-1.47,4.16-3,8.26-4.21,11.57-15.15-3.89-29.62-7.58-44.4-11.36,0-.16-.05-.79,0-1.42.89-6.47,1.74-12.99,2.79-19.41.11-.53,1.79-1.26,2.58-1.05,7.31,1.53,14.62,3.26,21.94,4.68.74.16,2.26-.84,2.53-1.58,1.05-3.16,1.79-6.42,2.74-9.89-13.31-4.16-26.67-6.52-40.4-8-.53,3.68-1,6.89-1.47,10.15-.84,6.15-1.89,12.31-2.42,18.46-.16,1.79.53,4.63,1.79,5.42,3.79,2.26,7.94,4,12.1,5.47,7.15,2.53,14.73,4.21,19.25,11.26.37.53,1.47.79,2.26.79,2.53-.11,5.05-.79,7.52-.53,7.89.84,15.36,3.37,21.78,8.05,5.37,3.89,10.05,8.68,15.52,12.36,6.68,4.52,13.78,8.31,20.78,12.36.63.37,1.47.37,2.21.42,9.21.47,17.15,3.63,23.72,10.26,5.26,5.37,10.68,10.63,16.36,15.52,4.47,3.84,9.52,6.89,14.2,10.47,3.95,3,7.31,3.1,10.94-.16,4.47-4,8.94-8.05,13.57-12.2,1.74,1.95,3.42,3.68,4.89,5.58,3.84,4.84,7.47,9.78,11.42,14.57.58.68,2.53,1.16,3.26.74,2.89-1.68,5.52-3.73,8.47-5.84-1.89-2.58-3.37-4.73-5.05-6.79-7.26-8.79-14.62-17.52-21.88-26.3-1.95-2.37-3.26-1.95-5.26.05-7.42,7.52-14.99,14.89-22.25,22.04-12.15-10.42-23.83-20.41-35.77-30.62,4-5.73,8.36-11.94,12.84-18.31,7.15,5.31,13.94,10.42,21.31,15.94ZM672.04,515.03c-.26.37-.53.68-.84,1.05,2.26,1.63,4.37,3.63,6.84,4.73,8,3.52,16.52,2.89,24.99,2.68,7.21-.16,14.41-.53,21.62-.47,2.16,0,4.68.68,6.42,1.89,3.31,2.37,6.68,2.42,10.21,1.26,6.05-2,12.1-4.1,18.1-6.21,9.47-3.31,19.31-3.68,28.77-1.42,9.52,2.31,18.99,3.1,28.67,3,9.47-.05,18.73,1.32,27.67,4.63,3.42,1.26,6.79,2.84,10.26,4,4.63,1.53,9.68,2.1,13.99,4.21,7.63,3.68,14.26,8.79,19.57,15.68,5.05,6.63,11.73,11.99,15.2,19.83.16.37.58.63.84,1,4.73,6.94,9.78,13.73,14.05,20.94,3.79,6.47,8.94,11.47,14.36,16.25,2.63,2.31,5.63,4.26,8.36,6.47,3.79,3,7.47,6.1,11.2,9.21.32-.11.68-.26,1-.37-.68-5.58-1.05-11.2-2.1-16.68-1.79-9.21-5.79-17.52-11.1-25.15-1.37-2-3.21-3.63-4.73-5.52-2.47-3.1-4.58-6.58-7.36-9.42-4.1-4.16-8.57-8-13.05-11.84-4.79-4.16-9.63-8.26-14.73-12.1-3.47-2.63-7.21-4.89-11.05-7-4.89-2.68-9.84-5.58-15.05-7.52-9.52-3.52-19.2-6.15-29.62-6.31-8.47-.11-16.89-2-25.3-3.1-9.47-1.21-18.99-1.95-28.14-5.1-7.21-2.47-13.52-6.26-19.36-10.99-3.1-2.53-6.15-6.05-10.68-3.47-7.26,4.16-14.78,4.84-22.51,2.26-8.63-2.84-16.99-2.16-25.15,1.21-6.73,2.74-13.15,6.1-19.78,9.1-6.89,3.21-13.99,5.1-21.57,3.26ZM550.05,757.44c.21,3.31.42,5.58.42,7.84-.05,1.95-.95,4.05-.47,5.84,1.47,5.63,3,11.36,5.26,16.73,4.31,10.21,8.89,20.36,15.99,28.99,6.1,7.47,12.15,14.99,18.78,21.99,4.37,4.63,9.36,8.79,14.57,12.41,3.16,2.21,7.15,3.89,10.94,4.31,3.63.37,7.47-1.05,11.15-1.89,4.58-1,8.89-.53,13.2,1.26,2,.79,4.21,2.42,5.94,2.1,5.84-1.21,11.36-1.1,16.83,1.42.84.37,2.26-.21,3.31-.58,4.26-1.47,8.47-3.31,12.84-4.58,3.73-1.1,8.26-.63,11.31-2.58,6.89-4.31,13.52-9.26,19.52-14.73,7-6.31,13.36-13.36,19.73-20.31,4.84-5.26,9.42-10.78,13.73-16.47,4.31-5.63,8.21-11.52,12.1-17.41.58-.84.68-2.53.32-3.47-1.47-3.52-3.26-6.89-4.94-10.31-.37-.74-.84-1.47-1.26-2.16-.63.79-1.42,1.47-1.89,2.37-6.89,13.36-16.47,24.67-27.35,34.93-10.47,9.84-20.88,19.67-31.35,29.46-1.63,1.53-3.47,3.05-5.47,3.95-8,3.63-16.31,6.37-25.15,7.36-9.68,1.05-19.36,1.16-28.88-.89-6.89-1.47-11.26-7.1-16.2-11.63-6.15-5.58-12.36-11.1-18.62-16.52-7.52-6.52-16.1-12.2-22.51-19.67-6.37-7.42-10.78-16.52-15.83-25.04-2.21-3.79-3.79-7.94-6-12.73ZM471.25,564.8c-3.37-.74-7.1-1.37-10.73-2.31-6.68-1.74-13.36-3.68-20.31-2.84-11.73,1.42-22.41,5.94-32.3,12.15-13.73,8.63-27.09,17.83-36.93,31.09-4.47,6-8.79,12.1-13.47,18.62,1.53.32,2.26.74,2.68.53,4.84-2.68,10.26-4.73,14.26-8.36,5.1-4.52,8.89-10.42,13.52-15.47,4.79-5.21,9.57-10.52,14.99-15.05,4.68-3.95,10.05-7.21,15.47-10.1,3.63-1.95,7.79-2.95,11.78-4.1,2.21-.63,3.26.89,3.63,2.84.42,2.31-1.47,2.68-3.05,3.1-4.37,1.21-8.57,2.74-11.99,5.94-3.42,3.16-5.05,8.52-3.73,13.05,2.53,8.52,8.63,13.47,16.31,17.04,2.84,1.32,5.73,2.79,8.15,4.73,5.31,4.31,6.94,10.68,6.89,17.04-.05,9.68-3,18.46-11.26,24.51-4.84,3.52-10.26,5.1-16.41,4-.05.47-.21,1-.21,1.58,0,.68,0,1.32.11,2,1.37,9.26,8.21,13.99,15.78,17.15,6.1,2.53,11.89,1.05,16.52-4.84,5.47-7,9.1-14.57,10.26-23.25,1.68-12.05-3.1-22.25-10.21-31.25-5.52-7.05-8.89-14.05-6.15-23.04.68-2.26,3-4.16,5.42-4.26,4.47-.16,6.73,2.37,8.52,6.05,2.63,5.42,10.05,8.26,15.89,6.26-3.16-3.21-5.58-6.94-10.15-8.47-1.89-.63-3.58-2.42-5-3.95-.63-.68-1-2.26-.74-3.16,1.32-4.1,2.68-8.21,4.52-12.1,2.42-5.21,5.21-10.05,7.94-15.15ZM743.48,531.71c-.26.37-.58.79-.84,1.16,2.05,2.31,4.21,4.63,6.21,7.05,5.16,6.15,8.89,13.05,10.73,20.94,1,4.21,1.53,8.84,3.68,12.36,3,4.89,3.89,10.1,4.79,15.36.84,5,1.89,6.89,7.05,7.52,4.16.53,8.36.53,12.52.68,3.16.11,6-.58,8.15-3.26,2-2.47,4.79-2.95,7.36-1.16,3.84,2.58,7.42,5.58,11.2,8.26,1,.68,2.37,1.53,3.42,1.37,6.31-.89,10.99,1.58,14.52,6.58,3.31,4.73,6.94,8.84,13.1,9.84,3.05.53,5.94.74,8.36-1.74-6.31-7.63-5.84-30.67,3.31-38.09-1.1-1.89-1.68-4.47-3.26-5.52-4.94-3.26-9.21-7.68-15.52-8.63-5.37-.79-10.57-2.58-16.2-1.1-4.47,1.16-9.1,2.31-13.68,2.63-3.63.26-7.36-.58-11.05-1.21-9.89-1.68-19.36-4.68-27.14-11.15-6.68-5.52-12.63-11.84-19.15-17.57-2.21-1.79-5.05-2.84-7.58-4.31ZM587.87,448.91c-.05.42-.11.79-.16,1.21,1.95.74,3.84,1.68,5.84,2.16,6.47,1.53,13.31,2.53,17.46,8.47,2.42,3.42,3.84,7.47,6.15,10.99,2.05,3.16,4.42,5.79,8.89,6,6.37.32,11.78,2.95,14.94,9,1.21,2.26,2.58,4.42,4.1,6.47,4.63,6.26,14.73,5.21,17.89-1.84,1.42-3.1,2.74-6.31,3.89-9.52,3.84-10.63,3.47-21.46,1.26-32.35-.16-.74-1.37-1.68-2.21-1.79-5.47-.84-12.2-6.52-13.62-11.84-1.05-3.89.11-7.47,2-10.84,1.05-1.89,1.26-3.47-1.74-3.37-.53,0-1.05-.16-1.63-.26-8.89-1.53-17.46-.37-25.46,3.58-6.1,3.05-11.94,6.68-17.73,10.36-6.68,4.37-13.26,9.05-19.88,13.57ZM749.84,527.5c3.68,3.42,7.05,6.58,10.42,9.78,4.26,4,8.36,8.21,12.78,12.05,4.47,3.89,9.42,7.05,15.41,8.26,4.68.95,9.26,2.58,13.94,3.16,4.37.53,8.89.26,13.36-.05,4.21-.32,8.42-1.95,12.57-1.63,7.47.58,14.83,2.21,22.25,3.37,8.57,1.37,16.36-.11,21.46-4.79-2.37-3.26-4.58-6.52-7-9.52-2.79-3.47-5.58-7-8.79-9.99-2.95-2.74-6.21-5.58-9.84-6.94-8.47-3.05-17.36-5.05-26.51-4.94-4.89.05-9.78.42-14.62-.21-7.73-.95-15.41-2.53-23.09-3.95-11.57-2.05-21.99,1.63-32.35,5.42ZM678.57,870.48c-.11.32-.21.58-.32.89.89.58,1.79,1.16,2.68,1.74,6.05,3.95,12.26,7.68,18.15,11.89,5.26,3.79,9.73,8.79,15.31,11.94,12.15,6.89,25.62,9.63,39.51,8.68,10.15-.68,18.78-5.68,24.78-13.73,6-8.05,9.57-17.62,10.73-27.67,1.1-9.63,1.26-19.36,1.37-29.04.05-6.79,2.37-12.68,5.52-18.36,1.79-3.26,3.84-6.37,5.58-9.63,3.37-6.26,3.73-12.94,2.63-20.15-.89.42-1.53.53-1.95.95-3.1,2.79-6.31,5.47-9.1,8.52-1.79,2-3.21,4.47-4.26,6.94-2.05,4.73-3.95,9.63-5.58,14.52-1.74,5.21-3.73,10.47-4.58,15.89-1.05,7.05-1.21,14.26-1.42,21.41-.26,8.26-3.58,15.31-7,22.67-2.89,6.26-8.36,6.31-12.94,6.21-5.21-.11-10.68-2.21-15.57-4.47-10.31-4.73-20.15-10.36-30.46-15.15-8.79-4.05-17.83-7.79-27.88-5.94-5.1.95-9.99,2.68-15.1,4.05,1,3.31,2.84,3.63,4.94,3.16,10.78-2.53,19.99,1.53,28.67,7.15,5.79,3.79,11.1,8.31,16.89,12.1,7.05,4.68,14.78,8.15,23.2,9,6.68.68,13.52.16,20.31.16,1,0,2-.32,3.26-.47-.74,4-3.58,5.94-6.47,6.58-10.05,2.16-19.73-.05-29.25-3.21-7.21-2.42-13.57-6.37-19.67-10.73-3.79-2.68-7.84-5.16-11.36-8.15-6.1-5.16-12.99-7.36-20.62-7.73ZM601.55,377.47c-3.05.47-5.58.68-8,1.32-9.31,2.47-18.62,5.21-27.99,7.52-2.47.63-2.79,1.47-2.05,3.58,2.31,6.79,4.68,13.52,6.84,20.36,1.16,3.58,1.95,7.26,2.89,10.78-10.26,4.1-20.2,8.05-30.62,12.26,2,3.68,3.73,6.94,5.31,9.89,9.78-3.84,19.2-8.21,28.99-11.26,10.78-3.37,21.88-5.52,32.88-8.26,4.26-1.05,8.84-1.58,12.78-3.37,11.68-5.37,23.46-7.94,36.03-3.31,4.94,1.84,11.68-2.42,12.84-8.21h-29.25c-.37-6.73-.74-13.52-1.21-20.25-.16-2.21.74-2.84,2.89-2.84,6.84.11,13.73.11,20.57-.05,1.05,0,2.79-.74,3-1.53.63-1.95.79-4.1.79-6.15.05-4.16-1.1-5.58-5.21-5.47-11.15.26-22.25.89-33.4,1.21-2.37.05-2.84,1.16-2.63,3.1.63,5.73,1.26,11.52,1.84,17.25.47,4.58.89,9.15,1.1,13.73.05.58-1.26,1.63-2.05,1.79-5.47.95-10.99,1.53-16.47,2.53-8.42,1.58-16.73,3.37-25.51,5.16-1.84-6.52-3.68-13.1-5.58-19.62-.63-2.21.11-3,2.37-3.42,7-1.32,13.94-2.95,21.2-4.52-.74-4.21-1.47-8-2.37-12.2ZM556.99,897.16c3.63-1.05,6.58-1.95,9.52-2.74,3.05-.79,6.37-.95,9.1-2.31,13.1-6.52,25.99-13.41,38.98-20.1,7.05-3.63,14.31-5.89,22.41-3.16,2,.68,4.47.11,6.37.11-.11-2.16-.16-3.95-.37-5.73-.11-.74-.42-1.84-.95-2.1-5.1-2.16-10.21-4.63-16.04-2.74-5.58,1.79-11.31,3.1-16.62,5.42-7.94,3.47-15.62,7.58-23.41,11.42-10.63,5.26-21.09,10.84-31.88,15.57-6.1,2.68-12.94,2.68-17.89-2.68-3.84-4.16-5.42-9.99-5.52-15.52-.16-9.47.95-18.99,1.1-28.46.05-5-.84-10.05-1.21-15.05-.53-6.89-3.58-12.26-9.21-16.2-3.68-2.58-7.63-4.94-10.99-7.89-2.26-2-3.79-4.89-5.58-7.31-1.79,2.89-1.1,9.63,2.16,12.73,3.16,3,6.84,5.63,10.57,7.84,4.68,2.79,8.57,6,10.05,11.42.32,1.16-.37,2.63-.58,3.95-1.26-.26-2.53-.47-3.73-.84-.47-.11-.84-.53-1.42-.95-.26.74-.53,1.26-.63,1.74-1.32,6.73-2.74,13.47-3.89,20.2-.68,3.84-1.32,7.79-1.32,11.68s.47,8.1,1.37,12.05c.74,3.47,1.47,7.36,3.63,9.94,4.26,5.1,7.89,10.89,13.99,14.47,5.52,3.26,11.31,5.68,17.57,6.37,13.15,1.42,25.2-2.16,36.3-9.26,11.15-7.21,22.41-14.2,35.35-17.31.26-2.79.47-5.21.68-8-.89.21-1.95.26-2.89.68-5.16,2.26-10.36,4.42-15.36,7-6.26,3.21-12.2,7.05-18.52,10.21-6.58,3.26-12.99,7-20.52,8-3.52.47-6.94,1.32-10.63-2.42ZM765.52,617.61c-.26.42-1.26,1.26-1.21,2.05.37,5.1.89,10.21,1.47,15.31.79,6.84,1.58,13.62,2.42,20.46.26,2.21.63,4.42,1.05,7.52,1.89-1.63,3-2.68,4.21-3.63,3.16-2.31,5.73-5.63,10.42-5.31,6.37.42,12.15,2.31,17.31,6.05,2.21,1.63,4.47,3.1,6.79,4.68,3.21-6.05,6-11.84,12.31-14.36,5.94-2.42,11.57-.84,17.1,1.89,4.42,2.21,8.84,4.58,13.52,6.1,4.89,1.58,11.2-.11,13.1-6.26-1.47,0-2.95-.21-4.26.05-4.84.89-9.1-.68-12.68-3.52-7.63-6-11.47-14.47-13.47-23.67-1.05-4.73-.95-9.68-4.94-13.36-2.42-2.21-4.58-4.73-8.79-3.79,2.74,9.26,4.47,18.25-4.1,25.67-.47-.53-.84-.84-1-1.21-.26-.58-.42-1.21-.53-1.84-1.42-6.37-4.63-11.73-9.47-16.04-1.37-1.21-2.89-2.74-4.89-.26-5,6.15-11.94,8-19.41,7.1-5-.58-9.73-2.31-14.94-3.63ZM755.95,566.32c-.21-1.68-.11-3.68-.74-5.37-2.79-7.68-6.15-15.1-12.52-20.62-.47-.42-.74-1.05-1.16-1.58-5.94-7.1-13.26-11.78-22.67-11.78s-18.73,1-28.14,1.16c-11.05.26-20.2-3.95-26.88-12.99-.47-.63-1-1.16-1.79-2.05-.37,3.37-1.21,6.1-.89,8.73,1.05,10.1,3.47,19.73,9.36,28.3,3,4.37,7.21,7,11.99,8.52,10.68,3.37,21.41,1.63,32.04-.37,8-1.53,15.73-.89,23.36,1.21,6.05,1.74,11.84,4.47,18.04,6.84ZM757.68,632.39c.74-1.79,1.21-2.37,1.16-2.89-.47-4.68-.32-9.52-1.68-13.94-4.21-13.68-13.2-23.04-27.14-26.67-9.73-2.58-19.83-3.84-29.67-6.15-5.1-1.21-10.05-3.16-13.41-7.73-.42-.58-1.63-.68-2.53-.79-10.05-1.21-18.94-4.79-25.99-12.36-2.1-2.26-4.37-4.42-6.89-6.94-1.58,4.58-2.63,8.47-4.31,12.1-2.95,6.42-6.26,12.73-9.47,18.99-1.16,2.21-.89,3.84,1.53,4.68,2.37.84,4.73,1.84,7.15,2.1,9.57,1.05,19.2,1.58,28.77,2.79,11.2,1.47,22.46,2.95,33.51,5.42,18.1,4.05,34.3,11.84,45.87,27.14.89,1.21,1.79,2.47,3.1,4.26ZM464.73,457.85c5.89-4.84,11.57-9.52,17.31-14.2,7.26-5.89,6.47-3.84,2.05-10.05-2.95-4.16-3.37-4.26-7.42-1.26-6.84,5.05-13.57,10.31-20.1,15.78-3.73,3.1-6.79,7.05-10.47,10.15-2,1.68-1.47,2.37-.11,3.79,6.37,6.31,12.73,12.68,19.04,19.04q3.58,3.63.74,7.52c-.16.21-.21.53-.42,1.1.89-.26,1.53-.42,2.1-.58,6.63-1.84,13.26-3.68,19.83-5.63.68-.21,1.16-.95,1.79-1.42,10.15-7.52,20.31-15.05,30.41-22.57,1.47-1.1,3.73-1.95,4.16-3.37,2-6.26,4.37-12.2,8.52-16.04-4.73-6.84-7.94-14.05-11.42-21.36,7.47-3.47,14.41-6.84,21.46-9.89,2.84-1.21,2.31-2.84,1.58-5-2.1-5.94-3.68-7.79-6.05-7.1-.42.11-.89.16-1.26.37-9.31,4.52-18.62,8.94-27.88,13.57-2.37,1.21-4.52,2.95-6.94,4.58,6.15,10.15,12.2,20.1,17.99,29.67-13.47,9.84-26.72,19.52-40.19,29.41-4.42-4.94-9.26-10.42-14.73-16.52ZM697.98,852.81c2.63.79,4.52.95,6,1.89,3.58,2.26,6.58,2,9.68-.89,4.84-4.52,9.89-8.84,14.83-13.26,2.26-2,4.58-4,6.84-6.05.42.32.84.63,1.26.89-.58,1.32-.84,3-1.79,3.95-4.26,4.42-8.73,8.63-13.15,12.89-1.63,1.58-3.42,3.05-5.05,4.63-.47.42-1,1.21-.89,1.68.53,2.1,7.79,4.52,9.42,3.1,6.58-5.58,13.52-10.78,19.46-16.94,10.05-10.36,20.2-20.73,28.2-32.88,4.42-6.73,9.31-13.15,13.89-19.78.74-1.05.84-2.58,1.21-3.89-.32-.11-.63-.21-1-.32-2.89,4.47-5.52,9.1-8.73,13.31-6.15,8.05-12.68,15.78-19.04,23.67-1.84,2.26-3.47,2.1-5.52-.42,11.2-15.47,25.99-28.56,31.77-47.71-1.05.58-1.95,1.37-2.58,2.26-2,2.74-3.79,5.58-5.94,8.21-.68.84-2.16,1.1-3.26,1.63.16-1.16,0-2.47.47-3.42,1.95-3.63,3.84-7.31,6.21-10.68,1.89-2.74,1.63-4.79-.58-7.05-2.42-2.47-4.58-5.16-7.73-8.73-7.79,18.78-18.2,35.46-30.77,50.76-12.63,15.68-26.46,30.09-43.19,43.14ZM662.05,894.1c-1.58,1.1-3.52,3.1-5.89,4-8.73,3.26-22.25,2.05-27.62-8.68-1.21-2.42-2.68-2.47-5.05-2-6.68,1.42-12.84,3.89-18.62,7.42-6.21,3.79-12.36,7.58-18.83,11.52,13.57,4.89,44.08,9.26,66.97,9.31,22.78.05,61.44-5.42,65.76-9-4.47-2.79-9.26-5.31-13.62-8.52-4.37-3.21-8.21-7-12.41-10.68-.53.74-.84,1.16-1.16,1.58-4.94,7.21-8.94,9.68-16.31,7.94-4.21-.89-8.47-1.84-13.2-2.89ZM778.99,460.59c-1.37-.95-2.05-1.42-2.68-1.89-6.52-4.52-13.2-8.84-19.52-13.57-6.31-4.73-12.2-9.94-19.67-13.1-9.36-3.95-19.57.47-23.15,6.05-2.89,4.52-5.05,9.94-6.15,15.26-1.95,9.26-2.84,18.73-4.16,28.09-.26,2-.42,4-.68,6.73,1.53-1,2.53-1.63,3.42-2.31,4.84-3.79,9.68-7.52,14.41-11.36,5.94-4.79,12.68-6.63,20.25-5.52,2.16.32,4.37.53,6.52.68,7.58.58,14.57-1.84,21.52-4.42,3.16-1.16,6.21-2.89,9.89-4.63ZM523.28,512.56c-18.41-8.15-36.51-9.21-54.6-4.58-17.73,4.52-34.35,11.68-47.61,26.3h2.95c14.41.63,28.83,1.37,43.24,1.84,10.89.37,21.78.47,32.19-3.47,6.58-2.47,13.26-4.79,17.68-10.73,2.16-2.95,4.05-6.15,6.15-9.36ZM532.74,793.84c-2.84,1.21-4.37,3.68-3.58,5.73,2.63,6.89,4.84,13.94,8.1,20.52,3.21,6.47,7.05,12.78,11.31,18.62,4.21,5.73,9.52,10.68,13.94,16.25,4.73,6,10.52,10.68,16.89,14.73,1.84,1.21,3.63,1.68,5.52-1.1-1.1-.89-2.16-1.63-3.16-2.53-4-3.73-8-7.42-11.84-11.31-.84-.89-.89-2.58-1.32-3.89,1.42.05,2.89.05,4.31.26.47.05.95.53,1.37.84,4.42,3.73,8.79,7.63,13.36,11.2,1.47,1.16,3.84,2.74,5.1,2.26,4.1-1.47,7.94-3.79,12.2-6-27.62-21.09-48.29-46.66-59.6-80.06-1,.79-1.53,1.89-2.26,2.84-.84,1.05-1.79,1.95-2.79,2.84-3.37,2.84-3.89,5.26-2.16,9.31,3.21,7.47,6.37,14.94,9.52,22.41.95,2.26,1.1,4.21-1.53,5.47-3.16-2.74-10.99-19.2-13.41-28.41ZM937.28,569.74c.16-.21.32-.42.53-.63-.37-1.26-.74-2.53-1.16-3.73-2.42-7.05-7.15-12.63-11.57-18.36-2.21-2.84-4.52-5.68-7.15-8.15-3.79-3.58-7.73-6.89-11.78-10.15-6.42-5.16-12.94-10.21-20.41-13.84-3.89-1.89-7.89-3.42-11.73-5.31-11.78-5.73-24.46-7.15-37.3-7.89-3.47-.21-7,.53-10.52.58-6.21.11-12.47,0-18.67.05-1,0-2,.11-2.95.16-9.99.68-20.1,2.05-28.99-4.58-1.21-.89-2.68-1.37-4.05-2-.26.37-.47.68-.74,1.05,2.05,2,3.95,4.26,6.26,5.89,2.74,1.95,5.73,3.47,8.79,4.84,3.79,1.74,7.68,3.84,11.68,4.47,13.05,1.95,26.2,3.26,39.35,4.79,6.21.74,12.57.63,18.52,2.26,11.89,3.21,23.72,6.37,34.72,12.52,12.1,6.79,22.67,15.26,32.77,24.57,4.05,3.73,7.79,7.73,11.73,11.57.79.68,1.79,1.26,2.68,1.89ZM868.89,564.64c2.95,1.79,6,3.16,8.47,5.26,3.84,3.31,8.05,6.63,10.73,10.84,6.21,9.78,11.47,20.2,17.41,30.14,4.94,8.21,11.05,15.36,19.99,19.52,1.42.68,3.37.26,5.05.37,1.84.11,3.79-.05,5.52.42,2.95.79,5.68,2.42,8.63,2.74,1.58.16,3.84-1.37,4.94-2.79,1.32-1.68.05-3.42-1.63-4.73-3.63-2.84-6.94-6-10.73-8.63-7.94-5.52-14.47-12.57-20.04-20.25-7.52-10.42-14.1-21.46-21.25-32.14-6.52-9.68-14.05-18.57-23.72-25.25-3.73-2.58-8.05-4.31-12.15-6.42-.21.37-.37.68-.58,1.05,7.42,6.37,10.89,16.99,22.73,19.36-4.94,3.95-9.1,7.15-13.36,10.52ZM694.66,503.51c.26.42.53.79.79,1.21,1.42-.37,2.84-.63,4.21-1.1,5.47-2,10.89-4.21,16.41-6.15,7.36-2.58,14.73-3.42,22.41-.63,3.16,1.16,6.84,1.53,10.21,1.21,6.37-.58,12.2-3,17.25-7,.84-.68,1.58-2.16,1.47-3.16-.16-1.84-1.05-3.58-1.58-5.37,1.74-.42,3.47-.84,5.21-1.26.42-.11.84-.16,1.26-.26,6.47-1.32,12.94-2.84,19.46-3.84,4.58-.68,9.26-.63,13.89-.79,2.47-.11,5,0,7.47,0,.05-.42.11-.79.16-1.21-2.1-2.1-3.95-4.58-6.42-6.21-5.1-3.42-10.84-5.1-17.1-4.73-7.79.53-14.57,4.05-21.67,6.73-7.52,2.89-15.31,4.37-23.41,2.74-6.79-1.37-13.41-.89-19.2,3.05-5.47,3.73-10.68,7.94-15.68,12.31-5.16,4.63-10.05,9.63-15.15,14.47ZM837.33,734.76c-.47-3.1-1.58-5.42-1.05-7.26,2.58-8.57,5.16-17.25,8.63-25.46,3.84-8.94,7.15-17.73,5.16-27.67-.89-4.42-2.16-8.73-6.15-11.31-4-2.58-8.42-4.52-12.47-7-6.37-3.95-18.62,2.47-17.36,11.26.84,5.68-1.26,10.47-4.52,14.94-.63.84-1.1,1.79-1.79,3,1.47.58,2.53,1.1,3.63,1.42,8.73,2.53,14.62,8,16.52,16.94,1,4.79.68,9.84,1.58,14.68.74,4.1,2.16,8.15,3.68,12.05.63,1.47,2.37,2.52,4.16,4.42ZM585.93,588.89c-.32-.95-.37-1.26-.58-1.53-.26-.32-.58-.68-1-.89-8-4.31-15.57-9.73-24.62-11.63-11.36-2.37-22.25-.47-32.04,5.84-6.94,4.52-13.36,9.73-20.04,14.57-5.26,3.79-10.78,6.89-17.41,7.52-3.42.32-6.89.79-10.63,1.26.53.79.68,1.58,1.16,1.79,3.21,1.58,6.42,3.31,9.78,4.52,8.73,3.16,17.68,2,25.99-1,8.21-2.95,16.1-6.79,23.09-12.41,7.31-5.89,16.62-6.05,25.51-6.79,6.84-.53,13.62-.84,20.78-1.26ZM768.68,698.05c-1.58,8.36-2.47,16.2-4.58,23.72-2.37,8.36-1,15.57,3.31,22.88,4.21,7.15,9.99,12.89,15.52,18.89,6.21,6.79,10.15,14.36,10.63,24.04,6.52-4.63,11.05-10.57,13.78-17.57,2.63-6.73.11-13.2-4.05-18.36-6.37-7.84-13.47-15.1-20.46-22.36-5.79-6-10.52-12.41-12.05-20.83-.58-3.26-1.32-6.52-2.1-10.42ZM510.44,794.63c.42-.05.79-.11,1.21-.11.47-1.32.84-2.68,1.42-3.95,1.79-3.89,3.26-8.1,5.63-11.63,5.58-8.42,13.15-14.78,21.57-20.25,3.84-2.47,6.37-8.47,5.26-12.84-1.32-5.37-2.89-10.68-4.37-15.99-.32-1.1-.89-2.1-1.47-3.42-1.53,1.37-2.63,2.79-4.05,3.58-6.21,3.42-12.84,6.15-18.67,9.99-10.63,7.05-18.83,15.99-16.25,30.2.79,4.52,2.1,9.15,6.15,12.31.89.68,1.37,2.05,1.68,3.21.74,2.89,1.26,5.89,1.89,8.89ZM561.62,553.43c.37.37.58.58.84.74,9.73,5.05,19.67,9.57,30.46,12.05,5.79,1.32,11.31.89,15.83-2.89,5.05-4.31,9.78-9.1,14.1-14.15,5.47-6.31,11.89-10.26,20.36-10.57.53,0,1.58-1.47,1.53-1.53-1.89-2.1-3.58-5.37-5.94-6-9.63-2.58-18.25-.26-25.04,7.42-1.68,1.89-3.26,3.84-5.05,5.84-1-.58-1.79-1.05-2.63-1.53-2.53-1.42-4.89-3.21-7.58-4.16-7.79-2.79-15.57-2.31-22.41,2.47-5.1,3.63-9.57,8.15-14.47,12.31ZM676.51,511.4c2.16-.53,4.21-.53,5.68-1.47,7.31-4.73,11.94-11.63,14.05-19.99,1.37-5.47,2-11.1,2.68-16.73.32-2.74.79-5.84-.11-8.26-2.37-6.47-7.52-10.84-13.31-14.31-2.53-1.47-5.31-2.53-8.05-3.47-2.31-.79-3.73.11-3.47,1.74.58,3.95,1.53,7.94,1.74,11.89.21,4.73.32,9.63-.47,14.26-1.63,9.52-5.37,18.31-10.78,26.3-1.21,1.84.11,6.63,2.31,7.31,3.21,1,6.58,1.84,9.73,2.74ZM760.73,606.78c1-3.95,2.42-7.26,2.58-10.68.47-7.94.26-16.15-6.73-21.62-3.84-3-8.79-4.58-12.94-7.26-8.36-5.42-17.78-5.05-26.78-4.05-8.26.95-16.41,2.68-24.78,2.37-.95-.05-1.84.16-2.84.26.68,4.68,2.16,8.31,6.73,9.84,2.58.84,5.05,1.89,7.68,2.53,9.73,2.31,19.57,4.16,29.2,6.79,7.47,2.05,14.57,5,19.25,11.99,2.26,3.31,5.31,6.1,8.63,9.84ZM700.87,454.33c.95-2.53,1.95-5.05,2.79-7.63,2.05-6.26,4.52-12.26,10.05-16.47.47-.37.53-1.89.16-2.58-2.47-4.94-7.42-6.26-12.05-7.94-5.05-1.79-10.31-3.16-15.15-5.47-2.63-1.21-4.52-4-7-6.31-1.1,2.05-2,4.21-3.37,6-3.16,4.26-7.58,6.94-12.15,9.47-4.1,2.26-6.21,6.21-5.58,10.63.32,2.31,2.31,5.47,4.31,6.21,3.42,1.26,7.42.68,11.1,1.37,4.26.79,8.73,1.53,12.52,3.37,4.94,2.58,9.31,6.05,14.36,9.36ZM837.7,622.08c-.11.74-.42,1.42-.21,1.95,1.05,3.16,1.89,6.42,3.42,9.31,2.53,4.89,5.21,9.26,10.21,12.73,8.52,5.84,22.88-3.68,22.41-12.31-.16-2.68.16-5.52.89-8.1,1-3.79,4.47-5.42,7.79-6,3.31-.58,5.58,2.16,7.52,4.58,1.84,2.31,3.73,4.05,6.89,3.05,2.89-.95,5.58-4.94,5.68-7.79.16-4.31-1.89-7.68-4.05-11.15-2.63-4.16-7.52-6-12.1-4.52-7.42,2.37-12.63,8.05-18.78,12.31-6.26,4.31-12.36,8.79-20.52,8-3.1-.37-6-1.32-9.15-2.05ZM777.99,815.41c-14.2,18.57-29.93,35.56-48.34,50.29,2.42,1.53,4.16,2.63,5.94,3.68,7.52,4.31,15.1,8.36,24.25,7.84,4-.21,6.63-2.05,8.05-5.47,3.1-7.63,4.84-15.57,4.94-23.83.11-11.1.47-22.09,5.16-32.51ZM536.53,832.82v14.89c0,9.57.16,19.1-.05,28.67-.21,9.36,10.15,12.68,16.41,9.84,5.31-2.42,10.73-4.63,15.99-7.15,2.68-1.26,5.16-3,7.94-4.68-16.78-11.1-28.14-26.46-40.3-41.56ZM786.46,687.16c3.05,2.31,5.68,4.84,8.84,6.47,2.42,1.26,5.47,1.37,8.26,2-.26-2.26-.47-4.58-.74-6.84-.05-.42-.47-.79-.47-1.21-.05-1.53-.53-3.42.16-4.58,1.68-2.95,3.95-5.52,6.05-8.36-.79-.47-1.21-.63-1.53-.89-.32-.26-.63-.63-.79-1-3.1-6.84-8.94-9.99-15.73-12.26-9.73-3.21-14.47,2.21-18.04,9.21-.21.42,0,1.26.32,1.79,3.16,6,3,12.63,2.53,18.89-.47,6.79-.26,13.31,1.74,19.78.26.84.89,1.53,1.58,2.58,1.63-8.94,1.32-17.99,7.84-25.57ZM829.91,736.55c-1.89-3.58-3.73-5.89-4.37-8.52-1.26-5.37-2.37-10.89-2.63-16.36-.32-7.47-1.79-14.1-8.89-18.04-1.1-.63-2.31-1-3.47-1.47-.16,1.1-.16,2.21-.47,3.26-.68,2.31.32,6.42-3.1,6.26-4.94-.21-10.31.26-14.57-3.58-1.26-1.16-3.1-1.68-4.84-2.53.21,2.74.37,4.84.53,7,.47,5.58,3.42,9.94,7.36,13.36,5.84,5.05,12.47,9.26,16.04,16.52.47,1,1.84,2,2.95,2.16,4.89.74,9.78,1.21,15.47,1.95ZM526.85,626.19c.37.16.74.26,1.05.42,1.58-2.53,3.37-4.94,4.63-7.63,5.1-10.73,14.1-14.73,25.3-14.78,7.05-.05,13.78,1.47,20.62,3.05,5.79,1.37,12.1,1.21,18.15.95,7.79-.37,13.99-4.94,20.04-9.36,3.42-2.47,6.42-5.52,9.57-8.31-.26-.32-.47-.68-.74-1-.68.16-1.42.26-2.05.53-5.79,2.53-11.89,3.52-18.2,3.47-1.26,0-2.58-.58-3.84-.47-5.31.53-10.57,1.32-15.89,1.79-8.36.74-16.73,1.58-25.15,1.95-8.21.37-15.36,2.95-22.04,7.89-4.94,3.68-8.36,8-10.05,13.78-.58,2.47-.95,5.16-1.42,7.73ZM891.51,597.36c-2.26-4.58-3.89-9.21-6.63-13.15-4.05-5.89-7.21-9.1-15.52-6.21-5.26,1.84-10.26,3.68-12.52,8.94-1.58,3.68-2.74,7.94-2.58,11.89.21,5.58,1.84,11.1,3.05,17.57,5.68-4.1,10.47-7.26,14.89-10.89,5.58-4.47,11.42-8.05,19.31-8.15ZM523.59,536.02c3.79,1.05,7.15,1.74,10.36,2.95,5.47,2.05,10.84,4.47,16.25,6.68,5.1,2.1,10.63.79,14.68-2.74,3.52-3.1,7.26-6,11.26-8.42,2.74-1.68,6-2.37,9.99-3.89-4.37-2.26-8.05-4.05-11.68-6-3.68-2-7.47-2-11.47-1.37-5.79.89-11.68,2.31-17.46,2.1-9.36-.32-15.31,5-21.94,10.68ZM401.81,640.34c1.47,2.74,2.31,5.16,3.84,6.94,1.53,1.79,3.73,2.95,5.63,4.42,3.47,2.79,14.52,3.52,18.25,1.1,3.95-2.58,7.84-5.21,9.15-10.15.79-3,1.79-6,2.16-9.1.47-4,.53-8.47-3-11.05-5.31-3.84-11.15-6.94-16.73-10.36,8.57,12.78-1.95,28.99-19.31,28.2ZM836.27,497.09c.16-.37.26-.74.42-1.1-2.37-1.79-4.84-3.47-7.15-5.31-8.57-7-18.15-10.73-29.35-9.73-1.95.16-3.95.32-5.89.68-6.84,1.26-13.62,2.63-20.41,4-1.95.42-2.42,1.68-.95,3.05,2.68,2.42,5.31,5.16,8.47,6.84,5.94,3.16,12.47,2.79,19.1,2.31,9.47-.68,19.04-.16,28.56-.26,2.42,0,4.79-.32,7.21-.47ZM603.71,613.56c-6.42.21-12.73.11-19.04.63-6.89.53-13.1,3.68-17.25,8.94-6.79,8.52-9.26,18.78-9.05,29.72.05,2.47,1.53,3.16,3.1,2.42,2.26-1,4.47-2.53,6.1-4.37,1.63-1.84,2.26-4.47,3.68-6.52,3.47-5.1,5.68-11.2,11.2-14.62,2.95-1.84,6.05-3.37,9.1-4.94,5.26-2.68,9.31-6.58,12.15-11.26ZM433.11,515.35c.21.32.42.63.63.95,3-1.47,5.89-3.1,8.94-4.37,6.68-2.84,13.31-6.05,20.2-8.05,5.89-1.74,12.2-2.16,18.36-2.95,9.84-1.26,19.67-1.37,29.3,1.68,3.21,1,6.52,1.58,9.78,2.58,1.68.53,2.53,0,1.79-1.53-2.74-6-5.79-11.42-13.36-13.05-8.21-1.79-16.31-2.31-24.41-.37-6.52,1.58-12.89,3.68-19.15,6.1-10.15,3.84-19.83,8.73-28.2,15.89-1.26,1-2.58,2.05-3.89,3.1ZM423.54,516.66c-1.37-1.05-2.42-2.31-3.79-2.84-2.68-1.05-1.89-2.63-.84-4.1,3.73-5.05,7.52-10.1,11.47-14.99,5-6.15,5.05-6.1-1-11.36-3.37-2.89-3.95-2.89-6.73.53-8.63,10.52-16.57,21.57-23.3,33.4-.79,1.37-1.16,2.37.74,3.37,4.68,2.53,9.15,5.42,13.73,8.1,1.16.68,2.47,1,4.16,1.68-2.21-4.63-.58-8.57,5.58-13.78ZM537.85,714.83c-.68-1.79-1.53-4.73-3-7.31-1.26-2.26-3.79-2.05-4.84.21-2.89,6.05-8.1,10.05-12.99,14.2-7.36,6.31-15.05,12.26-22.51,18.41-5.52,4.58-7.36,10.15-3.79,16.73.53,1,2.1,1.74,3.37,2,.42.11,1.53-1.42,1.84-2.37,1.74-5.58,3.89-10.78,8.36-14.89,6.63-6.1,14.52-9.84,22.67-13.26,5.63-2.31,10.26-5.79,10.89-13.73ZM585.24,457.22c-2,4.68-.26,9.26,1.53,13.57,2.16,5.37,7.05,7.58,12.1,9.57,1.89.74,4.21,1.79,5.16,3.37,3.1,5.26,11.26,9.15,16.83,7,2.74-1.05,5.16-3.1,7.68-4.73-.05-.37-.05-.68-.11-1.05-1.16-.21-2.26-.47-3.42-.63-1.79-.26-4.26.16-5.31-.89-3.05-3-5.73-6.42-8.26-9.94-1.42-2-2-4.63-3.47-6.52-2.31-2.95-4.79-5.63-9.1-6.21-4.47-.58-8.73-2.21-13.62-3.52ZM571.46,611.88c-1.16-.47-2-1-2.89-1.05-3.47-.32-7-.68-10.47-.68-8.47,0-15.57,2.84-19.94,10.63-2.16,3.89-4.37,7.79-6.15,11.89-.95,2.1-1.32,4.63-1.32,6.94,0,.95,1.89,2.89,2.26,2.74,3.26-1.21,6.94-1.05,9.63-4.1,4.42-5.05,9.05-9.94,13.99-14.47,4.58-4.1,9.68-7.73,14.89-11.89ZM678.04,891.16c3.79.68,6.42-1.58,8.31-5.42,1-2,.84-3.16-1.42-4-7.73-2.84-13.94-7.73-19.41-13.78-3.52-3.89-8-5.79-13.36-5.52-3.68.21-4.31,1.21-3.37,4.94,1.79,7,5.58,12.63,11.2,17.04,5.05,4,10.63,6.79,18.04,6.73ZM767.73,600.04c-.63,1.89-1.47,4.1-2,6.42-.16.68.32,1.79.84,2.42,4.37,5.1,10.31,6.58,16.57,7.21,5.84.58,11.84-3.1,14.36-8.31.79-1.63,1.95-3.05,3.16-4.89,5.58,5.58,10.68,10.68,15.83,15.83.37-.16.74-.32,1.05-.47-.89-2.79-1.53-5.68-2.79-8.31-2.37-5-6.68-8.47-10.94-11.78-1.42-1.1-2.58-1.53-4.63-.32-4,2.37-7.84,5.73-13.1,4.94-6.05-.89-12.05-1.79-18.36-2.74ZM592.45,693.21c4.26-.74,7.68-1.05,10.89-1.95,2.16-.63,5.42-1.68,5.84-3.21.95-3.37.47-7.15.47-10.73,0-.26-.58-.68-.95-.74-5-.84-10.1-2.47-15.05-2.21-4.47.26-8.79,2.68-13.26,4-3.1.89-3.68,3-3.21,5.79.21,1.16.26,2.42.68,3.52.26.79.89,1.89,1.53,2.05,4.52,1.37,9.1,2.47,13.05,3.47ZM412.44,602.36c-1.42.16-2.63.16-3.79.42-4.94,1.16-10.47,3-12.15,7.68-1.63,4.52-1.42,10.21-.42,15.05.95,4.47,5.1,7.68,9.89,7.73,5.16.05,8.84-3.37,11.52-7.63,1.26-2,.47-6.42-1-7.31-1.79-1.05-4.89.58-6.63,3.16-.47.68-1.89,1.32-2.68,1.1-.95-.26-2.21-1.26-2.37-2.16-.47-2.26-.16-4.47,1.79-6.26,3.63-3.31,7.68-4.26,12.52-2.63-2.37-3.21-4.52-6.15-6.68-9.15ZM483.08,745.71c.74-.84,1.21-1.16,1.42-1.63,3.16-6.21,8.42-10.52,13.62-14.78,8.05-6.63,17.41-11.73,24.04-20.04,2-2.47,3.73-5.37,4.79-8.36,1.47-4.1.21-7.94-2.47-9.52-3.79,10.89-7.47,21.94-21.78,21.94-.21,5.26-2.74,8.63-6.05,11.63-3.73,3.37-8.31,1.26-12.52,2-3.1,5.89-4.31,11.94-1.05,18.78ZM535.58,649.12c-6.21-1.74-12.52-3.42-17.99,2.31-3.31,3.47-5.63,7.42-4.94,12.26.58,4.1,4.47,4.68,7.68,5.47,5.58,1.42,11.26-1.53,12.52-6.58,1.1-4.42,1.84-9,2.74-13.47ZM553.31,447.01c0,.32.05.68.05,1,2.79.79,5.52,2.05,8.31,2.26,9.31.74,17.62-2.16,25.25-7.36,6.21-4.26,12.52-8.26,18.83-12.41-.11-.26-.21-.53-.32-.79-18.1,3.63-35.67,8.79-52.13,17.31ZM656.89,890.53c-3.31-4.47-6.52-8.89-9.78-13.2-.47-.63-1.26-1.53-1.89-1.47-4.42.32-8.89.63-13.26,1.37-.89.16-2.31,2.05-2.16,2.95.68,4.21,3,8.05,6.52,10.1,6.84,4,14.05,3.89,20.57.26ZM810.76,753.81c.26-.05.58-.16.84-.21.16-2,.84-4.1.47-6-1.58-8.1-5.31-15.15-11.47-20.78-4.84-4.47-9.84-8.79-15.1-13.41-.11,6.58,2.47,12.15,6.15,16.94,5.37,7,11.47,13.36,17.15,20.04.84.95,1.32,2.26,1.95,3.42ZM544.16,763.38c-1.63.95-3.1,1.42-4.16,2.42-4.84,4.58-9.89,9.05-14.31,14.05-5.26,6-7.94,13.2-7.79,21.25,0,.89.84,1.79,1.26,2.68.68-.74,1.58-1.32,1.95-2.16.95-2.37,1.42-4.94,2.53-7.26,3.68-7.42,10.63-11.89,16.25-17.52,3.63-3.58,5.37-7.58,4.26-13.47ZM541.74,667.85c2.68-2.05,5.68-4.16,8.42-6.52,2.68-2.37,3-5.63,3.16-9.15.26-5.37,1.42-10.73,2.21-16.1.11-.79.21-1.63.42-3.26-1.79,1.26-3.1,1.89-3.95,2.89-2.63,3.05-5.47,6.05-7.47,9.52-3.89,6.79-8.57,13.68-2.79,22.62ZM759.79,742.08c-2,4.89-4.63,9-5.1,14.26-.42,4.94,1.1,9.1,2.84,13.36.37.89,1.42,1.95,2.26,2,.68.05,1.68-1.16,2.16-2,1.79-3.37,3.47-6.73,5-10.21.63-1.47,1.42-3.68.84-4.84-2.26-4.1-5.05-8-8-12.57ZM868.63,490.15c-3.16,2.89-5.79,5.16-8.31,7.52-1.79,1.68-.53,2.63,1,3.26,4,1.63,8.05,3.1,12.05,4.68,3.21,1.32,6.37,2.79,9.57,4.16.21-.21.37-.47.58-.68-4.89-6.15-9.73-12.36-14.89-18.94ZM389.66,606.93c-2.95,3.37-5.94,6.52-8.57,9.94-.95,1.26-1.53,3.05-1.58,4.63-.05,1.79.68,3.58,1.21,5.31,1.53,4.73,4.31,6.15,9.47,4.63-3.37-8.05-2.42-16.31-.53-24.51ZM393.24,547.86c-.53-.32-1-.58-1.47-.84-6-3.05-6.15-3.16-9.36,2.68-1.84,3.37-3.1,7-4.68,10.52.21.05.42.16.63.21,4.94-4.21,9.89-8.36,14.89-12.57ZM388.03,638.92c-5.16-.42-9.05-2.79-11.78-8-.47,4.21-.79,7.47-1.16,11.05,4.26.37,8.1.68,11.99,1,.32-1.58.63-2.68.95-4.05ZM534.16,700.73c.37-.11.74-.26,1.16-.37-.47-6.73-.89-13.41-1.42-21.04-1.95.84-3.63,1.1-4.58,2.05-1.63,1.58-.58,3.16.32,5.1,1.68,3.68,2.42,7.73,3.63,11.63.16.89.58,1.74.89,2.63ZM496.6,482c4.1,1.42,6.89,1.05,9.05-2.89,1.68-3.05,5-5.26,7.84-7.52,2.79-2.21,6-3.95,8.94-5.89.26-.21.21-.84.32-1.26-.21-.26-.47-.47-.68-.74-8.47,6.1-16.94,12.2-25.46,18.31ZM862.63,574.48c2.53-.79,5.68-1.79,9.31-2.89-5.58-3.26-10.89-4.79-16.83-3.84,2.42,2.21,4.73,4.26,7.52,6.73ZM395.6,599.2c.21.16.37.26.58.42,4.26-1.84,8.52-3.68,13.2-5.68-.21-1.95-.47-4.42-.84-7.42-4.52,4.42-8.73,8.57-12.94,12.68ZM486.24,692.47c-.42.05-.84.11-1.26.21-1.26,1.63-4.1,2.42-2.63,5.52,1.95,4.21,4.79,6.89,7.79,6.63-1.37-4.16-2.63-8.26-3.89-12.36ZM907.29,524.24c3.52,3.05,6.89,5.94,10.21,8.79.26-.16.47-.32.74-.47-1.58-2.63-3.05-5.42-4.84-7.94-2.37-3.26-2.89-3.21-6.1-.37ZM949.69,638.76h-11.89c.11.79.21,1.95.37,3.05,6.58.84,11.26-.58,11.52-3.05ZM621.02,685.26c.05-.32.16-.68.21-1-2.37-1.84-4.73-3.68-7.26-5.63.37,2.79.68,5.26,1.05,8.21,1.84-.53,3.95-1.05,6-1.58ZM579.3,453.43c-2.58,1.05-4.42,1.84-6.94,2.89,2.47,1.1,4.16,1.84,6.31,2.79.21-1.89.37-3.31.63-5.68ZM571.93,686c.84-4.52.47-4.84-3.68-3.52,1.26,1.16,2.31,2.21,3.68,3.52Z"/>
  <path class="st0" d="M750.37,660.91c.63,4-3.16,10.05-7.79,11.52-4.42,1.42-9.21,1.68-13.94,2.47,1.58,1.21,3.42,2.63,5.89,4.47-1.58,1.58-2.89,3.31-4.58,4.52-9.26,6.73-19.46,11.05-31.09,9.31-6.58-1-13.05-3.21-19.46-5.16-2.21-.68-4.16-2.21-2.84-4.52,2.84,1.05,5.37,2,8.63,3.21-1.05-4.1-2.84-7.26.63-10.57.68,1.47,1.32,2.53,1.74,3.68.95,2.53,1.21,5.63,2.89,7.42,1.53,1.63,4.52,2.1,7,2.63,7.68,1.74,14.89.26,21.67-3.73,4.94-2.89,5.26-8.21.42-11.2-11.68-7.26-29.3-5.21-39.09,4.42-.84.84-1.89,1.47-3.21,2.42.21-6.79,12.63-15.41,21.83-15.83,9.63-.42,18.52,2,27.14,7.89-3.05-4.84-5.94-6.84-15.1-10.47-5.84-2.31-11.89-2.16-17.68-.21-5.63,1.89-10.94,4.68-17.31,7.52,1.32-1.47,2-2.31,2.74-3,9.73-8.73,20.83-13.05,33.72-8.84,4.52,1.47,8.84,4.42,12.63,7.42,9.05,7.15,17.62,5.84,23.99-3.89.32-.32.58-.63,1.16-1.47ZM725.28,677.37c.21,2.05.37,3.68.58,5.68,1.53-1.1,2.68-2,4.26-3.1-1.79-1-3.1-1.68-4.84-2.58Z"/>
  <path class="st0" d="M653.31,751.18c-1.79.68-3.63,2.05-5.42,2-9.63-.32-13.62-3.52-15.62-12.47-1.68-7.63.26-14.83,2.26-21.94,1.63-5.84.63-11.52.47-17.25-.16-5.1.26-10.21.32-15.36.05-4.63,0-9.21.05-13.84,0-1.89.21-3.79.37-5.68.37,0,.79-.05,1.16-.05.68,2.05,1.84,4.1,2.05,6.21.63,5.84,1.26,11.68-.26,17.62-.89,3.68-.89,7.84-.16,11.57,2,10.52.74,20.57-2.42,30.62-1.58,5,1.26,13.47,5.47,15.26,3.1,1.32,6.73,1.42,10.15,2.05.42.05.84.16,1.21.26.11.37.21.68.37,1Z"/>
  <path class="st0" d="M687.88,784.63c-.58-1.26-1-2.1-1.42-3,3.63-.63,6.52,2,8.26,7.26-5.84-2.16-11.1.84-16.47,2.1-5,1.16-9.63,1.05-14.31-1.16-3.95-1.89-7.84-2.74-11.73.63-2.58,2.21-5.68,1.95-8.89.32-5.89-3.05-11.99-2.47-17.99-.26-6,2.21-11.99,3.26-18.04,0-.74-.42-2.16.53-3.31.74-.89.21-1.84.32-2.79.47.16-.95,0-2.1.53-2.74,1.26-1.58,2.74-3.05,4.31-4.31.37-.32,2.16.32,2.16.47-.11,3.63,2.84,3.47,4.79,3.31,5.84-.58,11.68-1.47,17.41-2.68,4.26-.89,8.31-.74,12.2.95,3.26,1.37,6.1,1.79,9.47-.16,5.1-2.89,10.36-1.05,15.47.63,7.1,2.21,13.78,1.26,20.36-2.58Z"/>
  <path class="st0" d="M751.95,653.17c-5.84,3.73-12.1,3.68-18.46,1.79-7.1-2.16-14.1-4.73-21.25-6.89-9.36-2.84-17.52,0-24.88,5.94-3.05,2.47-5.94,5.21-9.05,7.63-2.05,1.58-4.42,2.42-7,1.16,6.63-5.52,12.84-11.57,19.88-16.31,6.31-4.21,13.78-5.31,21.36-2.53,6.52,2.37,13.05,4.94,19.62,7.05,5.47,1.74,10.99,3.52,16.89,1.32.79-.32,1.79-.05,2.68-.05.11.32.16.58.21.89Z"/>
  <path class="st0" d="M657.1,803.94c-6.21-.53-11.57-1.21-16.94-1.37-3.1-.11-6.26.74-9.42,1.05-5.21.53-10.31.21-14.68-3.16-.68-.53-.95-1.68-1.37-2.53.95,0,2.05-.32,2.79.05,4.47,2.05,9,1.79,13.78,1.47,6.63-.47,13.36-.63,19.99-.11,7.63.58,14.99-.11,22.25-2.21.63-.16,1.21-.63,1.84-.63.95,0,1.89.26,2.84.47-.53.89-.79,2.31-1.53,2.58-3.89,1.37-7.84,2.58-11.84,3.52-2.79.63-5.68.68-7.73.84Z"/>
  <path class="st0" d="M673.57,776.37c-3.58,1.26-6.31.95-9.31-.05-3.1-1.1-6.68-2.79-9.63-2.1-4.31,1-8.15.53-12.36-.11-2.16-.32-4.68.74-6.79,1.68-5.52,2.47-9.63,2.89-13.52.63.95-.47,1.68-1.1,2.37-1.05,4.73.26,8.63-1.89,12.63-3.89,3-1.53,6.21-2.1,9.63-.42,1.1.58,3.05.58,4.16,0,4.42-2.31,8.31-2.05,12.52.63,2.89,1.79,6.26,2.84,10.31,4.68Z"/>
  <path class="st0" d="M611.39,747.86c1.1,1,2,1.47,2.31,2.26,1.26,3,3.05,4.42,6.52,3.21,4.73-1.63,9.68-2.31,14.47-.63,2.1.74,3.89,2.37,5.47,4.31-.58,0-1.26.21-1.74-.05-4.84-2.21-9.73-1.26-14.62-.21-2.26.53-4.79,1-6.94.53-4.21-.84-5.94-3.84-5.47-9.42Z"/>
  <path class="st0" d="M656.37,753.12c3.89-.63,7.84-1.16,11.73-1.89,2.31-.42,4.84-.63,6.79-1.79,1.37-.79,1.79-3.05,2.79-4.63.53-.79,1.26-1.47,1.95-2.16.37.84,1.1,1.74,1.05,2.58-.32,7.47-4.31,8.42-10.47,9.26-4.21.58-8.47.47-12.73.63-.37,0-.79-.63-1.16-1,.05-.32.05-.68.05-1Z"/>
  <path class="st0" d="M667.73,677.79c3.1,7.26,6.21,14.57,9.47,22.15-5.84-2.37-11.47-14.26-10.63-21.62.37-.21.79-.37,1.16-.53Z"/>
  <path class="st0" d="M645.16,764.22c4.05-.37,7.42-.68,10.73-1-.89,4.42-4.58,5.05-10.73,1Z"/>
</svg>