<?xml version="1.0" encoding="UTF-8"?>
<svg id="Layer_1" xmlns="http://www.w3.org/2000/svg" version="1.1" viewBox="0 0 1296 1296">
  <!-- Generator: Adobe Illustrator 30.1.0, SVG Export Plug-In . SVG Version: 2.1.1 Build 136)  -->
  <defs>
    <style>
      .st0 {
        fill: #fff;
      }
    </style>
  </defs>
  <path class="st0" d="M830.54,956.23c-5.41,13.17-10.66,25.87-15.9,38.61h-226.52c.86-2.62,1.66-5.14,2.46-7.71,2.95-9.16,6.05-18.31,8.84-27.58,1.29-4.28,1.87-8.73,2.78-13.12,1.34-6.59,2.68-13.23,4.02-19.81,1.29-6.37,2.57-12.8,3.91-19.17,1.34-6.64,2.68-13.28,4.02-19.97,1.39-7.02,2.78-14.03,4.18-21.05.16-.75.27-1.5.37-2.14-4.07.43-7.98,1.02-11.94,1.23-6.27.32-12.53.64-18.8.59-3.86-.05-7.71-.7-11.57-1.18-3.75-.48-7.44-.96-11.19-1.61-2.68-.43-5.36-.96-7.98-1.71-5.73-1.66-11.46-3.27-17.08-5.25-9.75-3.37-19.01-7.87-27.9-13.07-7.66-4.44-14.83-9.48-21.85-14.78-3-2.3-5.78-4.87-8.68-7.34-.05-.05-.05-.11-.11-.11-2.68-1.23-2.14-3.37-1.66-5.62,1.87-8.57,4.61-16.82,7.44-25.06,1.02-2.89,2.09-5.78,3.21-9,1.39,2.36,2.46,4.5,3.8,6.43,4.07,5.89,8.03,11.89,12.48,17.46,4.18,5.25,8.73,10.28,13.6,14.89,4.93,4.66,10.39,8.89,15.8,13.07,5.89,4.55,12.37,8.14,19.12,11.3,7.98,3.75,16.28,6.48,25.01,8.14,5.03.96,10.07,1.55,15.21,1.23,6.21-.37,12.42-.96,18.64-1.55,1.98-.16,3.96-.7,5.94-.91,1.07-.11,1.34-.7,1.5-1.45,2.25-11.09,4.44-22.17,6.69-33.26,2.41-11.78,4.82-23.56,7.23-35.34,2.2-10.76,4.39-21.58,6.64-32.35,1.77-8.46,3.59-16.87,5.3-25.33,1.82-8.78,3.59-17.51,5.41-26.29.27-1.45-.7-2.25-1.45-3.11-4.07-4.87-8.25-9.75-12.37-14.62-3.43-3.96-6.85-7.93-10.28-11.89-1.12-1.34-2.25-2.68-3.53-4.34-1.02,4.5-1.98,8.68-2.95,12.91-2.3,10.28-4.61,20.56-6.91,30.79-2.03,9.05-3.96,18.05-6,27.1-1.98,8.73-4.02,17.4-5.89,26.13-.32,1.55,0,3.32.21,4.98.43,2.95.91,5.89,1.61,8.78.37,1.45,1.29,2.78,1.98,4.23h-44.72c1.77-3.59,3.27-7.18,5.25-10.44s3-6.69,3.7-10.39c.96-5.14,2.03-10.28,3-15.42,1.02-5.14,1.93-10.34,2.95-15.48,1.34-6.75,2.73-13.5,4.02-20.3,1.23-6.21,2.36-12.42,3.53-18.64,1.07-5.68,2.3-11.3,3.37-16.92.91-4.93,1.77-9.85,2.62-14.73.75-4.07,1.5-8.09,2.3-12.16.91-4.66,1.87-9.26,2.62-13.92.11-.7-.75-1.61-1.34-2.3-4.12-4.87-8.25-9.75-12.37-14.57-2.95-3.43-6-6.8-8.94-10.23-3.43-4.02-6.8-8.09-10.23-12.1-2.14-2.52-4.39-4.98-6.53-7.5-3.11-3.59-6.1-7.18-9.21-10.76-2.03-2.36-3.96-4.82-6.16-7.02-1.66-1.66-2.46-3.7-3.11-5.78-1.93-6-3.96-12-5.46-18.1-1.23-5.03-2.09-10.17-2.68-15.37-.59-5.19-.96-10.44-.96-15.69,0-6.21.86-12.37,2.14-18.48,1.87-8.62,4.98-16.76,9.21-24.47,3.16-5.78,6.96-11.19,11.14-16.33,5.19-6.43,11.14-12.1,17.03-17.78,3.16-3.11,6.8-5.73,10.34-8.46.75-.59.96-1.07.8-1.82-2.52-12.32-4.98-24.69-7.55-37-1.77-8.46-3.59-16.87-5.3-25.33-.91-4.34-1.66-8.68-2.57-13.01-.27-1.18-.86-2.3-1.39-3.43-1.82-3.75-3.64-7.5-5.46-11.3-.27-.54-.43-1.12-.7-1.87.59-.05,1.07-.11,1.55-.11h40.54c.91,0,1.55-.11,1.87,1.23,2.52,10.98,5.25,21.85,7.82,32.83,2.14,9.21,4.18,18.42,6.27,27.63,1.02,4.5,1.98,9.05,3,13.71,18.1-5.09,36.52-6.91,55.16-5.3,18.42,1.61,36.15,6,52.75,14.89,1.82-2.84,3.64-5.78,5.57-8.73,6.8-10.5,13.55-20.99,20.35-31.54,5.52-8.51,10.98-17.03,16.44-25.6,3.91-6.1,7.82-12.26,11.73-18.31.27-.37.86-.8,1.29-.8,11.09-.05,22.17-.05,33.26,0,.11,0,.16.05.54.21-26.99,29.45-51.04,61.16-73.79,93.23,5.19,4.18,10.44,8.3,15.53,12.58.75.59,1.23,1.77,1.39,2.78.75,4.61.32,9.26-.7,13.76-1.55,6.85-3.48,13.6-5.25,20.4-.05.27-.27.54-.48.91-6.43-11.73-14.3-22.17-24.37-31.06-2.57,3.75-5.09,7.39-7.55,11.09-6.53,9.75-13.07,19.49-19.65,29.24-5.62,8.3-11.3,16.6-16.92,24.9-3.91,5.73-7.77,11.51-11.67,17.3-4.55,6.75-9.1,13.5-13.66,20.19-.96,1.39-2.25,2.62-3,4.12-.96,1.82-1.66,3.86-2.25,5.84-1.5,4.98-2.95,9.91-4.34,14.94-2.2,7.93-4.34,15.85-6.43,23.78-1.34,5.14-2.62,10.34-3.96,15.53-.48,1.82-1.07,3.64-1.29,5.52-.11.64.54,1.5,1.02,2.09,5.78,7.5,11.57,14.94,17.35,22.44,2.2,2.84,4.44,5.73,6.69,8.57.16.21.43.37.8.64.91-4.34,1.87-8.51,2.73-12.69,1.07-5.36,2.09-10.71,3.21-16.01,1.34-6.43,2.73-12.85,4.07-19.28,1.5-7.02,3.05-14.08,4.34-21.15.75-4.18.48-8.41-.21-12.58-.8-4.82-1.5-9.69-2.25-14.51-.27-1.66-.59-3.32-.91-4.98-.16-.8.11-1.34,1.07-1.34h49.43c-.37,1.66-.7,3.16-1.02,4.71-1.66,7.28-3.37,14.62-5.03,21.9-1.87,8.14-3.8,16.28-5.68,24.47-2.36,10.39-4.61,20.78-6.96,31.11-1.82,8.03-3.75,16.01-5.62,23.99-2.25,9.69-4.44,19.44-6.64,29.13-.11.54-.11,1.12-.32,1.66-.96,2.3-.32,4.12,1.18,6.05,5.84,7.44,8.62,16.33,11.09,25.22,1.23,4.5,2.25,9.05,3.11,13.66.59,3.11.75,6.27,1.02,9.43.27,3.64.7,7.28.59,10.92-.21,5.84-.7,11.73-1.23,17.57-.91,9.85-3.43,19.33-6.64,28.65-3.43,9.85-8.3,18.96-14.89,27.1-3.59,4.44-7.44,8.73-11.51,12.75-4.61,4.55-9.48,8.78-15.16,12.1-1.07.64-2.09,1.39-3.21,1.82-1.61.59-2.25,1.66-2.57,3.32-1.77,8.3-3.75,16.55-5.62,24.79-1.98,8.62-3.96,17.19-5.94,25.81-1.93,8.3-3.8,16.6-5.68,24.96-1.87,8.3-3.8,16.6-5.68,24.96-1.18,5.09-2.25,10.23-3.43,15.32-.54,2.46,1.18,6,3.7,7.71,1.61,1.12,3.21,1.61,5.19,1.61,8.14-.11,16.28,0,24.42-.05,4.5-.05,9.05-.16,13.55-.32,4.18-.16,8.3-.37,12.48-.64,4.87-.27,9.75-.59,14.62-.96,5.3-.37,10.55-.8,15.85-1.29,4.28-.37,8.57-.75,12.85-1.29,5.84-.7,11.67-1.45,17.51-2.2,4.34-.54,8.73-.96,13.07-1.61,5.09-.75,10.17-1.66,15.21-2.46,5.09-.86,10.17-1.61,15.21-2.57,5.09-.96,10.17-2.04,15.26-3.16,7.55-1.66,15.16-3.43,22.71-5.14.16-.05.32-.16.96-.43ZM647.18,538.95c2.25-3.48,4.34-6.75,6.43-10.01,4.77-7.39,9.53-14.78,14.3-22.17,6.59-10.17,13.17-20.4,19.76-30.63,6.64-10.39,13.28-20.83,19.87-31.22,2.09-3.32,4.23-6.59,6.32-9.85.32-.54.86-1.07,0-1.71-6.1-4.44-12.69-8.09-19.6-11.14-6.59-2.89-13.44-4.98-20.51-6.59-7.07-1.61-14.24-2.57-21.47-2.89-5.36-.27-10.71-.05-16.07.8-5.14.8-10.07,2.36-15.05,3.96-1.02.32-1.23,1.02-1.02,1.93,1.12,4.98,2.3,10.01,3.37,15.05,2.14,10.23,4.18,20.46,6.37,30.63,2.2,10.28,4.55,20.56,6.91,30.79,1.93,8.57,3.96,17.08,6,25.65,1.5,5.68,2.95,11.41,4.39,17.4ZM606.37,578.8c.75-3.64,1.45-6.96,2.09-10.28.32-1.77,1.07-3.59.8-5.3-.8-5.09-1.98-10.07-3.05-15.1-1.34-6.21-2.73-12.42-4.02-18.69-1.66-7.87-3.16-15.74-4.82-23.56-1.61-7.71-3.32-15.37-4.98-23.03-2.25-10.55-4.44-21.1-6.64-31.65-.37-1.77-.86-3.53-1.34-5.46-4.55,5.89-8.3,11.94-11.25,18.53-3.59,8.09-5.78,16.55-6.27,25.33-.32,5.46.21,10.98.54,16.44.37,5.68,1.82,11.14,3.48,16.6,2.68,8.89,6.69,17.24,11.41,25.22,3.75,6.37,8.3,12.16,13.01,17.83,2.41,2.89,4.82,5.84,7.23,8.73,1.29,1.39,2.46,2.78,3.8,4.39ZM680.33,738.22c-7.12,30.9-14.19,61.69-21.26,92.48,16.6-15.32,26.03-34.22,27.85-56.71,1.02-12.42-1.23-24.37-6.59-35.77Z"/>
</svg>