<?xml version="1.0" encoding="UTF-8"?>
<svg id="Layer_1" xmlns="http://www.w3.org/2000/svg" version="1.1" viewBox="0 0 1296 1296">
  <!-- Generator: Adobe Illustrator 30.1.0, SVG Export Plug-In . SVG Version: 2.1.1 Build 136)  -->
  <defs>
    <style>
      .st0 {
        fill: #fff;
      }
    </style>
  </defs>
  <path class="st0" d="M504.24,359.58c.2-.3.4-.7.6-1,1.5-5.2,5.8-5.9,10.2-6,5.7-.2,11.5,0,17.2-.1,6.5,0,13-.3,19.6-.2,12.9,0,25.8.2,38.7.2,16.9.1,33.8.6,50.7.2,16.6-.3,33.1-.1,49.7-.2,8.2-.1,16.3.3,24.5.3,27.8-.1,55.7-.3,83.5-.3,10,0,20.1.1,30.1.4,9.6.3,19.2,1,28.8,1.2,6.5.2,13,.9,19.5,1.7,5.6.7,11.2.9,16.8,1.6,8.2,1.1,16.3,2.5,24.5,3.8,5.1.9,10.3,1.6,15.3,2.9,5.1,1.3,10.4,1.8,15.5,3.5,4.2,1.4,8.8,1.8,13.1,3.1,10.2,3.2,20.3,6.8,30.4,10.2,7.3,2.4,14.4,5.3,21.3,8.6,8.6,4.2,17.2,8.6,25.7,13,3.8,2,7.5,4.2,11.1,6.5,7.4,4.7,14.7,9.5,21.7,14.9,10,7.6,19.6,15.7,28.5,24.6,6.8,6.8,13.3,13.8,19.2,21.3,4.8,6.1,9.7,12.2,14.1,18.5,4.7,6.8,9.4,13.6,13,21.1,2.9,6,6.4,11.6,9.2,17.7,3.3,7.1,6.2,14.4,9.2,21.7,1.8,4.4,3.6,8.8,5.2,13.3,1.2,3.5,2.1,7.2,3.1,10.8,2.3,8.4,4.6,16.7,6.6,25.1,1.2,5.1,1.9,10.4,2.8,15.7.7,4,1.4,8,2,12,.2,1.4-.1,3,.4,4.2,1.7,3.6,1,7.5,1.5,11.2.6,3.7.6,7.5.8,11.3.3,5.5.6,11,.8,16.5.2,5.1.5,10.2.3,15.2-.3,9.3-1,18.5-1.6,27.8-.3,4.4-.5,8.7-.9,13.1-.1,1.3-.8,2.6-1,4-.9,5.9-1.5,11.9-2.7,17.8s-2.8,11.7-4.3,17.5c-1.1,4.3-2.3,8.7-3.5,13-.7,2.6-1.5,5.3-2.4,7.9-1.7,4.9-3.3,9.8-5.2,14.6-2.2,5.7-4.5,11.4-6.9,17-2.1,4.9-4.3,9.7-6.7,14.4-3.5,6.7-7.1,13.3-11,19.8-4.3,7.1-8.7,14-13.4,20.8-3.6,5.3-7.6,10.4-11.7,15.3-5.4,6.4-10.9,12.7-16.7,18.7-5.6,5.7-11.5,11-17.4,16.3-8.4,7.4-17.4,14.1-26.7,20.4-9,6.1-18.4,11.3-28,16.5-7,3.8-14.3,6.8-21.8,9.7-4.5,1.7-8.8,3.8-13.3,5.5-3.1,1.2-6.4,2.2-9.6,3-9.1,2.3-18.2,4.6-27.3,6.8-4.4,1-8.9,1.4-13.2,2.6-6,1.7-12.2,1.3-18.1,2.7-5.7,1.3-11.4.9-17.1,1.2-23.5,1.3-47.1.1-70.6.7-47.1,1.1-94.2.2-141.3.6-11.6.1-23.3.3-34.9.3h-250.4c-4.3,0-8.6.2-12.9-.4-8.3-1.1-16.7-1.3-25-1.5-1.8,0-3.5-.9-5.3-1.2-1.7-.3-3.4-.5-5.1-.6-2.9-.1-5.9.2-8.6-1.6-.7-.5-1.8-.5-2.7-.6-5.8-.1-11.1-2.2-16.7-3.4-3.6-.7-7.1-1.7-10.7-2.7-3.7-1-7.4-2.3-11-3.4-2.9-.9-5.8-1.6-8.7-2.5-2-.6-4-1.1-5.9-1.9-6.1-2.5-12.2-5.1-18.2-7.8-3.7-1.7-7.3-3.6-10.9-5.4-4.2-2.2-8.5-4.4-12.6-6.8-4.9-2.9-9.7-6-14.5-9.1-4.9-3.3-9.9-6.5-14.6-10.1-6-4.7-11.9-9.7-17.6-14.8-8.1-7.3-15.9-15-23-23.3-5.8-6.8-11.4-13.9-16.8-21.1-5.9-7.8-11.1-16.2-16.1-24.6-5.2-8.8-9.9-17.8-14-27.1-3.8-8.6-7.5-17.2-10.9-25.9-2-5.1-3.6-10.4-5.1-15.7-2.9-10.9-5.9-21.9-8.4-32.9-2.4-10.4-3.8-21.1-4.9-31.7-1.4-13-1.8-26.1-1.8-39.2,0-11.4.8-22.9,1.7-34.3,1-11.4,2.6-22.7,4.7-33.9,1.6-8.6,3.9-17.1,6-25.6,1-4.2,2-8.3,3.4-12.4,2.2-6.8,4.5-13.5,7.1-20.2,2.5-6.6,5.1-13.1,8.1-19.5,3.4-7.2,7.1-14.3,10.9-21.3,3.1-5.6,6.3-11.2,10-16.5,5.2-7.7,10.6-15.3,16.3-22.6,7-9,15-17.3,23.3-25.3,5.6-5.4,11.2-10.8,17.5-15.4,5.1-3.7,9.9-7.9,15.1-11.5,8.7-6.1,17.5-11.9,27-16.8,2.4-1.3,4.6-3,7-4.3,2.6-1.4,5.3-2.5,8-3.7,7.1-3.3,14.2-6.9,21.5-9.7,10-3.8,20.2-7.1,30.3-10.5,1.7-.6,3.5-1.2,5.3-1.6,5.9-1.5,11.8-3.2,17.8-4.5,9.4-2.2,18.9-4.3,28.4-6.1,7.7-1.5,15.5-2.6,23.3-3.7,5.7-.8,11.3-1.3,17-1.8,2.7-.3,5.3-.9,8.1-.5,3.6.5,7.3-.3,11-.4,4.1-.2,8.2-.5,12.2-.6,6-.1,12,0,18.1,0,3.4,0,7.1,2.7,6.4,7.5-.3,2.5-2.3,3.6-4.3,4.3-3.4,1.1-6.7,2.3-10.4,2.4-1.9.1-3.8.8-5.7,1.2-2,.4-4,.7-6,1.1-5.6,1.1-11.3,2-16.8,3.5-7.9,2.2-15.6,4.8-23.3,7.5-5.8,2-11.5,4.2-17.1,6.7-5.9,2.7-11.6,5.9-17.3,9.1-4.6,2.6-9.3,5.2-13.6,8.2-7.6,5.2-15,10.6-21.8,16.8-5.6,5.1-11.3,10-16.6,15.3-5.1,5.1-10.1,10.4-14.8,15.9-5.7,6.6-11.3,13.2-16.5,20.2-5.3,7.1-10.1,14.6-14.7,22.2-4.6,7.7-8.8,15.6-13,23.6-1.9,3.7-3.4,7.6-5.1,11.4-.8,1.8-1.6,3.5-2.4,5.2-.7,1.6-1.4,3.1-2,4.7-2.3,6-4.6,12-6.8,18-1,2.7-1.5,5.5-2.4,8.2-1,3.2-2.2,6.3-3.3,9.4-.1.4-.2.8-.3,1.2-1.6,6.7-3.2,13.5-4.7,20.2-1,4.4-2.2,8.7-3,13.1-1,5.5-1.7,11.1-2.6,16.6-.5,3.3-1.1,6.6-1.5,10-.7,6.4-1.4,12.8-1.7,19.2-.4,6.9-.7,13.9-.4,20.8.4,7.4.1,14.9,1.4,22.3.7,3.8.4,7.7.8,11.6.9,8,1.9,16,3.1,23.9,1.1,7.1,2.6,14.2,3.9,21.3.8,3.9,1.6,7.8,2.6,11.6.6,2.5,1.6,5,1.7,7.7,0,1.1.7,2.1,1,3.2.3.8.5,1.7.7,2.6.1.6.1,1.2.3,1.8.7,2.7,2.4,5,2.3,8,2.1,2.6,1.6,6.1,3.1,8.9.9,1.8,1.4,3.8,2,5.7,1.2,3.5,2.2,7,3.6,10.4,2.3,5.8,4.5,11.6,7.2,17.1,3.8,7.9,7.9,15.7,12.1,23.4,4.9,9,10.7,17.4,17,25.4,2.7,3.5,5.2,7,8.1,10.3,5.6,6.4,11.1,12.7,17,18.7,5.1,5.2,10.5,10.3,16.2,14.9,9.3,7.5,19.5,13.8,30.4,18.8,4.1,1.9,8.3,3.3,12.4,5.1,4.3,1.8,8.7,3,13.1,4.4,2.3.7,4.4,1.6,6.8,1.4.4,0,.9,0,1.2.2,2.4,1.7,5.2,1.6,7.9,2,1.1.1,2.2.5,3.2.9.7.2,1.3.5,2,.6,5.7.8,11.5,1.5,17.2,2.2.8.1,1.7.1,2.4.4,3.9,1.4,8,1.6,12.1,1.8,3.9.2,7.9.9,11.8,1.4,1.2.1,2.4.3,3.7.3,6.2.2,12.4.3,18.7,1.1,6.4.7,12.8,1,19.3,1.1,8.8.2,17.6,0,26.4,0,7.7,0,15.3-.1,23,0,9.6.2,19-1.2,28.3-3,2.3-.5,4.7-1.7,6.6-3.1,4.3-3.1,8.6-6.4,10.8-11.4,1.3-3,2.2-6.1,2.9-9.3,2.2-10.3,1.8-20.8,1.8-31.2.1-46.3.1-92.6,0-138.9,0-2.6-.2-5.1-.1-7.6.1-1.6.5-3.2.8-4.8.1-.8.4-1.6.4-2.4,0-1.9-.2-3.9-.2-5.8,0-9.4-.1-18.8-.1-28.2,0-11.1-.1-22.3-.1-33.4v-16.2c.1-87.7.3-175.5.4-263.2,0-5.2-.6-10.4-2.4-15.3-2.6-7.1-7.5-12.3-14.1-15.9-6.8-3.7-14-5.8-21.7-7-6.2-1-12.3-1.2-18.5-1.5-.4,0-.9,0-1.2-.2-1.8-1.9-4.2-1.6-6.4-1.5-6.5.3-12.8-1.1-19.1-2.4-3.8-.6-5.4-2.4-6.7-6.2ZM791.84,968.78v-.1c8.8-.3,17.6-.5,26.4-.8,4.6-.2,9.2-.4,13.8-.8,7.3-.5,14.7-.9,22-1.7,8.9-1,17.9-2.1,26.7-3.4,6.2-.9,12.2-2.3,18.3-3.5,7.7-1.5,15.3-3.3,22.7-6s14.6-5.6,21.7-9.1c7.3-3.5,14-7.9,20.6-12.6,5.7-4,10.8-8.7,16-13.4,6.2-5.5,11.6-11.7,17.1-17.9,4.6-5.2,8.9-10.7,13.1-16.2,8.1-10.3,15.3-21.2,21.3-32.8,2.5-4.9,4.9-9.9,7.3-14.8,2-4.1,3.9-8.3,5.6-12.5,2.2-5.3,4.2-10.7,6.1-16,1.9-5.3,3.8-10.5,5.3-15.9,2-7.1,3.6-14.2,5.2-21.4,2.2-10.1,4.4-20.1,6.2-30.3,1.7-9.9,3.1-19.9,4.1-30s1.5-20.2,1.7-30.3c.2-8.7-.2-17.4-.4-26.1,0-1.5-.1-3.1-.3-4.6-.9-7.5-1.9-15-2.8-22.5-1.2-9.8-3.3-19.5-5.5-29.1-1.7-7.1-3.6-14.2-5.5-21.3-1.6-5.7-3.1-11.4-5.1-16.9-2.6-7.3-5.8-14.4-8.5-21.6-2.8-7.7-6.4-15-10.1-22.3-5.7-11-11.9-21.6-18.9-31.9-6.7-9.9-14-19.4-22.1-28.2-8.2-8.9-17-17.1-26.5-24.6-8.6-6.8-17.6-12.8-27.1-18.4-8.7-5.1-17.5-9.7-26.8-13.5-7.2-2.9-14.4-5.9-21.7-8.4-7.5-2.5-15.2-4.6-22.9-6.6-6.6-1.7-13.3-3.4-20-4.5-9-1.5-18.2-2.5-27.3-3.7-8.8-1.2-17.7-1.3-26.6-1.4-3.5,0-7,.3-10.4.2-6.9-.1-13.7.2-20.5,1-5,.6-10,.4-15,1.2-6.5,1-13,2.3-19.4,4.1-8.4,2.3-15.3,6.9-19.6,14.6-2.9,5.2-3.7,11-3.7,16.9.1,170.8.2,341.6.4,512.3,0,6.7.7,13.4,2.3,20,1.6,6.2,4.8,11.2,9.5,15.4,2.1,1.9,4.5,3.4,7.2,4.6,5.4,2.5,11.3,2.7,17,3.4,9,1,18.1,1.1,27.2,1.4,7.4.1,14.7,0,21.9,0Z"/>
</svg>