<?xml version="1.0" encoding="UTF-8"?>
<svg id="Layer_1" xmlns="http://www.w3.org/2000/svg" version="1.1" viewBox="0 0 1296 1296">
  <!-- Generator: Adobe Illustrator 30.1.0, SVG Export Plug-In . SVG Version: 2.1.1 Build 136)  -->
  <defs>
    <style>
      .st0 {
        fill: #fdfeff;
      }
    </style>
  </defs>
  <path class="st0" d="M1177.22,686.35c-6.09,0-11.5-.13-16.9,0-4.13.13-4.82-2.31-3.54-7.18h98.58c1.18,4.87.39,7.44-3.93,7.18-5.41-.26-10.71,0-16.41,0v157.11h20.44v7.7h-98.97c-.1-2.18-.2-4.36-.39-7.44h20.93v-78.49h-82.26v77.98h20.15c.2,2.95.39,5,.69,7.82h-99.66c-.1-2.18-.1-4.23-.29-7.05h20.84v-157.63c-5.31,0-10.81-.13-16.32,0-3.73.13-5.41-1.41-4.03-7.05h98.78c1.38,5,.2,7.18-4.03,7.05-5.21-.26-10.42,0-16.12,0v69.39h82.46c0-23.09,0-45.66,0-69.39Z"/>
  <path class="st0" d="M400.48,854.75c-34.89-.64-64.08-7.18-91.11-25.52-15.92-10.77-27.91-26.42-32.04-50.02-4.82-27.83,4.03-54.76,23-71.05,17.99-15.39,38.13-23.86,59.27-28.34,40.59-8.46,80.2-4.1,117.94,18.34,10.52,6.28,20.05,14.24,27.22,26.29,18.97,31.55,11.89,76.82-15.43,99.14-18.77,15.26-39.61,23.6-61.33,27.57-10.61,2.05-21.43,2.82-27.52,3.59ZM397.83,845.26c2.16,0,4.42.13,6.59,0,27.32-1.92,45.11-19.11,51.3-49.76,1.28-6.54,2.16-13.34,2.56-20.01,1.28-25.27-1.28-49.25-15.23-68.49-17.99-24.75-53.66-30.78-77.45-13.21-19.56,14.62-27.22,37.84-28.9,66.18-2.95,49.25,23.39,86.44,61.13,85.29Z"/>
  <path class="st0" d="M241.75,676.99v68.36c-4.23,2.82-5.31-.77-6.59-4.62-14.35-43.09-56.71-67.85-90.42-52.84-28.31,12.57-45.11,49.51-40.3,88.5,5.31,43.09,26.93,68.74,58.87,69,33.32.26,57.99-18.47,72.93-57.97.79-2.18,2.75-3.72,4.23-5.51.49.38.88.9,1.38,1.28v68.62c-3.34-1.54-6.59-1.92-8.94-4.1-11.5-10.39-21.92-14.36-35.48-2.95-12.88,10.65-28.8,9.36-43.93,8.85-26.54-.9-52.78-4.1-77.15-19.37-20.74-12.95-34.01-33.22-35.38-64.64-1.18-26.93,7.57-47.45,23.78-62.97,16.22-15.52,34.99-22.7,54.55-26.81,24.67-5.26,49.44-6.8,73.61,3.85,4.72,2.05,9.53,4.36,13.66,7.82,4.32,3.59,7.86,3.21,11.99-.26,5.11-4.1,10.42-7.7,15.82-11.29,2.06-1.28,4.32-1.67,7.37-2.95Z"/>
  <path class="st0" d="M979.38,676.86v68.49c-4.13,2.82-5.01-.77-6.29-4.62-15.14-43.61-56.71-67.72-90.62-52.71-27.81,12.31-42.95,44.76-40.39,86.19,2.36,37.19,21.82,65.54,50.12,70.41,33.51,5.64,65.26-12.95,81.08-55.15.29-.64.39-1.54.79-2.05,1.38-1.54,2.75-2.82,4.13-4.23.59,1.92,1.77,3.85,1.87,5.77.2,14.62.1,29.24.1,43.86v18.98c-3.24-1.03-5.9-1.41-8.16-2.82-5.9-3.72-11.6-8.21-17.59-11.93-1.57-1.03-4.13-1.67-5.31-.64-17.4,15.01-36.66,18.21-56.91,17.44-24.08-.9-47.96-3.59-70.76-15.13-16.51-8.34-30.66-20.78-38.13-42.84-11.3-33.35-3.34-68.74,20.34-90.42,15.92-14.49,34.1-21.55,53.07-25.65,24.87-5.39,49.83-6.93,74.2,3.85,4.72,2.05,9.53,4.49,13.66,7.95,4.23,3.59,7.57,2.82,11.5-.26,5.11-4.1,10.52-7.7,15.82-11.29,2.16-1.15,4.42-1.92,7.47-3.21Z"/>
  <path class="st0" d="M658.18,851.16v-7.44h27.32c-6.39-9.11-12.19-15.9-16.61-24.11-7.27-13.47-16.41-17.7-28.99-17.06-23.78,1.41-47.67.26-71.45.64-2.85,0-6.49,2.31-8.45,5.26-7.37,10.77-14.25,22.32-22.11,35.01h27.81v7.82h-59.66v-7.7c6.19,0,12.19-.26,18.08.13,3.83.26,6.19-1.41,8.55-5.26,32.43-52.07,65.06-104.01,97.6-156.09,5.5-8.72,5.9-8.72,11.7-.51,36.66,52.2,73.22,104.53,109.98,156.47,1.97,2.82,5.6,4.75,8.65,5,7.17.77,14.35.26,22.02.26.1,2.82.2,4.87.29,7.57-41.57,0-82.76,0-124.72,0ZM650.42,794.47c-15.23-21.29-29.49-41.3-44.13-61.82-12.88,20.78-25.16,40.79-38.23,61.82h82.36Z"/>
  <path class="st0" d="M549.48,505.26c31.94,20.01,63.69,32.96,97.6,15.13-10.42-12.31-20.74-24.62-31.06-36.94.29-.77.69-1.41.98-2.18,2.95,1.03,6.19,1.15,8.75,3.08,5.41,3.98,8.35.38,10.81-5,1.87-3.98,3.73-8.21,4.72-12.7,2.06-9.49,7.27-12.83,14.15-13.85,3.44-.51,6.68-2.31,10.22-4.62-4.91-.26-7.17-2.31-5.11-8.98,1.38-.13,2.85-.38,4.42-.64,8.16-.9,10.52-3.33,9.73-13.72-.49-6.67,1.77-13.85-2.06-20.52-1.77-3.08-1.08-8.72-1.67-14.24,1.97,0,4.82.13,7.76,0,4.03-.13,8.65.51,9.04,6.28.2,3.46-2.65,9.49-5.21,10.77-5.31,2.82-5.41,7.95-6.29,15.65,3.83-5.51,6.68-9.62,9.53-13.85,6,12.83,5.31,47.33-1.28,56.3,2.56.26,4.91.38,5.41.51,1.08,5.51,1.97,10.13,3.24,16.42,4.32-8.72,4.91-67.21,1.18-75.03,39.41-7.57,78.33-7.18,117.15-.51,0,8.46,0,16.16.1,23.98,0,.13,1.38.26,3.05.51-.29-4.62-.59-8.85-.88-12.57,2.95-1.92,5.5-3.59,7.96-5.13,2.06,1.54,4.52,3.21,7.57,5.51-1.38,12.44,1.97,27.32-7.76,37.96-3.24-5.13-7.47-10-6.78-18.21.1-.9-1.38-1.92-2.06-2.82-.79,1.15-2.26,2.31-2.26,3.46-.2,10.39-.29,20.91,0,31.42.2,6.28,3.64,8.21,7.96,7.7,6.88-.77,13.86-1.41,20.74-2.18.1.64.2,1.28.29,1.8-.88.51-1.77,1.54-2.65,1.54-25.26,1.03-39.81,20.26-48.06,49.12-1.77,6.16-4.13,9.62-8.85,10.9-6.19,1.8-12.38,3.85-18.97,5.9v12.57c4.13.26,7.96.51,11.89.9.29.77.59,1.54.88,2.31-1.77,1.41-3.44,4.1-5.21,4.1-9.83.38-19.66.38-29.49,0-1.77-.13-3.44-2.44-5.11-3.72.2-.9.49-1.67.69-2.57,3.44-.38,6.88-.77,10.71-1.15.29-2.82.49-5.39.79-7.95.39-3.85-.69-5.64-3.83-6.03-13.86-1.8-26.24-8.59-38.04-18.08-13.76-11.03-28.5-10.9-43.54-6.28-6.19,1.92-12.38,4.49-18.38,7.18-17.79,7.95-35.78,7.95-53.86,2.18-1.18-.38-2.26-.64-4.23-1.15,2.26,8.46,6.39,13.47,11.3,18.08,1.97,1.8,4.03,5.26,4.23,8.21.98,12.7,1.47,25.52,1.67,38.22,0,2.57-2.36,5.13-4.23,8.98v6.28h-11.11c1.77-4.1,2.75-7.05,4.23-9.62,9.24-16.42,6.39-36.94-6.88-47.84-10.52-8.72-21.13-17.19-28.01-31.42-2.36-4.23-4.03-8.85-5.9-13.47ZM699.36,479.22c-1.97,26.29,10.32,49.12,30.37,56.95,16.22,6.28,32.43,5.26,48.36-1.92,2.16-1.03,4.23-4.49,5.21-7.44,5.21-16.54,12.58-30.78,23.78-41.43.79-.77,1.28-1.8,2.75-3.72-11.5-6.93-23.1-.9-34.6-4.36v-64.64h-45.6v66.56c-10.52,0-20.25,0-30.27,0ZM634,501.54c9.63,13.21,14.35,14.62,20.34,6.93,4.42-5.64,2.16-13.6-7.47-25.78-4.23,6.16-8.35,12.31-12.88,18.85ZM706.14,419.84c2.16,11.16-1.47,24.5,6.88,33.35,8.65-8.98,4.13-22.19,6.59-33.35-2.75-1.54-5.01-2.82-7.37-4.1-1.67,1.15-3.64,2.44-6.09,4.1ZM667.62,466.78c-3.83,0-7.57-.38-11.3.13-3.15.38-4.03,4.1-1.47,5.64,6.09,3.59,6.49,11.03,8.35,17.57,1.08,3.98,2.06,7.95,3.15,11.93.39-.13.88-.26,1.28-.38v-34.89ZM816.71,424.84c.29,6.41.39,12.06.98,17.7.2,1.67,1.87,3.08,2.95,4.49,1.08-1.41,2.95-2.57,3.05-4.23.59-5.77.69-11.67.98-18.08-2.95.13-5.01.13-7.96.13ZM755.88,559.51c.29-4.75.49-8.72.79-12.83h-8.35c.2,4.62.29,8.59.49,12.83h7.08Z"/>
  <path class="st0" d="M838.14,488.97c27.13,0,47.86,27.06,47.86,62.46s-20.84,61.95-47.57,62.2c-26.54.26-48.06-27.83-47.96-62.59,0-34.63,21.13-62.08,47.67-62.08ZM840.6,544.12c8.85-12.44,16.81-23.6,24.77-34.76-5.9-7.95-15.33-12.95-24.77-12.44v47.2ZM870.87,586.83c5.6-8.85,9.63-19.37,9.83-32.06h-35.68c8.94,11.16,17.3,21.42,25.85,32.06ZM796.27,547.97h35.97c-9.24-11.54-17.49-22.06-26.14-32.83-6.09,8.98-9.53,19.88-9.83,32.83ZM835.98,496.15c-10.03.64-18.18,5.64-23.98,12.31,7.86,11.41,15.53,22.44,23.98,34.63v-46.94ZM880.8,548.61c-.59-12.95-4.03-23.73-9.53-31.94-8.65,10.9-16.9,21.29-25.36,31.94h34.89ZM864.48,594.52c-7.96-11.29-15.53-22.06-24.08-34.24v46.43c9.44-.64,17.59-5,24.08-12.18ZM805.31,586.31c8.45-10.65,16.71-21.16,25.26-31.81h-34.3c.2,12.95,4.03,23.47,9.04,31.81ZM811.01,593.5c6.68,7.18,14.74,12.18,24.28,12.44v-44.38c-.49-.26-.98-.51-1.47-.77-7.57,10.77-15.04,21.55-22.8,32.71Z"/>
  <path class="st0" d="M483.24,504.23c5.31-3.46,10.42-7.18,15.82-10.13,8.65-4.62,14.35,0,15.33,12.31.49,7.18.1,14.49.1,22.83-3.34-.26-6.29-.38-9.14-.64-2.75-.38-5.5-.9-9.24-1.54-.88,7.95-2.46,15.78-2.65,23.73-.39,14.49.39,28.99-.2,43.48-.2,4.49-2.56,9.75-5.11,12.83-2.16,2.57-6.09,2.69-9.24,3.85-.39-.64-.69-1.28-1.08-1.92.88-2.18,1.38-4.75,2.56-6.28,8.45-10.9,7.17-23.98,5.31-37.45-1.38-9.49-2.85-18.85-3.73-28.34-.2-1.67,1.77-4.1,3.15-5.64,3.34-3.72,7.17-6.93,5.8-15.01-8.16,14.11-20.15,18.73-31.55,24.37-5.7,2.82-8.26,7.57-7.67,14.62.79,9.36,2.46,18.47,3.64,27.06,9.24,1.41,10.52,5.51,6,17.06-6.39-8.34-14.74-13.6-14.74-27.57,0-6.8-.88-13.6-1.87-20.14-1.08-7.31.59-12.57,5.11-16.93,3.54-3.33,6.78-7.31,10.32-10.77,3.34-3.33,4.23-6.67,2.26-12.06-4.13-10.9-3.44-11.29,4.23-17.44,10.52-8.59,20.84-17.7,30.66-27.45,3.44-3.46,6.49-2.69,9.34-1.03,1.28.77,1.47,5.26,1.87,8.08.98,6.8-.98,10.39-6.29,13.21-6.98,3.85-13.17,10-19.76,15.13.2.64.49,1.28.79,1.8Z"/>
  <path class="st0" d="M677.54,525.01c18.77.13,33.51,19.88,33.51,44.76s-15.23,43.73-33.81,43.73-34.69-20.65-34.3-44.89c.39-24.62,15.53-43.74,34.6-43.61ZM679.41,530.27v31.94c6.19-7.7,11.3-14.11,17.69-22.06-6.39-3.59-11.6-6.54-17.69-9.88ZM671.75,571.56h-24.28c2.56,7.7,4.82,14.75,7.67,23.21,6-8.59,10.81-15.26,16.61-23.21ZM706.83,571.69h-24.18c5.9,7.95,10.71,14.62,16.81,22.96,2.65-8.34,4.82-15.13,7.37-22.96ZM700.54,546.17c-6.09,6.93-11.6,12.95-17.99,20.26h24.18c-2.46-8.08-4.62-14.88-6.19-20.26ZM679.02,607.35c6.19-3.59,11.4-6.54,17.49-9.88-6.29-7.82-11.4-14.11-17.49-21.55v31.42ZM674.99,607.35v-31.42c-6,7.7-11.01,13.98-17.3,22.06,6.39,3.33,11.6,6.28,17.3,9.36ZM675.28,530.39c-6.09,3.59-11.11,6.54-15.33,8.98,5.11,7.57,9.73,14.49,15.33,22.96v-31.94ZM654.45,544.25c-2.16,6.8-4.32,13.72-6.68,21.16h24.87c-6.49-7.57-11.7-13.6-18.18-21.16Z"/>
  <path class="st0" d="M582.31,518.34c-11.5-7.05-22.9-13.98-34.1-21.16-1.28-.9-2.56-3.46-2.75-5.51-.88-7.44-1.28-15.01-1.87-22.44-.29-4.1.88-6.54,4.23-6.54,5.6,0,11.3-.77,16.71.26,21.23,3.98,30.08,30.01,17.79,55.41Z"/>
  <path class="st0" d="M462.89,406.5c9.14,3.08,15.82,11.41,19.95,24.11,3.44,10.65,7.27,21.16,11.6,33.35-9.83,8.59-20.84,18.21-33.42,29.11,2.65-20.78,7.27-38.99.79-57.59-4.62,3.85-8.55,7.18-12.38,10.39,4.42-13.08,8.75-25.65,13.46-39.37Z"/>
  <path class="st0" d="M598.72,978.52c4.03-13.08,7.96-24.62,11.11-36.3,1.67-6.16,3.93-8.59,9.53-6.41-1.28,4.1-2.46,8.34-3.83,12.44-3.83,12.06-7.67,24.11-11.79,35.91-.88,2.57-3.54,6.41-4.82,6.16-2.06-.51-4.42-3.59-5.5-6.28-4.23-11.16-7.96-22.57-12.38-35.53-4.52,13.47-8.16,25.14-12.38,36.55-.88,2.44-3.44,5-5.31,5.26-1.47.13-3.83-2.95-4.62-5.26-5.41-16.16-10.52-32.58-15.73-48.99,5.31-2.69,7.57,0,9.24,6.03,3.24,11.67,6.98,23.21,11.2,36.68,4.42-13.34,8.16-24.88,12.29-36.17,1.08-2.95,3.73-5,5.6-7.57,1.67,2.44,4.03,4.49,5.01,7.44,4.23,11.41,7.96,23.09,12.38,36.04Z"/>
  <path class="st0" d="M495.91,966.33v16.42h35.19c.49.64.98,1.28,1.38,2.05-1.08,2.05-2.16,5.77-3.34,5.77-13.17.38-26.34.26-39.81.26v-55.15h42.36c.1,2.44.2,4.62.29,7.7h-35.97v14.62h32.93c.2,2.95.39,5.13.59,8.46-11.2-.13-22.02-.13-33.61-.13Z"/>
  <path class="st0" d="M797.75,970.44c4.13,6.67,7.86,12.7,11.99,19.24-4.62,2.05-8.26,1.67-10.52-3.72-6-14.36-15.63-17.7-27.13-15.26-.39.13-.79.26-1.67.64v18.85c-2.36.26-4.23.38-6.59.51v-54.51c11.5,0,22.9-.64,34.1.26,5.7.51,9.73,5.9,10.61,13.85.79,8.98-1.97,14.36-10.81,20.14ZM770.32,962.87c8.45,0,16.61.38,24.67-.13,3.93-.26,6.59-3.72,6.59-9.36s-2.75-8.85-6.78-9.11c-8.06-.38-16.22-.13-24.47-.13,0,6.54,0,12.44,0,18.73Z"/>
  <path class="st0" d="M722.36,991.73c-8.26,0-15.82-2.82-22.11-10-8.75-10.13-8.94-25.14-.59-35.78,11.6-14.88,34.6-14.88,46.1.13,7.86,10.26,7.67,25.78-.59,35.4-6.59,7.44-14.35,10.26-22.8,10.26ZM722.36,983.52c.29.64.49,1.28.79,1.92,5.6-3.46,11.79-6.03,16.71-10.77,5.9-5.64,5.7-15.01.88-22.06-8.65-12.7-28.31-12.44-36.76.51-4.42,6.67-4.23,14.62.59,21.03,4.82,6.67,11.01,9.11,17.79,9.36Z"/>
  <path class="st0" d="M422.89,933.37c3.64,2.44,6.78,3.59,9.04,6.28,10.42,12.18,20.54,24.75,32.14,38.73v-42.84h6.39v56.56c-3.73-2.18-7.17-2.95-9.44-5.64-8.85-10.13-17.4-20.91-26.05-31.42-1.38-1.67-2.95-3.21-5.31-5.64v40.79c-2.46.26-4.32.38-6.68.51-.1-18.6-.1-36.81-.1-57.33Z"/>
  <path class="st0" d="M413.75,587.98c-2.16-15.39,1.67-28.6,4.13-42.32,2.06-11.67,6.39-18.21,15.23-20.26,1.97-.38,3.73-1.8,5.6-2.82q9.83-5.51,5.9-18.08c-1.67-5.39-1.38-10.13,1.97-14.24,3.34-3.98,6.59-8.08,11.01-11.29-.69,4.23-1.67,8.34-1.87,12.57-.29,6.41-1.47,13.6.1,19.24,1.97,7.05-.39,10.13-3.44,14.49-4.82,6.93-10.32,10.52-17.59,11.41-2.95.38-6.59,3.98-8.16,7.44-4.52,9.62-6.88,20.26-5.5,31.81.69,7.05-1.87,10.65-7.37,12.06Z"/>
  <path class="st0" d="M823.3,935.55h5.5v28.22c7.96-6.67,14.64-12.57,21.52-18.08,6.68-5.39,12.48-13.98,22.7-9.49-8.16,7.31-15.92,14.11-24.37,21.68,7.47,10.65,14.84,21.03,22.61,32.19-5.41,1.67-8.94.77-12.19-4.36-5.11-7.95-10.91-15.13-16.32-22.57-9.14,5.13-17,11.03-13.27,27.06-2.46.26-4.13.38-6.29.64.1-18.73.1-36.81.1-55.28Z"/>
  <path class="st0" d="M530.9,602.09c-.39-13.34-1.97-26.16,8.16-34.76,1.67-1.41,2.95-3.46,4.42-5.26,5.8-7.44,5.9-11.41.79-20.01-1.08-1.8-2.65-3.72-2.95-5.77-.49-3.59-.1-7.31,0-10.9,3.64.38,7.47-.26,10.81,1.28,2.85,1.28,4.91,4.36,3.73,9.88-.88,4.1-.59,9.62.98,13.21,2.36,5.51.79,7.57-2.36,10.65-6.09,6.03-13.17,11.16-15.43,21.93-.39,1.8-.69,3.85-.29,5.51,1.67,6.8-.88,12.31-7.86,14.24Z"/>
  <path class="st0" d="M518.82,528.73c.59-11.8-1.87-23.09,3.73-33.22,1.87-3.46,3.15-4.36,6.59-3.59,11.99,2.82,16.22,14.88,19.85,25.65-9.73,3.59-19.66,7.31-30.17,11.16Z"/>
  <path class="st0" d="M619.75,508.46c-5.41,2.44-10.22,4.62-15.33,6.93-.59-23.34-2.36-45.02-25.06-48.1,6.49-8.08,16.02-8.98,22.51.26,5.9,8.46,9.93,19.11,14.55,29.11,1.57,3.21,2.16,7.18,3.34,11.8Z"/>
  <path class="st0" d="M641.28,935.94c5.41-1.8,8.75-.64,11.79,4.49,4.23,7.31,9.04,13.98,14.05,21.55,4.72-7.31,9.34-13.98,13.56-21.16,2.85-5,6.19-7.05,11.6-4.62-4.23,6.54-7.86,13.34-12.38,18.98-7.76,9.62-11.99,20.52-9.34,34.5-5.01,2.57-7.47,1.03-6.68-5.26,1.47-11.29-2.36-19.37-8.16-26.93-4.91-6.67-9.24-13.85-14.45-21.55Z"/>
  <path class="st0" d="M658.38,419.97c-5.9-4.1-11.79-8.34-17.59-12.44-.39.51-.79,1.03-1.18,1.54,6,12.18,11.99,24.37,18.08,36.94-6.88,1.28-7.47.64-7.37-7.44,0-.26,0-.64-.1-.77-7.47-11.67-9.34-28.99-21.62-35.91-8.35-4.75-16.81-9.75-24.87-15.39-6.19-4.36-10.52-11.16-12.19-20.39-1.57-8.98,2.75-15.65,9.14-12.57,6.29,3.08,12.58,8.21,17.2,14.62,6.09,8.46,10.32,19.11,15.63,28.47,1.77,3.08,4.42,5.64,7.08,7.7,6.19,4.87,12.48,9.11,18.77,13.72-.29.64-.59,1.28-.98,1.92ZM629.38,399.06c.59-.9,1.18-1.92,1.77-2.82-6-10-11.7-20.39-18.28-29.76-2.95-4.23-7.37-7.18-11.5-9.23-5.21-2.57-8.65,1.67-6.68,8.46,1.67,5.51,4.32,11.8,8.06,14.88,8.45,7.05,17.69,12.44,26.63,18.47Z"/>
  <path class="st0" d="M504.96,460.88c-6.59-1.28-9.73-7.57-12.09-14.49-2.36-6.8-4.23-14.11-6.49-20.91-5.31-15.9-14.25-24.75-28.01-23.86-.79,0-1.57-.13-2.36-.38-.49-.26-.88-.9-1.97-1.92,1.28-1.03,2.26-2.18,3.34-2.69,12.88-5.13,28.4,2.95,34.69,19.11,3.05,7.82,4.82,16.42,7.17,24.75,1.87,6.54,3.64,13.08,5.7,20.39Z"/>
  <path class="st0" d="M524.42,579.52c4.42,9.49,2.65,15.01-5.31,17.7,0-11.8-3.05-23.86,6.88-31.94,1.47-1.28,2.56-3.21,3.93-4.75,4.32-4.87,4.52-9.75.98-15.65-2.06-3.33-3.44-7.31-5.6-11.8,3.34-1.54,5.7-2.69,7.76-3.59,3.15,6.8,6.49,13.21,9.04,20.01.79,2.18-.2,6.03-1.28,8.46-.88,2.05-3.34,2.95-4.62,4.75-4.23,5.64-8.06,11.41-11.79,16.8Z"/>
  <path class="st0" d="M569.53,604.4c.59-1.67.88-3.59,1.77-4.87,5.41-7.44,7.27-15.9,5.11-25.91-2.26-10.77-6.68-19.62-14.35-24.88-4.03-2.82-4.52-5.77-2.26-10.26,6,4.62,11.99,9.11,17.79,13.98,1.28,1.03,2.46,3.33,2.75,5.26,1.47,8.34,2.95,16.67,3.83,25.14.29,2.95-1.08,6.28-1.87,9.23-.39,1.41-1.77,2.31-1.97,3.59-1.18,10.26-1.57,10.77-10.81,8.72Z"/>
  <path class="st0" d="M462.01,603.11c2.06-3.21,3.34-6.67,5.5-7.95,6.49-4.23,7.57-11.54,6.29-19.24-1.28-8.21-4.03-16.16-6.19-24.11-.79-2.69-1.77-5.13-2.95-8.59,3.93-2.44,7.57-4.75,12.09-7.7.49,6.67.98,12.57,1.28,18.34.49,10.13.69,20.26,1.28,30.4.2,3.98,1.08,7.95-2.95,9.62-.69.26-1.28,1.41-1.57,2.18-2.95,10.13-4.13,10.9-12.78,7.05Z"/>
  <path class="st0" d="M458.76,444.98c5.21,21.03-4.03,31.55-16.02,41.81.98-5.26,1.57-9.49,2.65-13.47,1.97-7.31,3.93-14.75,6.68-21.55,1.08-2.95,4.23-4.49,6.68-6.8Z"/>
  <path class="st0" d="M584.47,471.65c13.27,7.57,17.79,24.75,13.86,49.89-3.34-.38-6.78-.9-10.91-1.41,8.16-16.8,6.68-32.32-2.95-48.48Z"/>
  <path class="st0" d="M538.37,465.11c.79,8.98,1.57,17.44,2.46,26.68-4.72-2.18-9.14-3.98-13.46-6.41-1.08-.64-2.26-2.82-2.36-4.49-.29-4.36-.1-8.72-.1-13.72,4.62-.64,8.94-1.28,13.46-2.05Z"/>
  <path class="st0" d="M434.19,441.9c2.46-8.46,4.52-16.03,7.17-23.34.59-1.67,3.54-3.21,5.11-2.82,2.46.51,4.62,2.82,6.88,4.49,0,0-.59,1.67-1.08,2.95-1.77-1.03-3.34-2.05-5.31-3.08-1.08,5-7.76,9.36.69,14.88-2.56,4.36-4.91,8.34-7.57,12.95-2.36-2.31-4.23-4.36-5.9-6.03Z"/>
  <path class="st0" d="M433.21,428.56c-1.97-4.62-4.32-10.39-7.57-17.83,5.21-2.05,10.52-4.23,15.73-6.28-3.15,9.11-5.8,17.19-8.16,24.11Z"/>
  <path class="st0" d="M427.41,461.01c-1.47-.51-3.15-.38-3.44-1.15-2.56-6.67-5.01-13.47-7.08-20.39-1.28-4.49.69-6.8,4.13-7.18,2.36-.38,4.82-.64,7.17-1.03.1.64.29,1.41.39,2.05-1.87,1.03-3.73,1.92-6.29,3.33,1.67,7.57,3.34,15.52,5.11,24.37Z"/>
  <path class="st0" d="M519.5,483.58h-6.49v-16.16c1.97-.13,4.03-.26,6.49-.38v16.54Z"/>
  <path class="st0" d="M425.54,468.58c4.03-.51,8.06-1.03,12.58-1.54-1.38,6.16-3.24,10.77-8.26,9.49-2.06-.51-3.73-3.33-5.6-5.13.39-1.03.88-1.92,1.28-2.82Z"/>
  <path class="st0" d="M453.75,413.55c-2.65-1.03-4.91-1.92-7.17-2.82-.49-3.85-.88-7.57-1.38-11.67,9.14,4.49,10.12,6.03,8.55,14.49Z"/>
  <path class="st0" d="M427.9,424.33c-3.64,1.15-6.29,1.92-8.55,2.69v-18.47c3.15,5.77,5.6,10.39,8.55,15.78Z"/>
  <path class="st0" d="M441.66,458.83c-2.85,0-6.49,1.41-8.45-.38-2.06-1.8-2.56-6.67-3.64-10.13.49-.38.98-.9,1.47-1.28,3.64,3.08,7.17,6.16,10.81,9.23-.1.9-.2,1.8-.2,2.57Z"/>
  <path class="st0" d="M734.35,419.33h35.48c.2,2.57.39,4.87.39,7.05,0,32.96-.2,65.79-.1,98.76,0,5.26-1.08,7.95-5.21,7.95-8.94,0-17.89.13-26.83-.51-1.38-.13-3.83-3.72-3.83-5.77-.2-33.99-.2-67.98-.2-101.96,0-1.54.2-3.08.29-5.51ZM765.12,425.35c-8.06,0-15.23-.26-22.41.26-1.18.13-3.24,2.95-3.24,4.62-.29,14.88-.29,29.76,0,44.76,0,1.67,2.16,4.49,3.44,4.62,6.19.51,12.38.51,18.58,0,1.28-.13,3.54-2.82,3.54-4.36.2-16.29.1-32.45.1-49.89ZM747.23,486.27c2.65,5.77,8.06,5.9,11.11,0h-11.11Z"/>
  <path class="st0" d="M704.28,484.74h24.87v43.35c-14.45-3.08-26.14-23.47-24.87-43.35Z"/>
  <path class="st0" d="M775.24,530.78v-45.53h23.39c-7.37,14.36-15.04,29.24-23.39,45.53Z"/>
  <path class="st0" d="M712.04,445.49c-3.64-14.88-2.75-21.03,2.65-21.55-.39,6.67,1.18,13.47-2.65,21.55Z"/>
</svg>